{
.appVersion = "3151";
.formatVersion = 3;
axes = (
{
hidden = 1;
name = Slant;
tag = slnt;
},
{
name = Weight;
tag = wght;
}
);
classes = (
{
automatic = 1;
code = "A Aacute Abreve Acircumflex Adieresis Agrave Amacron Aogonek Aring Atilde AE AEacute B Bdotaccent C Cacute Ccaron Ccedilla Ccircumflex Cdotaccent D Eth Dcaron Dcroat E Eacute Ebreve Ecaron Ecircumflex Edieresis Edotaccent Egrave Emacron Eogonek F Fdotaccent G Gbreve Gcaron Gcircumflex Gcommaaccent Gdotaccent Gmacron H Hbar Hcircumflex Hdotaccent I IJ Iacute Ibreve Icircumflex Idieresis Idotaccent Igrave Imacron Iogonek Itilde J Jcircumflex K Kcommaaccent L Lacute Lcaron Lcommaaccent Ldot Lslash M N Nacute Ncaron Ncommaaccent Ntilde Eng O Oacute Obreve Ocircumflex Odieresis Odotbelow Ograve Ohungarumlaut Omacron Oslash Oslashacute Otilde OE P Thorn Q R Racute Rcaron Rcommaaccent S Sacute Scaron Scedilla Scircumflex Scommaaccent Germandbls T Tbar Tcaron Tcedilla Tcommaaccent U Uacute Ubreve Ucircumflex Udieresis Ugrave Uhungarumlaut Umacron Uogonek Uring Utilde V W Wacute Wcircumflex Wdieresis Wgrave X Y Yacute Ycircumflex Ydieresis Ygrave Ytilde Z Zacute Zcaron Zdotaccent Delta Omega";
name = Uppercase;
}
);
customParameters = (
{
name = fsType;
value = (
);
},
{
name = "Write DisplayStrings";
value = 0;
},
{
name = "Write lastChange";
value = 0;
},
{
name = "Export Mac Name Table Entries";
value = 0;
},
{
name = "Use Typo Metrics";
value = 1;
},
{
name = "Use Extension Kerning";
value = 1;
},
{
name = "Variable Font Origin";
value = m002;
}
);
date = "2022-09-24 20:32:01 +0000";
familyName = "Uncut Plan8";
featurePrefixes = (
{
automatic = 1;
code = "languagesystem DFLT dflt;

languagesystem latn dflt;
languagesystem latn ROM;
languagesystem latn MOL;
languagesystem latn CAT;
";
name = Languagesystems;
}
);
features = (
{
automatic = 1;
code = "feature locl;
feature subs;
feature sinf;
feature sups;
feature numr;
feature dnom;
feature frac;
feature ordn;
feature case;
";
tag = aalt;
},
{

glyphs = (
{
glyphname = A;
layers = (
{
anchors = (
{
name = bottom;
pos = (330,0);
},
{
name = ogonek;
pos = (645,10);
},
{
name = top;
pos = (330,700);
}
);
layerId = m002;
shapes = (
{
closed = 1;
nodes = (
(640,0,l),
(400,700,l),
(291,700,l),
(531,0,l)
);
},
{
closed = 1;
nodes = (
(129,0,l),
(369,700,l),
(260,700,l),
(20,0,l)
);
},
{
closed = 1;
nodes = (
(511,185,l),
(511,275,l),
(153,275,l),
(153,185,l)
);
}
);
width = 660;
},
{
anchors = (
{
name = bottom;
pos = (281,0);
},
{
name = ogonek;
pos = (597,10);
},
{
name = top;
pos = (379,700);
}
);
layerId = m003;
shapes = (
{
closed = 1;
nodes = (
(605,0,l),
(463,700,l),
(354,700,l),
(496,0,l)
);
},
{
closed = 1;
nodes = (
(94,0,l),
(432,700,l),
(323,700,l),
(-15,0,l)
);
},
{
closed = 1;
nodes = (
(502,185,l),
(514,275,l),
(156,275,l),
(144,185,l)
);
}
);
width = 660;
},
{
anchors = (
{
name = bottom;
pos = (330,0);
},
{
name = ogonek;
pos = (645,10);
},
{
name = top;
pos = (330,700);
}
);
layerId = m004;
shapes = (
{
closed = 1;
nodes = (
(646,0,l),
(490,700,l),
(295,700,l),
(441,0,l)
);
},
{
closed = 1;
nodes = (
(219,0,l),
(365,700,l),
(170,700,l),
(14,0,l)
);
},
{
closed = 1;
nodes = (
(563,135,l),
(563,305,l),
(101,305,l),
(101,135,l)
);
}
);
width = 660;
},
{
anchors = (
{
name = bottom;
pos = (330,0);
},
{
name = ogonek;
pos = (645,10);
},
{
name = top;
pos = (330,700);
}
);
layerId = m005;
shapes = (
{
closed = 1;
nodes = (
(594,4,l),
(368,696,l),
(317,696,l),
(543,4,l)
);
},
{
closed = 1;
nodes = (
(117,4,l),
(343,696,l),
(292,696,l),
(66,4,l)
);
},
{
closed = 1;
nodes = (
(513,205,l),
(513,255,l),
(171,255,l),
(171,205,l)
);
}
);
width = 660;
}
);
unicode = 65;
},
{
glyphname = AE;
layers = (
{
anchors = (
{
name = bottom;
pos = (330,0);
},
{
name = top;
pos = (330,700);
}
);
layerId = m002;
shapes = (
{
closed = 1;
nodes = (
(441,0,l),
(441,700,l),
(331,700,l),
(331,0,l)
);
},
{
closed = 1;
nodes = (
(637,0,l),
(637,90,l),
(369,90,l),
(369,0,l)
);
},
{
closed = 1;
nodes = (
(607,305,l),
(607,395,l),
(369,395,l),
(369,305,l)
);
},
{
closed = 1;
nodes = (
(637,610,l),
(637,700,l),
(213,700,l),
(213,610,l)
);
},
{
closed = 1;
nodes = (
(129,0,l),
(279,700,l),
(173,700,l),
(23,0,l)
);
},
{
closed = 1;
nodes = (
(414,185,l),
(414,275,l),
(136,275,l),
(136,185,l)
);
}
);
width = 660;
},
{
anchors = (
{
name = bottom;
pos = (295,0);
},
{
name = top;
pos = (393,700);
}
);
layerId = m003;
shapes = (
{
closed = 1;
nodes = (
(406,0,l),
(504,700,l),
(394,700,l),
(296,0,l)
);
},
{
closed = 1;
nodes = (
(602,0,l),
(614,90,l),
(346,90,l),
(334,0,l)
);
},
{
closed = 1;
nodes = (
(615,305,l),
(627,395,l),
(389,395,l),
(377,305,l)
);
},
{
closed = 1;
nodes = (
(688,610,l),
(700,700,l),
(276,700,l),
(264,610,l)
);
},
{
closed = 1;
nodes = (
(98,0,l),
(346,700,l),
(236,700,l),
(-12,0,l)
);
},
{
closed = 1;
nodes = (
(405,185,l),
(417,275,l),
(139,275,l),
(127,185,l)
);
}
);
width = 660;
},
{
anchors = (
{
name = bottom;
pos = (344,0);
},
{
name = top;
pos = (344,700);
}
);
layerId = m004;
shapes = (
{
closed = 1;
nodes = (
(517,0,l),
(517,700,l),
(323,700,l),
(323,0,l)
);
},
{
closed = 1;
nodes = (
(643,0,l),
(643,170,l),
(391,170,l),
(391,0,l)
);
},
{
closed = 1;
nodes = (
(623,265,l),
(623,435,l),
(391,435,l),
(391,265,l)
);
},
{
closed = 1;
nodes = (
(643,530,l),
(643,700,l),
(175,700,l),
(175,530,l)
);
},
{
closed = 1;
nodes = (
(220,0,l),
(305,700,l),
(102,700,l),
(17,0,l)
);
},
{
closed = 1;
nodes = (
(480,145,l),
(480,315,l),
(98,315,l),
(98,145,l)
);
}
);
width = 660;
},
{
anchors = (
{
name = bottom;
pos = (338,0);
},
{
name = top;
pos = (338,700);
}
);
layerId = m005;
shapes = (
{
closed = 1;
nodes = (
(401,4,l),
(401,696,l),
(347,696,l),
(347,4,l)
);
},
{
closed = 1;
nodes = (
(617,4,l),
(617,54,l),
(385,54,l),
(385,4,l)
);
},
{
closed = 1;
nodes = (
(587,325,l),
(587,375,l),
(385,375,l),
(385,325,l)
);
},
{
closed = 1;
nodes = (
(617,646,l),
(617,696,l),
(219,696,l),
(219,646,l)
);
},
{
closed = 1;
nodes = (
(99,4,l),
(240,696,l),
(185,696,l),
(44,4,l)
);
},
{
closed = 1;
nodes = (
(374,205,l),
(374,255,l),
(112,255,l),
(112,205,l)
);
}
);
width = 660;
}
);
metricLeft = "=|";
metricWidth = A;
unicode = 198;
},
{
glyphname = B;
layers = (
{
anchors = (
{
name = bottom;
pos = (330,0);
},
{
name = center;
pos = (330,350);
},
{
name = top;
pos = (330,700);
}
);
layerId = m002;
shapes = (
{
closed = 1;
nodes = (
(381,0,ls),
(511,0,o),
(594,71,o),
(594,183,cs),
(594,303,o),
(499,373,o),
(335,373,c),
(335,333,l),
(479,333,o),
(565,400,o),
(565,513,cs),
(565,628,o),
(475,700,o),
(331,700,cs),
(112,700,l),
(112,610,l),
(341,610,ls),
(412,610,o),
(455,570,o),
(455,503,cs),
(455,436,o),
(412,396,o),
(341,396,cs),
(112,396,l),
(112,306,l),
(341,306,ls),
(431,306,o),
(484,266,o),
(484,199,cs),
(484,132,o),
(429,90,o),
(341,90,cs),
(112,90,l),
(112,0,l)
);
},
{
closed = 1;
nodes = (
(176,0,l),
(176,700,l),
(66,700,l),
(66,0,l)
);
}
);
width = 660;
},
{
anchors = (
{
name = bottom;
pos = (294,0);
},
{
name = center;
pos = (343,350);
},
{
name = top;
pos = (392,700);
}
);
layerId = m003;
shapes = (
{
closed = 1;
nodes = (
(345,0,ls),
(487,0,o),
(586,83,o),
(586,201,cs),
(586,311,o),
(501,373,o),
(351,373,c),
(346,333,l),
(505,333,o),
(603,405,o),
(603,521,cs),
(603,629,o),
(519,700,o),
(393,700,cs),
(174,700,l),
(162,610,l),
(391,610,ls),
(453,610,o),
(491,574,o),
(491,516,cs),
(491,446,o),
(436,396,o),
(360,396,cs),
(131,396,l),
(119,306,l),
(348,306,ls),
(428,306,o),
(477,269,o),
(477,207,cs),
(477,136,o),
(414,90,o),
(317,90,cs),
(88,90,l),
(76,0,l)
);
},
{
closed = 1;
nodes = (
(140,0,l),
(238,700,l),
(128,700,l),
(30,0,l)
);
}
);
width = 660;
},
{
anchors = (
{
name = bottom;
pos = (315,0);
},
{
name = center;
pos = (315,350);
},
{
name = top;
pos = (315,700);
}
);
layerId = m004;
shapes = (
{
closed = 1;
nodes = (
(366,0,ls),
(529,0,o),
(631,77,o),
(631,199,cs),
(631,327,o),
(520,385,o),
(278,385,c),
(278,320,l),
(504,320,o),
(602,372,o),
(602,491,cs),
(602,619,o),
(491,700,o),
(316,700,cs),
(75,700,l),
(75,530,l),
(326,530,ls),
(364,530,o),
(388,512,o),
(388,483,cs),
(388,454,o),
(364,436,o),
(326,436,cs),
(75,436,l),
(75,266,l),
(326,266,ls),
(388,266,o),
(417,251,o),
(417,218,cs),
(417,185,o),
(388,170,o),
(326,170,cs),
(75,170,l),
(75,0,l)
);
},
{
closed = 1;
nodes = (
(243,0,l),
(243,700,l),
(29,700,l),
(29,0,l)
);
}
);
width = 660;
},
{
anchors = (
{
name = bottom;
pos = (330,0);
},
{
name = center;
pos = (330,350);
},
{
name = top;
pos = (330,700);
}
);
layerId = m005;
shapes = (
{
closed = 1;
nodes = (
(381,4,ls),
(491,4,o),
(566,75,o),
(566,179,cs),
(566,286,o),
(488,355,o),
(363,356,c),
(363,350,l),
(469,352,o),
(537,417,o),
(537,516,cs),
(537,625,o),
(456,696,o),
(331,696,cs),
(140,696,l),
(140,646,l),
(341,646,ls),
(426,646,o),
(483,593,o),
(483,513,cs),
(483,432,o),
(424,376,o),
(341,376,cs),
(140,376,l),
(140,326,l),
(341,326,ls),
(444,326,o),
(512,269,o),
(512,183,cs),
(512,107,o),
(459,54,o),
(381,54,cs),
(140,54,l),
(140,4,l)
);
},
{
closed = 1;
nodes = (
(148,4,l),
(148,696,l),
(94,696,l),
(94,4,l)
);
}
);
width = 660;
}
);
metricLeft = "=|";
metricWidth = A;
unicode = 66;
},
{
glyphname = C;
layers = (
{
anchors = (
{
name = bottom;
pos = (323,0);
},
{
name = top;
pos = (323,700);
}
);
layerId = m002;
shapes = (
{
closed = 1;
nodes = (
(489,-16,o),
(592,70,o),
(611,209,c),
(500,209,l),
(485,126,o),
(423,74,o),
(337,74,cs),
(217,74,o),
(145,177,o),
(145,349,cs),
(145,522,o),
(217,626,o),
(338,626,cs),
(423,626,o),
(485,574,o),
(500,492,c),
(611,492,l),
(593,631,o),
(489,716,o),
(339,716,cs),
(149,716,o),
(35,579,o),
(35,351,cs),
(35,122,o),
(150,-16,o),
(339,-16,cs)
);
}
);
width = 660;
},
{
anchors = (
{
name = bottom;
pos = (282,0);
},
{
name = top;
pos = (380,700);
}
);
layerId = m003;
shapes = (
{
closed = 1;
nodes = (
(455,-16,o),
(572,77,o),
(608,209,c),
(497,209,l),
(472,130,o),
(401,74,o),
(326,74,cs),
(222,74,o),
(158,160,o),
(158,300,cs),
(158,491,o),
(259,626,o),
(401,626,cs),
(478,626,o),
(526,579,o),
(537,492,c),
(648,492,l),
(639,629,o),
(545,716,o),
(404,716,cs),
(195,716,o),
(47,545,o),
(47,303,cs),
(47,107,o),
(155,-16,o),
(325,-16,cs)
);
}
);
width = 660;
},
{
anchors = (
{
name = bottom;
pos = (341,0);
},
{
name = top;
pos = (341,700);
}
);
layerId = m004;
shapes = (
{
closed = 1;
nodes = (
(517,-16,o),
(633,91,o),
(635,249,c),
(421,249,l),
(417,190,o),
(384,154,o),
(333,154,cs),
(266,154,o),
(237,215,o),
(237,350,cs),
(237,486,o),
(266,546,o),
(334,546,cs),
(385,546,o),
(418,511,o),
(421,452,c),
(635,452,l),
(633,610,o),
(518,716,o),
(350,716,cs),
(153,716,o),
(23,570,o),
(23,350,cs),
(23,129,o),
(152,-16,o),
(349,-16,cs)
);
}
);
width = 660;
},
{
anchors = (
{
name = bottom;
pos = (337,0);
},
{
name = top;
pos = (337,700);
}
);
layerId = m005;
shapes = (
{
closed = 1;
nodes = (
(481,4,o),
(568,69,o),
(593,189,c),
(537,189,l),
(515,108,o),
(445,54,o),
(351,54,cs),
(210,54,o),
(131,168,o),
(131,349,cs),
(131,531,o),
(210,646,o),
(352,646,cs),
(445,646,o),
(515,592,o),
(537,512,c),
(593,512,l),
(569,631,o),
(481,696,o),
(353,696,cs),
(177,696,o),
(77,574,o),
(77,351,cs),
(77,127,o),
(178,4,o),
(353,4,cs)
);
}
);
width = 660;
}
);
metricRight = "=o*.75";
metricWidth = A;
unicode = 67;
},
{
glyphname = D;
layers = (
{
anchors = (
{
name = bottom;
pos = (344,0);
},
{
name = center;
pos = (344,350);
},
{
name = top;
pos = (344,700);
}
);
layerId = m002;
shapes = (
{
closed = 1;
nodes = (
(318,0,ls),
(502,0,o),
(614,132,o),
(614,350,cs),
(614,568,o),
(502,700,o),
(318,700,cs),
(143,700,l),
(143,610,l),
(297,610,ls),
(426,610,o),
(504,512,o),
(504,350,cs),
(504,188,o),
(426,90,o),
(297,90,cs),
(143,90,l),
(143,0,l)
);
},
{
closed = 1;
nodes = (
(184,0,l),
(184,700,l),
(74,700,l),
(74,0,l)
);
}
);
width = 660;
},
{
anchors = (
{
name = bottom;
pos = (309,0);
},
{
name = center;
pos = (358,350);
},
{
name = top;
pos = (407,700);
}
);
layerId = m003;
shapes = (
{
closed = 1;
nodes = (
(274,0,ls),
(484,0,o),
(634,166,o),
(634,400,cs),
(634,586,o),
(538,700,o),
(381,700,cs),
(206,700,l),
(194,610,l),
(381,610,ls),
(471,610,o),
(523,534,o),
(523,400,cs),
(523,214,o),
(424,90,o),
(274,90,cs),
(120,90,l),
(108,0,l)
);
},
{
closed = 1;
nodes = (
(149,0,l),
(247,700,l),
(137,700,l),
(39,0,l)
);
}
);
width = 660;
},
{
anchors = (
{
name = bottom;
pos = (335,0);
},
{
name = center;
pos = (335,350);
},
{
name = top;
pos = (335,700);
}
);
layerId = m004;
shapes = (
{
closed = 1;
nodes = (
(329,0,ls),
(509,0,o),
(627,139,o),
(627,350,cs),
(627,561,o),
(509,700,o),
(329,700,cs),
(82,700,l),
(82,530,l),
(308,530,ls),
(377,530,o),
(413,469,o),
(413,350,cs),
(413,231,o),
(377,170,o),
(308,170,cs),
(82,170,l),
(82,0,l)
);
},
{
closed = 1;
nodes = (
(257,0,l),
(257,700,l),
(43,700,l),
(43,0,l)
);
}
);
width = 660;
},
{
anchors = (
{
name = bottom;
pos = (334,0);
},
{
name = center;
pos = (334,350);
},
{
name = top;
pos = (334,700);
}
);
layerId = m005;
shapes = (
{
closed = 1;
nodes = (
(308,4,ls),
(476,4,o),
(576,137,o),
(576,350,cs),
(576,563,o),
(476,696,o),
(308,696,cs),
(131,696,l),
(131,646,l),
(308,646,ls),
(446,646,o),
(522,520,o),
(522,350,cs),
(522,180,o),
(446,54,o),
(308,54,cs),
(131,54,l),
(131,4,l)
);
},
{
closed = 1;
nodes = (
(146,4,l),
(146,696,l),
(92,696,l),
(92,4,l)
);
}
);
width = 660;
}
);
metricLeft = "=l";
metricWidth = A;
unicode = 68;
},
{
glyphname = Eth;
layers = (
{
layerId = m002;
shapes = (
{
ref = D;
},
{
closed = 1;
nodes = (
(330,310,l),
(330,390,l),
(10,390,l),
(10,310,l)
);
}
);
width = 660;
},
{
layerId = m003;
shapes = (
{
ref = D;
},
{
closed = 1;
nodes = (
(324,310,l),
(336,390,l),
(16,390,l),
(4,310,l)
);
}
);
width = 660;
},
{
layerId = m004;
shapes = (
{
ref = D;
},
{
closed = 1;
nodes = (
(342,270,l),
(342,430,l),
(-42,430,l),
(-42,270,l)
);
}
);
width = 660;
},
{
layerId = m005;
shapes = (
{
ref = D;
},
{
closed = 1;
nodes = (
(302,330,l),
(302,370,l),
(38,370,l),
(38,330,l)
);
}
);
width = 660;
}
);
metricRight = "=D";
metricWidth = A;
unicode = 208;
},
{
glyphname = E;
layers = (
{
anchors = (
{
name = bottom;
pos = (330,0);
},
{
name = ogonek;
pos = (571,10);
},
{
name = top;
pos = (330,700);
},
{
name = topleft;
pos = (30,700);
}
);
layerId = m002;
shapes = (
{
closed = 1;
nodes = (
(207,0,l),
(207,700,l),
(97,700,l),
(97,0,l)
);
},
{
closed = 1;
nodes = (
(563,0,l),
(563,90,l),
(135,90,l),
(135,0,l)
);
},
{
closed = 1;
nodes = (
(533,305,l),
(533,395,l),
(135,395,l),
(135,305,l)
);
},
{
closed = 1;
nodes = (
(563,610,l),
(563,700,l),
(135,700,l),
(135,610,l)
);
}
);
width = 660;
},
{
anchors = (
{
name = bottom;
pos = (295,0);
},
{
name = ogonek;
pos = (537,10);
},
{
name = top;
pos = (393,700);
},
{
name = topleft;
pos = (93,700);
}
);
layerId = m003;
shapes = (
{
closed = 1;
nodes = (
(172,0,l),
(270,700,l),
(160,700,l),
(62,0,l)
);
},
{
closed = 1;
nodes = (
(528,0,l),
(540,90,l),
(112,90,l),
(100,0,l)
);
},
{
closed = 1;
nodes = (
(541,305,l),
(553,395,l),
(155,395,l),
(143,305,l)
);
},
{
closed = 1;
nodes = (
(614,610,l),
(626,700,l),
(198,700,l),
(186,610,l)
);
}
);
width = 660;
},
{
anchors = (
{
name = bottom;
pos = (315,0);
},
{
name = ogonek;
pos = (556,10);
},
{
name = top;
pos = (315,700);
},
{
name = topleft;
pos = (15,700);
}
);
layerId = m004;
shapes = (
{
closed = 1;
nodes = (
(284,0,l),
(284,700,l),
(70,700,l),
(70,0,l)
);
},
{
closed = 1;
nodes = (
(590,0,l),
(590,170,l),
(108,170,l),
(108,0,l)
);
},
{
closed = 1;
nodes = (
(560,265,l),
(560,435,l),
(108,435,l),
(108,265,l)
);
},
{
closed = 1;
nodes = (
(590,530,l),
(590,700,l),
(108,700,l),
(108,530,l)
);
}
);
width = 660;
},
{
anchors = (
{
name = bottom;
pos = (330,0);
},
{
name = ogonek;
pos = (571,10);
},
{
name = top;
pos = (330,700);
},
{
name = topleft;
pos = (30,700);
}
);
layerId = m005;
shapes = (
{
closed = 1;
nodes = (
(179,20,l),
(179,680,l),
(125,680,l),
(125,20,l)
);
},
{
closed = 1;
nodes = (
(535,20,l),
(535,70,l),
(163,70,l),
(163,20,l)
);
},
{
closed = 1;
nodes = (
(505,325,l),
(505,375,l),
(163,375,l),
(163,325,l)
);
},
{
closed = 1;
nodes = (
(535,630,l),
(535,680,l),
(163,680,l),
(163,630,l)
);
}
);
width = 660;
}
);
metricLeft = "=|";
metricWidth = A;
unicode = 69;
},
{
glyphname = F;
layers = (
{
anchors = (
{
name = bottom;
pos = (342,0);
},
{
name = top;
pos = (342,700);
}
);
layerId = m002;
shapes = (
{
closed = 1;
nodes = (
(219,0,l),
(219,700,l),
(109,700,l),
(109,0,l)
);
},
{
closed = 1;
nodes = (
(545,305,l),
(545,395,l),
(147,395,l),
(147,305,l)
);
},
{
closed = 1;
nodes = (
(575,610,l),
(575,700,l),
(147,700,l),
(147,610,l)
);
}
);
width = 660;
},
{
anchors = (
{
name = bottom;
pos = (307,0);
},
{
name = top;
pos = (405,700);
}
);
layerId = m003;
shapes = (
{
closed = 1;
nodes = (
(184,0,l),
(282,700,l),
(172,700,l),
(74,0,l)
);
},
{
closed = 1;
nodes = (
(553,305,l),
(565,395,l),
(167,395,l),
(155,305,l)
);
},
{
closed = 1;
nodes = (
(626,610,l),
(638,700,l),
(210,700,l),
(198,610,l)
);
}
);
width = 660;
},
{
anchors = (
{
name = bottom;
pos = (297,0);
},
{
name = top;
pos = (297,700);
}
);
layerId = m004;
shapes = (
{
closed = 1;
nodes = (
(266,0,l),
(266,700,l),
(52,700,l),
(52,0,l)
);
},
{
closed = 1;
nodes = (
(542,265,l),
(542,435,l),
(90,435,l),
(90,265,l)
);
},
{
closed = 1;
nodes = (
(572,530,l),
(572,700,l),
(90,700,l),
(90,530,l)
);
}
);
width = 660;
},
{
anchors = (
{
name = bottom;
pos = (334,0);
},
{
name = top;
pos = (334,700);
}
);
layerId = m005;
shapes = (
{
closed = 1;
nodes = (
(183,20,l),
(183,680,l),
(129,680,l),
(129,20,l)
);
},
{
closed = 1;
nodes = (
(509,325,l),
(509,375,l),
(167,375,l),
(167,325,l)
);
},
{
closed = 1;
nodes = (
(539,630,l),
(539,680,l),
(167,680,l),
(167,630,l)
);
}
);
width = 660;
}
);
metricLeft = "=H*1.1";
metricWidth = A;
unicode = 70;
},
{
glyphname = G;
layers = (
{
anchors = (
{
name = bottom;
pos = (323,0);
},
{
name = top;
pos = (323,700);
}
);
layerId = m002;
shapes = (
{
closed = 1;
nodes = (
(443,-16,o),
(516,73,o),
(516,219,c),
(486,269,l),
(486,148,o),
(429,74,o),
(336,74,cs),
(226,74,o),
(160,177,o),
(160,345,cs),
(160,520,o),
(231,626,o),
(341,626,cs),
(418,626,o),
(471,575,o),
(485,492,c),
(596,492,l),
(577,631,o),
(484,716,o),
(343,716,cs),
(163,716,o),
(50,576,o),
(50,343,cs),
(50,121,o),
(153,-16,o),
(314,-16,cs)
);
},
{
closed = 1;
nodes = (
(596,0,l),
(596,325,l),
(486,325,l),
(486,168,l),
(515,0,l)
);
},
{
closed = 1;
nodes = (
(596,265,l),
(596,355,l),
(278,355,l),
(278,265,l)
);
}
);
width = 660;
},
{
anchors = (
{
name = bottom;
pos = (304,0);
},
{
name = top;
pos = (402,700);
}
);
layerId = m003;
shapes = (
{
closed = 1;
nodes = (
(396,-16,o),
(492,81,o),
(512,219,c),
(489,269,l),
(473,156,o),
(399,74,o),
(313,74,cs),
(224,74,o),
(167,161,o),
(167,298,cs),
(167,480,o),
(265,626,o),
(388,626,cs),
(460,626,o),
(508,577,o),
(519,492,c),
(630,492,l),
(622,627,o),
(528,716,o),
(393,716,cs),
(202,716,o),
(56,534,o),
(56,294,cs),
(56,107,o),
(144,-16,o),
(278,-16,cs)
);
},
{
closed = 1;
nodes = (
(561,0,l),
(606,325,l),
(496,325,l),
(474,168,l),
(480,0,l)
);
},
{
closed = 1;
nodes = (
(598,265,l),
(611,355,l),
(293,355,l),
(280,265,l)
);
}
);
width = 660;
},
{
anchors = (
{
name = bottom;
pos = (312,0);
},
{
name = top;
pos = (312,700);
}
);
layerId = m004;
shapes = (
{
closed = 1;
nodes = (
(414,-16,o),
(497,78,o),
(497,230,c),
(413,349,l),
(413,224,o),
(394,154,o),
(320,154,cs),
(248,154,o),
(211,219,o),
(211,348,cs),
(211,479,o),
(249,546,o),
(324,546,cs),
(377,546,o),
(413,513,o),
(417,462,c),
(629,462,l),
(626,614,o),
(509,716,o),
(337,716,cs),
(131,716,o),
(-3,567,o),
(-3,338,cs),
(-3,127,o),
(110,-16,o),
(278,-16,cs)
);
},
{
closed = 1;
nodes = (
(627,0,l),
(627,365,l),
(413,365,l),
(413,165,l),
(472,0,l)
);
},
{
closed = 1;
nodes = (
(627,245,l),
(627,395,l),
(285,395,l),
(285,245,l)
);
}
);
width = 660;
},
{
anchors = (
{
name = bottom;
pos = (329,0);
},
{
name = top;
pos = (329,700);
}
);
layerId = m005;
shapes = (
{
closed = 1;
nodes = (
(454,-12,o),
(543,79,o),
(544,215,c),
(530,269,l),
(530,129,o),
(455,38,o),
(339,38,cs),
(207,38,o),
(128,155,o),
(128,347,cs),
(128,544,o),
(208,662,o),
(344,662,cs),
(436,662,o),
(502,607,o),
(525,512,c),
(580,512,l),
(554,639,o),
(468,712,o),
(346,712,cs),
(177,712,o),
(74,571,o),
(74,338,cs),
(74,118,o),
(166,-12,o),
(322,-12,cs)
);
},
{
closed = 1;
nodes = (
(584,4,l),
(584,305,l),
(530,305,l),
(530,169,l),
(555,4,l)
);
},
{
closed = 1;
nodes = (
(584,285,l),
(584,335,l),
(322,335,l),
(322,285,l)
);
}
);
width = 660;
}
);
metricRight = "=H*.65";
metricWidth = A;
unicode = 71;
},
{
glyphname = H;
layers = (
{
anchors = (
{
name = bottom;
pos = (330,0);
},
{
name = center;
pos = (330,350);
},
{
name = top;
pos = (330,700);
},
{
name = topleft;
pos = (30,700);
}
);
layerId = m002;
shapes = (
{
closed = 1;
nodes = (
(561,0,l),
(561,700,l),
(451,700,l),
(451,0,l)
);
},
{
closed = 1;
nodes = (
(209,0,l),
(209,700,l),
(99,700,l),
(99,0,l)
);
},
{
closed = 1;
nodes = (
(515,305,l),
(515,395,l),
(137,395,l),
(137,305,l)
);
}
);
width = 660;
},
{
anchors = (
{
name = bottom;
pos = (295,0);
},
{
name = center;
pos = (344,350);
},
{
name = top;
pos = (393,700);
},
{
name = topleft;
pos = (93,700);
}
);
layerId = m003;
shapes = (
{
closed = 1;
nodes = (
(526,0,l),
(624,700,l),
(514,700,l),
(416,0,l)
);
},
{
closed = 1;
nodes = (
(174,0,l),
(272,700,l),
(162,700,l),
(64,0,l)
);
},
{
closed = 1;
nodes = (
(523,305,l),
(535,395,l),
(157,395,l),
(145,305,l)
);
}
);
width = 660;
},
{
anchors = (
{
name = bottom;
pos = (330,0);
},
{
name = center;
pos = (330,350);
},
{
name = top;
pos = (330,700);
},
{
name = topleft;
pos = (30,700);
}
);
layerId = m004;
shapes = (
{
closed = 1;
nodes = (
(613,0,l),
(613,700,l),
(399,700,l),
(399,0,l)
);
},
{
closed = 1;
nodes = (
(261,0,l),
(261,700,l),
(47,700,l),
(47,0,l)
);
},
{
closed = 1;
nodes = (
(567,265,l),
(567,435,l),
(85,435,l),
(85,265,l)
);
}
);
width = 660;
},
{
anchors = (
{
name = bottom;
pos = (330,0);
},
{
name = center;
pos = (330,350);
},
{
name = top;
pos = (330,700);
},
{
name = topleft;
pos = (30,700);
}
);
layerId = m005;
shapes = (
{
closed = 1;
nodes = (
(543,0,l),
(543,700,l),
(489,700,l),
(489,0,l)
);
},
{
closed = 1;
nodes = (
(171,0,l),
(171,700,l),
(117,700,l),
(117,0,l)
);
},
{
closed = 1;
nodes = (
(497,325,l),
(497,375,l),
(155,375,l),
(155,325,l)
);
}
);
width = 660;
}
);
metricLeft = "=|";
metricWidth = A;
unicode = 72;
},
{
glyphname = Hbar;
layers = (
{
layerId = m002;
shapes = (
{
ref = H;
},
{
closed = 1;
nodes = (
(626,500,l),
(626,580,l),
(34,580,l),
(34,500,l)
);
}
);
width = 660;
},
{
layerId = m003;
shapes = (
{
pos = (14,0);
ref = H;
},
{
closed = 1;
nodes = (
(661,500,l),
(672,580,l),
(80,580,l),
(69,500,l)
);
}
);
width = 660;
},
{
layerId = m004;
shapes = (
{
ref = H;
},
{
closed = 1;
nodes = (
(678,472,l),
(678,632,l),
(-18,632,l),
(-18,472,l)
);
}
);
width = 660;
},
{
layerId = m005;
shapes = (
{
ref = H;
},
{
closed = 1;
nodes = (
(598,520,l),
(598,560,l),
(62,560,l),
(62,520,l)
);
}
);
width = 660;
}
);
metricLeft = "=|";
metricWidth = A;
unicode = 294;
},
{
glyphname = I;
layers = (
{
anchors = (
{
name = bottom;
pos = (330,0);
},
{
name = ogonek;
pos = (537,10);
},
{
name = top;
pos = (330,700);
},
{
name = topleft;
pos = (30,700);
}
);
layerId = m002;
shapes = (
{
closed = 1;
nodes = (
(385,0,l),
(385,700,l),
(275,700,l),
(275,0,l)
);
},
{
closed = 1;
nodes = (
(529,610,l),
(529,700,l),
(131,700,l),
(131,610,l)
);
},
{
closed = 1;
nodes = (
(529,0,l),
(529,90,l),
(131,90,l),
(131,0,l)
);
}
);
width = 660;
},
{
anchors = (
{
name = bottom;
pos = (296,0);
},
{
name = ogonek;
pos = (504,10);
},
{
name = top;
pos = (394,700);
},
{
name = topleft;
pos = (94,700);
}
);
layerId = m003;
shapes = (
{
closed = 1;
nodes = (
(351,0,l),
(449,700,l),
(339,700,l),
(241,0,l)
);
},
{
closed = 1;
nodes = (
(581,610,l),
(593,700,l),
(195,700,l),
(183,610,l)
);
},
{
closed = 1;
nodes = (
(495,0,l),
(507,90,l),
(109,90,l),
(97,0,l)
);
}
);
width = 660;
},
{
anchors = (
{
name = bottom;
pos = (330,0);
},
{
name = ogonek;
pos = (537,10);
},
{
name = top;
pos = (330,700);
},
{
name = topleft;
pos = (30,700);
}
);
layerId = m004;
shapes = (
{
closed = 1;
nodes = (
(437,0,l),
(437,700,l),
(223,700,l),
(223,0,l)
);
},
{
closed = 1;
nodes = (
(571,530,l),
(571,700,l),
(89,700,l),
(89,530,l)
);
},
{
closed = 1;
nodes = (
(571,0,l),
(571,170,l),
(89,170,l),
(89,0,l)
);
}
);
width = 660;
},
{
anchors = (
{
name = bottom;
pos = (330,0);
},
{
name = ogonek;
pos = (537,10);
},
{
name = top;
pos = (330,700);
},
{
name = topleft;
pos = (30,700);
}
);
layerId = m005;
shapes = (
{
closed = 1;
nodes = (
(357,0,l),
(357,700,l),
(303,700,l),
(303,0,l)
);
},
{
closed = 1;
nodes = (
(501,650,l),
(501,700,l),
(159,700,l),
(159,650,l)
);
},
{
closed = 1;
nodes = (
(501,0,l),
(501,50,l),
(159,50,l),
(159,0,l)
);
}
);
width = 660;
}
);
metricLeft = "=|";
metricWidth = A;
unicode = 73;
},
{
glyphname = IJ;
layers = (
{
anchors = (
{
name = bottom;
pos = (295,0);
},
{
name = ogonek;
pos = (-109,10);
},
{
name = top;
pos = (355,700);
},
{
name = topleft;
pos = (-665,700);
}
);
layerId = m002;
shapes = (
{
closed = 1;
nodes = (
(179,310,l),
(179,700,l),
(69,700,l),
(69,310,l)
);
},
{
closed = 1;
nodes = (
(454,-16,o),
(541,73,o),
(541,235,cs),
(541,700,l),
(431,700,l),
(431,235,ls),
(431,130,o),
(385,74,o),
(298,74,cs),
(223,74,o),
(179,115,o),
(179,185,c),
(69,185,l),
(69,58,o),
(153,-16,o),
(297,-16,cs)
);
},
{
closed = 1;
nodes = (
(494,610,l),
(494,700,l),
(291,700,l),
(291,610,l)
);
}
);
width = 660;
},
{
anchors = (
{
name = bottom;
pos = (260,0);
},
{
name = ogonek;
pos = (-143,10);
},
{
name = top;
pos = (418,700);
},
{
name = topleft;
pos = (-602,700);
}
);
layerId = m003;
shapes = (
{
closed = 1;
nodes = (
(187,310,l),
(242,700,l),
(132,700,l),
(77,310,l)
);
},
{
closed = 1;
nodes = (
(413,-16,o),
(517,80,o),
(539,235,cs),
(604,700,l),
(494,700,l),
(429,235,ls),
(415,137,o),
(353,74,o),
(271,74,cs),
(202,74,o),
(161,119,o),
(170,185,c),
(60,185,l),
(43,69,o),
(130,-16,o),
(267,-16,cs)
);
},
{
closed = 1;
nodes = (
(545,610,l),
(557,700,l),
(354,700,l),
(342,610,l)
);
}
);
width = 660;
},
{
anchors = (
{
name = bottom;
pos = (306,0);
},
{
name = ogonek;
pos = (-98,10);
},
{
name = top;
pos = (366,700);
},
{
name = topleft;
pos = (-654,700);
}
);
layerId = m004;
shapes = (
{
closed = 1;
nodes = (
(242,270,l),
(242,728,l),
(28,728,l),
(28,270,l)
);
},
{
closed = 1;
nodes = (
(480,-44,o),
(604,65,o),
(604,235,cs),
(604,728,l),
(390,728,l),
(390,235,ls),
(390,160,o),
(361,126,o),
(310,126,cs),
(258,126,o),
(234,156,o),
(244,225,c),
(30,225,l),
(13,66,o),
(131,-44,o),
(306,-44,cs)
);
},
{
closed = 1;
nodes = (
(557,558,l),
(557,728,l),
(270,728,l),
(270,558,l)
);
}
);
width = 660;
},
{
anchors = (
{
name = bottom;
pos = (302,0);
},
{
name = ogonek;
pos = (-102,10);
},
{
name = top;
pos = (362,700);
},
{
name = topleft;
pos = (-658,700);
}
);
layerId = m005;
shapes = (
{
closed = 1;
nodes = (
(158,330,l),
(158,680,l),
(104,680,l),
(104,330,l)
);
},
{
closed = 1;
nodes = (
(447,4,o),
(520,79,o),
(520,235,cs),
(520,680,l),
(466,680,l),
(466,235,ls),
(466,122,o),
(410,54,o),
(305,54,cs),
(224,54,o),
(168,96,o),
(159,165,c),
(104,165,l),
(112,58,o),
(180,4,o),
(304,4,cs)
);
},
{
closed = 1;
nodes = (
(473,630,l),
(473,680,l),
(326,680,l),
(326,630,l)
);
}
);
width = 660;
}
);
metricRight = "=J";
metricWidth = A;
unicode = 306;
},
{
glyphname = J;
layers = (
{
anchors = (
{
name = bottom;
pos = (295,0);
},
{
name = top;
pos = (355,700);
}
);
layerId = m002;
shapes = (
{
closed = 1;
nodes = (
(447,-16,o),
(541,79,o),
(541,235,cs),
(541,700,l),
(431,700,l),
(431,235,ls),
(431,135,o),
(378,74,o),
(291,74,cs),
(209,74,o),
(159,127,o),
(159,215,c),
(49,215,l),
(49,71,o),
(141,-16,o),
(291,-16,cs)
);
},
{
closed = 1;
nodes = (
(494,610,l),
(494,700,l),
(126,700,l),
(126,610,l)
);
}
);
width = 660;
},
{
anchors = (
{
name = bottom;
pos = (260,0);
},
{
name = top;
pos = (418,700);
}
);
layerId = m003;
shapes = (
{
closed = 1;
nodes = (
(411,-16,o),
(517,81,o),
(539,235,cs),
(604,700,l),
(494,700,l),
(429,235,ls),
(415,137,o),
(351,74,o),
(267,74,cs),
(188,74,o),
(142,131,o),
(154,215,c),
(44,215,l),
(25,81,o),
(118,-16,o),
(264,-16,cs)
);
},
{
closed = 1;
nodes = (
(545,610,l),
(557,700,l),
(189,700,l),
(177,610,l)
);
}
);
width = 660;
},
{
anchors = (
{
name = bottom;
pos = (326,0);
},
{
name = top;
pos = (386,700);
}
);
layerId = m004;
shapes = (
{
closed = 1;
nodes = (
(491,-16,o),
(604,86,o),
(604,235,cs),
(604,700,l),
(390,700,l),
(390,235,ls),
(390,187,o),
(363,154,o),
(324,154,cs),
(283,154,o),
(264,187,o),
(264,255,c),
(50,255,l),
(50,92,o),
(160,-16,o),
(328,-16,cs)
);
},
{
closed = 1;
nodes = (
(557,530,l),
(557,700,l),
(125,700,l),
(125,530,l)
);
}
);
width = 660;
},
{
anchors = (
{
name = bottom;
pos = (302,0);
},
{
name = top;
pos = (362,700);
}
);
layerId = m005;
shapes = (
{
closed = 1;
nodes = (
(441,4,o),
(520,85,o),
(520,235,cs),
(520,680,l),
(466,680,l),
(466,235,ls),
(466,126,o),
(404,54,o),
(298,54,cs),
(210,54,o),
(147,106,o),
(140,195,c),
(85,195,l),
(92,70,o),
(168,4,o),
(298,4,cs)
);
},
{
closed = 1;
nodes = (
(473,630,l),
(473,680,l),
(161,680,l),
(161,630,l)
);
}
);
width = 660;
}
);
metricRight = "=H*1.2";
metricWidth = A;
unicode = 74;
},
{
glyphname = K;
layers = (
{
anchors = (
{
name = bottom;
pos = (380,0);
},
{
name = top;
pos = (380,700);
}
);
layerId = m002;
shapes = (
{
closed = 1;
nodes = (
(641,700,l),
(506,700,l),
(146,319,l),
(185,210,l)
);
},
{
closed = 1;
nodes = (
(219,0,l),
(219,700,l),
(109,700,l),
(109,0,l)
);
},
{
closed = 1;
nodes = (
(651,0,l),
(349,415,l),
(268,354,l),
(526,0,l)
);
}
);
width = 660;
},
{
anchors = (
{
name = bottom;
pos = (345,0);
},
{
name = top;
pos = (443,700);
}
);
layerId = m003;
shapes = (
{
closed = 1;
nodes = (
(704,700,l),
(569,700,l),
(156,319,l),
(179,210,l)
);
},
{
closed = 1;
nodes = (
(184,0,l),
(282,700,l),
(172,700,l),
(74,0,l)
);
},
{
closed = 1;
nodes = (
(616,0,l),
(372,415,l),
(283,354,l),
(491,0,l)
);
}
);
width = 660;
},
{
anchors = (
{
name = bottom;
pos = (375,0);
},
{
name = top;
pos = (375,700);
}
);
layerId = m004;
shapes = (
{
closed = 1;
nodes = (
(637,700,l),
(405,700,l),
(114,257,l),
(209,78,l)
);
},
{
closed = 1;
nodes = (
(266,0,l),
(266,700,l),
(52,700,l),
(52,0,l)
);
},
{
closed = 1;
nodes = (
(636,0,l),
(396,449,l),
(258,331,l),
(410,0,l)
);
}
);
width = 660;
},
{
anchors = (
{
name = bottom;
pos = (372,0);
},
{
name = top;
pos = (372,700);
}
);
layerId = m005;
shapes = (
{
closed = 1;
nodes = (
(581,700,l),
(513,700,l),
(136,279,l),
(157,222,l)
);
},
{
closed = 1;
nodes = (
(183,0,l),
(183,700,l),
(129,700,l),
(129,0,l)
);
},
{
closed = 1;
nodes = (
(597,0,l),
(311,414,l),
(271,383,l),
(535,0,l)
);
}
);
width = 660;
}
);
metricLeft = "=H*1.1";
metricWidth = A;
unicode = 75;
},
{
glyphname = L;
layers = (
{
anchors = (
{
name = bottom;
pos = (372,0);
},
{
name = center;
pos = (372,350);
},
{
name = top;
pos = (193,700);
},
{
name = topright;
pos = (672,700);
}
);
layerId = m002;
shapes = (
{
closed = 1;
nodes = (
(249,0,l),
(249,700,l),
(139,700,l),
(139,0,l)
);
},
{
closed = 1;
nodes = (
(605,0,l),
(605,90,l),
(177,90,l),
(177,0,l)
);
}
);
width = 660;
},
{
anchors = (
{
name = bottom;
pos = (337,0);
},
{
name = center;
pos = (386,350);
},
{
name = top;
pos = (256,700);
},
{
name = topright;
pos = (735,700);
}
);
layerId = m003;
shapes = (
{
closed = 1;
nodes = (
(214,0,l),
(312,700,l),
(202,700,l),
(104,0,l)
);
},
{
closed = 1;
nodes = (
(570,0,l),
(582,90,l),
(154,90,l),
(142,0,l)
);
}
);
width = 660;
},
{
anchors = (
{
name = bottom;
pos = (351,0);
},
{
name = center;
pos = (351,350);
},
{
name = top;
pos = (172,700);
},
{
name = topright;
pos = (651,700);
}
);
layerId = m004;
shapes = (
{
closed = 1;
nodes = (
(280,0,l),
(280,700,l),
(66,700,l),
(66,0,l)
);
},
{
closed = 1;
nodes = (
(596,0,l),
(596,170,l),
(104,170,l),
(104,0,l)
);
}
);
width = 660;
},
{
anchors = (
{
name = bottom;
pos = (369,0);
},
{
name = center;
pos = (369,350);
},
{
name = top;
pos = (190,700);
},
{
name = topright;
pos = (669,700);
}
);
layerId = m005;
shapes = (
{
closed = 1;
nodes = (
(218,0,l),
(218,700,l),
(164,700,l),
(164,0,l)
);
},
{
closed = 1;
nodes = (
(574,0,l),
(574,50,l),
(202,50,l),
(202,0,l)
);
}
);
width = 660;
}
);
metricLeft = "=H*1.4";
metricWidth = A;
unicode = 76;
},
{
glyphname = Lslash;
layers = (
{
layerId = m002;
shapes = (
{
ref = L;
},
{
closed = 1;
nodes = (
(407,374,l),
(379,449,l),
(41,326,l),
(68,251,l)
);
}
);
width = 660;
},
{
layerId = m003;
shapes = (
{
ref = L;
},
{
closed = 1;
nodes = (
(420,374,l),
(403,449,l),
(48,326,l),
(64,251,l)
);
}
);
width = 660;
},
{
layerId = m004;
shapes = (
{
ref = L;
},
{
closed = 1;
nodes = (
(468,352,l),
(411,506,l),
(-20,348,l),
(34,194,l)
);
}
);
width = 660;
},
{
layerId = m005;
shapes = (
{
ref = L;
},
{
closed = 1;
nodes = (
(374,384,l),
(361,420,l),
(73,316,l),
(86,280,l)
);
}
);
width = 660;
}
);
metricRight = "=L";
metricWidth = A;
unicode = 321;
},
{
glyphname = M;
layers = (
{
anchors = (
{
name = bottom;
pos = (330,0);
},
{
name = top;
pos = (330,700);
}
);
layerId = m002;
shapes = (
{
closed = 1;
nodes = (
(182,0,l),
(182,545,l),
(154,572,l),
(278,270,l),
(383,270,l),
(506,572,l),
(478,545,l),
(478,0,l),
(580,0,l),
(580,700,l),
(474,700,l),
(315,335,l),
(347,335,l),
(186,700,l),
(80,700,l),
(80,0,l)
);
}
);
width = 660;
},
{
anchors = (
{
name = bottom;
pos = (295,0);
},
{
name = top;
pos = (393,700);
}
);
layerId = m003;
shapes = (
{
closed = 1;
nodes = (
(151,0,l),
(227,545,l),
(199,572,l),
(281,270,l),
(386,270,l),
(551,572,l),
(515,545,l),
(439,0,l),
(545,0,l),
(643,700,l),
(537,700,l),
(327,335,l),
(359,335,l),
(249,700,l),
(143,700,l),
(45,0,l)
);
}
);
width = 660;
},
{
anchors = (
{
name = bottom;
pos = (330,0);
},
{
name = top;
pos = (330,700);
}
);
layerId = m004;
shapes = (
{
closed = 1;
nodes = (
(228,0,l),
(228,566,l),
(174,566,l),
(291,290,l),
(371,290,l),
(487,567,l),
(432,567,l),
(432,0,l),
(632,0,l),
(632,700,l),
(437,700,l),
(305,414,l),
(356,414,l),
(223,700,l),
(28,700,l),
(28,0,l)
);
}
);
width = 660;
},
{
anchors = (
{
name = bottom;
pos = (350,0);
},
{
name = top;
pos = (350,700);
}
);
layerId = m005;
shapes = (
{
closed = 1;
nodes = (
(148,0,l),
(148,636,l),
(129,636,l),
(308,290,l),
(353,290,l),
(531,636,l),
(512,636,l),
(512,0,l),
(566,0,l),
(566,700,l),
(504,700,l),
(323,334,l),
(338,334,l),
(156,700,l),
(94,700,l),
(94,0,l)
);
}
);
width = 660;
}
);
metricLeft = "=|";
metricWidth = A;
unicode = 77;
},
{
glyphname = N;
layers = (
{
anchors = (
{
name = bottom;
pos = (330,0);
},
{
name = top;
pos = (330,700);
}
);
layerId = m002;
shapes = (
{
closed = 1;
nodes = (
(543,0,l),
(212,700,l),
(117,700,l),
(448,0,l)
);
},
{
closed = 1;
nodes = (
(212,0,l),
(212,700,l),
(102,700,l),
(102,0,l)
);
},
{
closed = 1;
nodes = (
(558,0,l),
(558,700,l),
(448,700,l),
(448,0,l)
);
}
);
width = 660;
},
{
anchors = (
{
name = bottom;
pos = (295,0);
},
{
name = top;
pos = (393,700);
}
);
layerId = m003;
shapes = (
{
closed = 1;
nodes = (
(518,0,l),
(275,700,l),
(170,700,l),
(413,0,l)
);
},
{
closed = 1;
nodes = (
(177,0,l),
(275,700,l),
(165,700,l),
(67,0,l)
);
},
{
closed = 1;
nodes = (
(523,0,l),
(621,700,l),
(511,700,l),
(413,0,l)
);
}
);
width = 660;
},
{
anchors = (
{
name = bottom;
pos = (330,0);
},
{
name = top;
pos = (330,700);
}
);
layerId = m004;
shapes = (
{
closed = 1;
nodes = (
(551,0,l),
(252,700,l),
(108,700,l),
(407,0,l)
);
},
{
closed = 1;
nodes = (
(254,0,l),
(254,700,l),
(50,700,l),
(50,0,l)
);
},
{
closed = 1;
nodes = (
(610,0,l),
(610,700,l),
(406,700,l),
(406,0,l)
);
}
);
width = 660;
},
{
anchors = (
{
name = bottom;
pos = (330,0);
},
{
name = top;
pos = (330,700);
}
);
layerId = m005;
shapes = (
{
closed = 1;
nodes = (
(532,0,l),
(180,700,l),
(128,700,l),
(480,0,l)
);
},
{
closed = 1;
nodes = (
(174,0,l),
(174,700,l),
(120,700,l),
(120,0,l)
);
},
{
closed = 1;
nodes = (
(540,0,l),
(540,700,l),
(486,700,l),
(486,0,l)
);
}
);
width = 660;
}
);
metricLeft = "=|";
metricWidth = A;
unicode = 78;
},
{
glyphname = Eng;
layers = (
{
layerId = m002;
shapes = (
{
closed = 1;
nodes = (
(553,0,l),
(212,700,l),
(107,700,l),
(448,0,l)
);
},
{
closed = 1;
nodes = (
(212,0,l),
(212,700,l),
(102,700,l),
(102,0,l)
);
},
{
closed = 1;
nodes = (
(558,0,l),
(558,700,l),
(448,700,l),
(448,0,l)
);
},
{
closed = 1;
nodes = (
(418,-216,ls),
(502,-216,o),
(558,-153,o),
(558,-60,cs),
(558,0,l),
(458,0,l),
(458,-60,ls),
(458,-105,o),
(430,-136,o),
(388,-136,cs),
(318,-136,l),
(318,-216,l)
);
}
);
width = 660;
},
{
layerId = m003;
shapes = (
{
closed = 1;
nodes = (
(518,0,l),
(275,700,l),
(170,700,l),
(413,0,l)
);
},
{
closed = 1;
nodes = (
(177,0,l),
(275,700,l),
(165,700,l),
(67,0,l)
);
},
{
closed = 1;
nodes = (
(523,0,l),
(621,700,l),
(511,700,l),
(413,0,l)
);
},
{
closed = 1;
nodes = (
(352,-216,ls),
(436,-216,o),
(501,-153,o),
(514,-60,cs),
(523,0,l),
(423,0,l),
(414,-60,ls),
(408,-105,o),
(375,-136,o),
(334,-136,cs),
(264,-136,l),
(252,-216,l)
);
}
);
width = 660;
},
{
layerId = m004;
shapes = (
{
closed = 1;
nodes = (
(628,-40,l),
(248,740,l),
(32,740,l),
(412,-40,l)
);
},
{
closed = 1;
nodes = (
(264,-40,l),
(264,740,l),
(50,740,l),
(50,-40,l)
);
},
{
closed = 1;
nodes = (
(610,-40,l),
(610,740,l),
(396,740,l),
(396,-40,l)
);
},
{
closed = 1;
nodes = (
(418,-256,ls),
(529,-256,o),
(610,-179,o),
(610,-60,cs),
(610,40,l),
(406,40,l),
(406,-60,ls),
(406,-94,o),
(404,-96,o),
(388,-96,cs),
(266,-96,l),
(266,-256,l)
);
}
);
width = 660;
},
{
layerId = m005;
shapes = (
{
closed = 1;
nodes = (
(514,20,l),
(192,680,l),
(146,680,l),
(468,20,l)
);
},
{
closed = 1;
nodes = (
(184,20,l),
(184,680,l),
(130,680,l),
(130,20,l)
);
},
{
closed = 1;
nodes = (
(530,20,l),
(530,680,l),
(476,680,l),
(476,20,l)
);
},
{
closed = 1;
nodes = (
(418,-196,ls),
(487,-196,o),
(530,-147,o),
(530,-60,cs),
(530,-20,l),
(486,-20,l),
(486,-60,ls),
(486,-115,o),
(447,-156,o),
(388,-156,cs),
(346,-156,l),
(346,-196,l)
);
}
);
width = 660;
}
);
metricLeft = "=|";
metricWidth = A;
unicode = 330;
},
{
glyphname = O;
layers = (
{
anchors = (
{
name = bottom;
pos = (330,0);
},
{
name = center;
pos = (330,350);
},
{
name = ogonek;
pos = (586,10);
},
{
name = top;
pos = (330,700);
},
{
name = topleft;
pos = (30,700);
},
{
name = topright;
pos = (630,700);
}
);
layerId = m002;
shapes = (
{
closed = 1;
nodes = (
(530,-16,o),
(600,128,o),
(600,350,cs),
(600,572,o),
(530,716,o),
(330,716,cs),
(130,716,o),
(60,572,o),
(60,350,cs),
(60,128,o),
(130,-16,o),
(330,-16,cs)
);
},
{
closed = 1;
nodes = (
(211,74,o),
(170,175,o),
(170,350,cs),
(170,525,o),
(211,626,o),
(330,626,cs),
(449,626,o),
(490,525,o),
(490,350,cs),
(490,175,o),
(449,74,o),
(330,74,cs)
);
}
);
width = 660;
},
{
anchors = (
{
name = bottom;
pos = (309,0);
},
{
name = center;
pos = (358,350);
},
{
name = ogonek;
pos = (566,10);
},
{
name = top;
pos = (407,700);
},
{
name = topleft;
pos = (107,700);
},
{
name = topright;
pos = (707,700);
}
);
layerId = m003;
shapes = (
{
closed = 1;
nodes = (
(497,-16,o),
(622,151,o),
(622,398,cs),
(622,600,o),
(533,716,o),
(377,716,cs),
(192,716,o),
(66,548,o),
(66,302,cs),
(66,100,o),
(155,-16,o),
(311,-16,cs)
);
},
{
closed = 1;
nodes = (
(221,74,o),
(175,146,o),
(175,293,cs),
(175,501,o),
(249,626,o),
(373,626,cs),
(470,626,o),
(513,558,o),
(513,407,cs),
(513,198,o),
(439,74,o),
(315,74,cs)
);
}
);
width = 660;
},
{
anchors = (
{
name = bottom;
pos = (330,0);
},
{
name = center;
pos = (330,350);
},
{
name = ogonek;
pos = (586,10);
},
{
name = top;
pos = (330,700);
},
{
name = topleft;
pos = (30,700);
},
{
name = topright;
pos = (630,700);
}
);
layerId = m004;
shapes = (
{
closed = 1;
nodes = (
(518,-16,o),
(642,129,o),
(642,350,cs),
(642,571,o),
(518,716,o),
(330,716,cs),
(142,716,o),
(18,571,o),
(18,350,cs),
(18,129,o),
(142,-16,o),
(330,-16,cs)
);
},
{
closed = 1;
nodes = (
(261,154,o),
(232,212,o),
(232,350,cs),
(232,488,o),
(261,546,o),
(330,546,cs),
(399,546,o),
(428,488,o),
(428,350,cs),
(428,212,o),
(399,154,o),
(330,154,cs)
);
}
);
width = 660;
},
{
anchors = (
{
name = bottom;
pos = (330,0);
},
{
name = center;
pos = (330,350);
},
{
name = ogonek;
pos = (586,10);
},
{
name = top;
pos = (330,700);
},
{
name = topleft;
pos = (30,700);
},
{
name = topright;
pos = (630,700);
}
);
layerId = m005;
shapes = (
{
closed = 1;
nodes = (
(510,4,o),
(572,131,o),
(572,350,cs),
(572,569,o),
(510,696,o),
(330,696,cs),
(150,696,o),
(88,569,o),
(88,350,cs),
(88,131,o),
(150,4,o),
(330,4,cs)
);
},
{
closed = 1;
nodes = (
(188,54,o),
(142,170,o),
(142,350,cs),
(142,530,o),
(188,646,o),
(330,646,cs),
(472,646,o),
(518,530,o),
(518,350,cs),
(518,170,o),
(472,54,o),
(330,54,cs)
);
}
);
width = 660;
}
);
metricLeft = "=|";
metricWidth = A;
unicode = 79;
},
{
glyphname = Oslash;
layers = (
{
anchors = (
{
name = bottom;
pos = (330,0);
},
{
name = top;
pos = (330,700);
}
);
layerId = m002;
shapes = (
{
ref = O;
},
{
closed = 1;
nodes = (
(110,-16,l),
(622,662,l),
(549,716,l),
(38,38,l)
);
}
);
width = 660;
},
{
anchors = (
{
name = bottom;
pos = (344,0);
},
{
name = top;
pos = (344,700);
}
);
layerId = m003;
shapes = (
{
ref = O;
},
{
closed = 1;
nodes = (
(73,-16,l),
(680,662,l),
(614,716,l),
(8,38,l)
);
}
);
width = 660;
},
{
anchors = (
{
name = bottom;
pos = (330,0);
},
{
name = top;
pos = (330,700);
}
);
layerId = m004;
shapes = (
{
ref = O;
},
{
closed = 1;
nodes = (
(116,-16,l),
(627,648,l),
(545,709,l),
(34,45,l)
);
}
);
width = 660;
},
{
anchors = (
{
name = bottom;
pos = (330,0);
},
{
name = top;
pos = (330,700);
}
);
layerId = m005;
shapes = (
{
ref = O;
},
{
closed = 1;
nodes = (
(104,18,l),
(588,659,l),
(556,682,l),
(72,41,l)
);
}
);
width = 660;
}
);
metricLeft = "=|";
metricWidth = A;
unicode = 216;
},
{
glyphname = OE;
layers = (
{
layerId = m002;
shapes = (
{
closed = 1;
nodes = (
(623,0,l),
(623,90,l),
(287,90,ls),
(195,90,o),
(147,179,o),
(147,350,cs),
(147,521,o),
(195,610,o),
(287,610,cs),
(623,610,l),
(623,700,l),
(267,700,ls),
(126,700,o),
(37,565,o),
(37,350,cs),
(37,135,o),
(126,0,o),
(267,0,cs)
);
},
{
closed = 1;
nodes = (
(427,0,l),
(427,700,l),
(317,700,l),
(317,0,l)
);
},
{
closed = 1;
nodes = (
(593,305,l),
(593,395,l),
(355,395,l),
(355,305,l)
);
}
);
width = 660;
},
{
layerId = m003;
shapes = (
{
closed = 1;
nodes = (
(591,0,l),
(603,90,l),
(267,90,ls),
(198,90,o),
(157,166,o),
(157,292,cs),
(157,470,o),
(238,610,o),
(341,610,cs),
(677,610,l),
(689,700,l),
(341,700,ls),
(176,700,o),
(47,523,o),
(47,296,cs),
(47,113,o),
(131,0,o),
(267,0,cs)
);
},
{
closed = 1;
nodes = (
(395,0,l),
(493,700,l),
(383,700,l),
(285,0,l)
);
},
{
closed = 1;
nodes = (
(604,305,l),
(616,395,l),
(378,395,l),
(366,305,l)
);
}
);
width = 660;
},
{
layerId = m004;
shapes = (
{
closed = 1;
nodes = (
(655,0,l),
(655,170,l),
(297,170,ls),
(243,170,o),
(219,200,o),
(219,350,cs),
(219,500,o),
(243,530,o),
(297,530,cs),
(655,530,l),
(655,700,l),
(287,700,ls),
(110,700,o),
(5,579,o),
(5,350,cs),
(5,121,o),
(110,0,o),
(287,0,cs)
);
},
{
closed = 1;
nodes = (
(499,0,l),
(499,700,l),
(305,700,l),
(305,0,l)
);
},
{
closed = 1;
nodes = (
(635,265,l),
(635,435,l),
(323,435,l),
(323,265,l)
);
}
);
width = 660;
},
{
layerId = m005;
shapes = (
{
closed = 1;
nodes = (
(595,20,l),
(595,70,l),
(287,70,ls),
(173,70,o),
(119,172,o),
(119,350,cs),
(119,528,o),
(173,630,o),
(287,630,cs),
(595,630,l),
(595,680,l),
(267,680,ls),
(143,680,o),
(65,561,o),
(65,350,cs),
(65,139,o),
(143,20,o),
(267,20,cs)
);
},
{
closed = 1;
nodes = (
(399,20,l),
(399,680,l),
(345,680,l),
(345,20,l)
);
},
{
closed = 1;
nodes = (
(565,325,l),
(565,375,l),
(383,375,l),
(383,325,l)
);
}
);
width = 660;
}
);
metricLeft = "=|";
metricWidth = A;
unicode = 338;
},
{
glyphname = P;
layers = (
{
anchors = (
{
name = bottom;
pos = (363,0);
},
{
name = top;
pos = (363,700);
}
);
layerId = m002;
shapes = (
{
closed = 1;
nodes = (
(387,276,ls),
(520,276,o),
(617,365,o),
(617,488,cs),
(617,611,o),
(519,700,o),
(383,700,cs),
(155,700,l),
(155,610,l),
(393,610,ls),
(459,610,o),
(507,558,o),
(507,488,cs),
(507,418,o),
(459,366,o),
(393,366,cs),
(155,366,l),
(155,276,l)
);
},
{
closed = 1;
nodes = (
(219,0,l),
(219,700,l),
(109,700,l),
(109,0,l)
);
}
);
width = 660;
},
{
anchors = (
{
name = bottom;
pos = (328,0);
},
{
name = top;
pos = (426,700);
}
);
layerId = m003;
shapes = (
{
closed = 1;
nodes = (
(391,276,ls),
(544,276,o),
(652,372,o),
(652,509,cs),
(652,626,o),
(573,700,o),
(446,700,cs),
(218,700,l),
(206,610,l),
(446,610,ls),
(504,610,o),
(542,568,o),
(542,504,cs),
(542,422,o),
(480,366,o),
(391,366,cs),
(171,366,l),
(159,276,l)
);
},
{
closed = 1;
nodes = (
(184,0,l),
(282,700,l),
(172,700,l),
(74,0,l)
);
}
);
width = 660;
},
{
anchors = (
{
name = bottom;
pos = (358,0);
},
{
name = top;
pos = (358,700);
}
);
layerId = m004;
shapes = (
{
closed = 1;
nodes = (
(352,216,ls),
(522,216,o),
(634,312,o),
(634,458,cs),
(634,604,o),
(521,700,o),
(348,700,cs),
(98,700,l),
(98,530,l),
(358,530,ls),
(395,530,o),
(420,501,o),
(420,458,cs),
(420,415,o),
(395,386,o),
(358,386,cs),
(98,386,l),
(98,216,l)
);
},
{
closed = 1;
nodes = (
(266,0,l),
(266,700,l),
(52,700,l),
(52,0,l)
);
}
);
width = 660;
},
{
anchors = (
{
name = bottom;
pos = (355,0);
},
{
name = top;
pos = (355,700);
}
);
layerId = m005;
shapes = (
{
closed = 1;
nodes = (
(379,296,ls),
(498,296,o),
(581,372,o),
(581,488,cs),
(581,604,o),
(497,680,o),
(375,680,cs),
(175,680,l),
(175,630,l),
(385,630,ls),
(469,630,o),
(527,567,o),
(527,488,cs),
(527,409,o),
(469,346,o),
(385,346,cs),
(175,346,l),
(175,296,l)
);
},
{
closed = 1;
nodes = (
(183,20,l),
(183,680,l),
(129,680,l),
(129,20,l)
);
}
);
width = 660;
}
);
metricLeft = "=H*1.1";
metricWidth = A;
unicode = 80;
},
{
glyphname = Thorn;
layers = (
{
anchors = (
{
name = bottom;
pos = (330,0);
},
{
name = top;
pos = (330,700);
}
);
layerId = m002;
shapes = (
{
closed = 1;
nodes = (
(354,138,ls),
(487,138,o),
(584,227,o),
(584,350,cs),
(584,473,o),
(486,562,o),
(350,562,cs),
(122,562,l),
(122,472,l),
(360,472,ls),
(426,472,o),
(474,420,o),
(474,350,cs),
(474,280,o),
(426,228,o),
(360,228,cs),
(122,228,l),
(122,138,l)
);
},
{
closed = 1;
nodes = (
(186,0,l),
(186,700,l),
(76,700,l),
(76,0,l)
);
}
);
width = 660;
},
{
anchors = (
{
name = bottom;
pos = (295,0);
},
{
name = top;
pos = (393,700);
}
);
layerId = m003;
shapes = (
{
closed = 1;
nodes = (
(338,138,ls),
(471,138,o),
(581,227,o),
(598,350,cs),
(615,473,o),
(530,562,o),
(394,562,cs),
(166,562,l),
(153,472,l),
(391,472,ls),
(457,472,o),
(498,420,o),
(488,350,cs),
(478,280,o),
(423,228,o),
(357,228,cs),
(119,228,l),
(106,138,l)
);
},
{
closed = 1;
nodes = (
(151,0,l),
(249,700,l),
(139,700,l),
(41,0,l)
);
}
);
width = 660;
},
{
anchors = (
{
name = bottom;
pos = (317,0);
},
{
name = top;
pos = (317,700);
}
);
layerId = m004;
shapes = (
{
closed = 1;
nodes = (
(339,108,ls),
(509,108,o),
(621,204,o),
(621,350,cs),
(621,496,o),
(508,592,o),
(335,592,cs),
(85,592,l),
(85,422,l),
(345,422,ls),
(382,422,o),
(407,393,o),
(407,350,cs),
(407,307,o),
(382,278,o),
(345,278,cs),
(85,278,l),
(85,108,l)
);
},
{
closed = 1;
nodes = (
(253,0,l),
(253,700,l),
(39,700,l),
(39,0,l)
);
}
);
width = 660;
},
{
anchors = (
{
name = bottom;
pos = (330,0);
},
{
name = top;
pos = (330,700);
}
);
layerId = m005;
shapes = (
{
closed = 1;
nodes = (
(354,158,ls),
(473,158,o),
(556,234,o),
(556,350,cs),
(556,466,o),
(472,542,o),
(350,542,cs),
(150,542,l),
(150,492,l),
(360,492,ls),
(444,492,o),
(502,429,o),
(502,350,cs),
(502,271,o),
(444,208,o),
(360,208,cs),
(150,208,l),
(150,158,l)
);
},
{
closed = 1;
nodes = (
(158,20,l),
(158,680,l),
(104,680,l),
(104,20,l)
);
}
);
width = 660;
}
);
metricLeft = "=|";
metricWidth = A;
unicode = 222;
},
{
glyphname = Q;
layers = (
{
anchors = (
{
name = bottom;
pos = (314,0);
},
{
name = top;
pos = (314,700);
}
);
layerId = m002;
shapes = (
{
pos = (-6,0);
ref = O;
},
{
closed = 1;
nodes = (
(380,278,l),
(307,224,l),
(512,-46,l),
(584,8,l)
);
}
);
width = 660;
},
{
anchors = (
{
name = bottom;
pos = (266,0);
},
{
name = top;
pos = (364,700);
}
);
layerId = m003;
shapes = (
{
pos = (-5,0);
ref = O;
},
{
closed = 1;
nodes = (
(371,278,l),
(290,224,l),
(457,-46,l),
(537,8,l)
);
}
);
width = 660;
},
{
anchors = (
{
name = bottom;
pos = (318,0);
},
{
name = top;
pos = (318,700);
}
);
layerId = m004;
shapes = (
{
pos = (-2,0);
ref = O;
},
{
closed = 1;
nodes = (
(370,292,l),
(277,224,l),
(482,-46,l),
(574,22,l)
);
}
);
width = 660;
},
{
anchors = (
{
name = bottom;
pos = (311,0);
},
{
name = top;
pos = (311,700);
}
);
layerId = m005;
shapes = (
{
pos = (-9,0);
ref = O;
},
{
closed = 1;
nodes = (
(370,244,l),
(338,221,l),
(515,-12,l),
(547,11,l)
);
}
);
width = 660;
}
);
metricLeft = "=O*.9";
metricWidth = A;
unicode = 81;
},
{
glyphname = R;
layers = (
{
anchors = (
{
name = bottom;
pos = (361,0);
},
{
name = top;
pos = (361,700);
}
);
layerId = m002;
shapes = (
{
closed = 1;
nodes = (
(378,276,ls),
(507,276,o),
(608,359,o),
(608,488,cs),
(608,619,o),
(505,700,o),
(374,700,cs),
(145,700,l),
(145,610,l),
(384,610,ls),
(453,610,o),
(498,557,o),
(498,488,cs),
(498,419,o),
(453,366,o),
(384,366,cs),
(145,366,l),
(145,276,l)
);
},
{
closed = 1;
nodes = (
(209,0,l),
(209,700,l),
(99,700,l),
(99,0,l)
);
},
{
closed = 1;
nodes = (
(623,0,l),
(413,330,l),
(293,330,l),
(503,0,l)
);
}
);
width = 660;
},
{
anchors = (
{
name = bottom;
pos = (326,0);
},
{
name = top;
pos = (424,700);
}
);
layerId = m003;
shapes = (
{
closed = 1;
nodes = (
(389,276,ls),
(542,276,o),
(650,372,o),
(650,509,cs),
(650,626,o),
(571,700,o),
(444,700,cs),
(216,700,l),
(204,610,l),
(444,610,ls),
(502,610,o),
(540,568,o),
(540,504,cs),
(540,422,o),
(478,366,o),
(389,366,cs),
(169,366,l),
(157,276,l)
);
},
{
closed = 1;
nodes = (
(174,0,l),
(272,700,l),
(162,700,l),
(64,0,l)
);
},
{
closed = 1;
nodes = (
(588,0,l),
(424,330,l),
(304,330,l),
(468,0,l)
);
}
);
width = 660;
},
{
anchors = (
{
name = bottom;
pos = (356,0);
},
{
name = top;
pos = (356,700);
}
);
layerId = m004;
shapes = (
{
closed = 1;
nodes = (
(347,216,ls),
(517,216,o),
(629,312,o),
(629,458,cs),
(629,604,o),
(516,700,o),
(343,700,cs),
(93,700,l),
(93,530,l),
(353,530,ls),
(390,530,o),
(415,501,o),
(415,458,cs),
(415,415,o),
(390,386,o),
(353,386,cs),
(93,386,l),
(93,216,l)
);
},
{
closed = 1;
nodes = (
(261,0,l),
(261,700,l),
(47,700,l),
(47,0,l)
);
},
{
closed = 1;
nodes = (
(642,0,l),
(430,370,l),
(224,370,l),
(436,0,l)
);
}
);
width = 660;
},
{
anchors = (
{
name = bottom;
pos = (351,0);
},
{
name = top;
pos = (351,700);
}
);
layerId = m005;
shapes = (
{
closed = 1;
nodes = (
(368,296,ls),
(485,296,o),
(570,366,o),
(570,488,cs),
(570,612,o),
(484,680,o),
(364,680,cs),
(163,680,l),
(163,630,l),
(374,630,ls),
(460,630,o),
(516,567,o),
(516,488,cs),
(516,409,o),
(460,346,o),
(374,346,cs),
(163,346,l),
(163,296,l)
);
},
{
closed = 1;
nodes = (
(171,20,l),
(171,680,l),
(117,680,l),
(117,20,l)
);
},
{
closed = 1;
nodes = (
(570,20,l),
(385,310,l),
(326,310,l),
(511,20,l)
);
}
);
width = 660;
}
);
metricLeft = "=H";
metricWidth = A;
unicode = 82;
},
{
glyphname = S;
layers = (
{
anchors = (
{
name = bottom;
pos = (330,0);
},
{
name = top;
pos = (330,700);
}
);
layerId = m002;
shapes = (
{
closed = 1;
nodes = (
(504,-16,o),
(603,62,o),
(602,188,cs),
(601,293,o),
(532,374,o),
(418,398,cs),
(301,423,ls),
(235,437,o),
(198,475,o),
(198,527,cs),
(198,588,o),
(249,626,o),
(332,626,cs),
(418,626,o),
(473,585,o),
(477,517,c),
(587,517,l),
(576,642,o),
(480,716,o),
(329,716,cs),
(181,716,o),
(88,641,o),
(88,523,cs),
(88,426,o),
(149,353,o),
(255,331,cs),
(374,306,ls),
(447,291,o),
(491,246,o),
(492,186,cs),
(493,118,o),
(437,74,o),
(347,74,cs),
(250,74,o),
(184,124,o),
(168,208,c),
(58,208,l),
(69,69,o),
(176,-16,o),
(344,-16,cs)
);
}
);
width = 660;
},
{
anchors = (
{
name = bottom;
pos = (294,0);
},
{
name = top;
pos = (392,700);
}
);
layerId = m003;
shapes = (
{
closed = 1;
nodes = (
(486,-16,o),
(594,71,o),
(594,204,cs),
(594,303,o),
(535,377,o),
(438,398,cs),
(324,423,ls),
(267,435,o),
(235,469,o),
(235,517,cs),
(235,582,o),
(294,626,o),
(382,626,cs),
(461,626,o),
(503,591,o),
(513,517,c),
(623,517,l),
(615,644,o),
(527,716,o),
(379,716,cs),
(223,716,o),
(123,635,o),
(123,510,cs),
(123,418,o),
(177,350,o),
(265,331,cs),
(381,306,ls),
(446,292,o),
(483,253,o),
(483,198,cs),
(483,125,o),
(416,74,o),
(320,74,cs),
(229,74,o),
(176,119,o),
(161,208,c),
(51,208,l),
(53,68,o),
(154,-16,o),
(319,-16,cs)
);
}
);
width = 660;
},
{
anchors = (
{
name = bottom;
pos = (330,0);
},
{
name = top;
pos = (330,700);
}
);
layerId = m004;
shapes = (
{
closed = 1;
nodes = (
(527,-16,o),
(655,75,o),
(654,213,cs),
(653,325,o),
(570,408,o),
(429,438,cs),
(312,463,ls),
(269,473,o),
(250,486,o),
(250,508,cs),
(250,534,o),
(275,546,o),
(331,546,cs),
(393,546,o),
(420,532,o),
(423,497,c),
(640,497,l),
(637,630,o),
(515,716,o),
(331,716,cs),
(151,716,o),
(36,633,o),
(36,504,cs),
(36,398,o),
(113,319,o),
(244,291,cs),
(364,266,ls),
(416,255,o),
(439,238,o),
(440,210,cs),
(441,174,o),
(403,154,o),
(335,154,cs),
(260,154,o),
(220,179,o),
(217,228,c),
(6,228,l),
(6,79,o),
(134,-16,o),
(333,-16,cs)
);
}
);
width = 660;
},
{
anchors = (
{
name = bottom;
pos = (328,0);
},
{
name = top;
pos = (328,700);
}
);
layerId = m005;
shapes = (
{
closed = 1;
nodes = (
(478,-12,o),
(573,70,o),
(572,189,cs),
(571,284,o),
(509,356,o),
(410,378,cs),
(293,403,ls),
(213,420,o),
(168,466,o),
(168,530,cs),
(168,608,o),
(234,662,o),
(330,662,cs),
(420,662,o),
(485,615,o),
(500,537,c),
(554,537,l),
(537,644,o),
(449,712,o),
(329,712,cs),
(204,712,o),
(114,633,o),
(114,523,cs),
(114,439,o),
(167,378,o),
(259,359,cs),
(378,334,ls),
(464,316,o),
(517,259,o),
(518,184,cs),
(519,98,o),
(448,38,o),
(343,38,cs),
(243,38,o),
(169,93,o),
(143,188,c),
(88,188,l),
(104,66,o),
(202,-12,o),
(339,-12,cs)
);
}
);
width = 660;
}
);
metricLeft = "=|";
metricWidth = A;
unicode = 83;
},
{
glyphname = Germandbls;
layers = (
{
anchors = (
{
name = bottom;
pos = (351,0);
},
{
name = top;
pos = (351,700);
}
);
layerId = m002;
shapes = (
{
closed = 1;
nodes = (
(399,0,ls),
(532,0,o),
(627,79,o),
(627,190,cs),
(627,303,o),
(528,382,o),
(375,391,c),
(404,348,l),
(553,538,l),
(553,598,l),
(491,675,o),
(407,716,o),
(313,716,cs),
(173,716,o),
(75,625,o),
(75,495,cs),
(75,0,l),
(185,0,l),
(185,485,ls),
(185,568,o),
(240,626,o),
(319,626,cs),
(370,626,o),
(417,602,o),
(453,558,c),
(329,400,l),
(329,310,l),
(446,310,o),
(517,266,o),
(517,195,cs),
(517,133,o),
(464,90,o),
(389,90,cs),
(296,90,l),
(296,0,l)
);
}
);
width = 660;
},
{
anchors = (
{
name = bottom;
pos = (313,0);
},
{
name = top;
pos = (411,700);
}
);
layerId = m003;
shapes = (
{
closed = 1;
nodes = (
(361,0,ls),
(515,0,o),
(618,82,o),
(618,204,cs),
(618,314,o),
(535,383,o),
(392,391,c),
(415,348,l),
(590,538,l),
(599,598,l),
(546,678,o),
(472,716,o),
(373,716,cs),
(227,716,o),
(126,633,o),
(106,495,cs),
(37,0,l),
(147,0,l),
(215,485,ls),
(227,572,o),
(285,626,o),
(368,626,cs),
(421,626,o),
(461,604,o),
(493,558,c),
(347,400,l),
(334,310,l),
(450,310,o),
(507,276,o),
(507,206,cs),
(507,137,o),
(448,90,o),
(361,90,cs),
(270,90,l),
(258,0,l)
);
}
);
width = 660;
},
{
anchors = (
{
name = bottom;
pos = (347,0);
},
{
name = top;
pos = (347,700);
}
);
layerId = m004;
shapes = (
{
closed = 1;
nodes = (
(395,0,ls),
(544,0,o),
(645,86,o),
(645,211,cs),
(645,335,o),
(547,410,o),
(386,410,c),
(444,350,l),
(551,483,l),
(551,564,l),
(509,663,o),
(427,712,o),
(306,712,cs),
(135,712,o),
(19,613,o),
(19,465,cs),
(19,0,l),
(233,0,l),
(233,455,ls),
(233,507,o),
(267,542,o),
(319,542,cs),
(346,542,o),
(367,533,o),
(386,513,c),
(313,411,l),
(313,268,l),
(402,268,o),
(431,256,o),
(431,221,cs),
(431,186,o),
(404,170,o),
(345,170,cs),
(300,170,l),
(300,0,l)
);
}
);
width = 660;
},
{
anchors = (
{
name = bottom;
pos = (365,0);
},
{
name = top;
pos = (365,700);
}
);
layerId = m005;
shapes = (
{
closed = 1;
nodes = (
(413,4,ls),
(534,4,o),
(613,75,o),
(613,183,cs),
(613,293,o),
(530,365,o),
(404,367,c),
(404,365,l),
(543,542,l),
(543,589,l),
(469,676,o),
(406,712,o),
(325,712,cs),
(200,712,o),
(117,626,o),
(117,495,cs),
(117,4,l),
(171,4,l),
(171,485,ls),
(171,590,o),
(236,662,o),
(332,662,cs),
(396,662,o),
(447,630,o),
(498,558,c),
(351,370,l),
(351,329,l),
(486,322,o),
(559,273,o),
(559,186,cs),
(559,108,o),
(500,54,o),
(413,54,cs),
(338,54,l),
(338,4,l)
);
}
);
width = 660;
}
);
metricRight = "=B*.5";
metricWidth = A;
unicode = 7838;
},
{
glyphname = T;
layers = (
{
anchors = (
{
name = bottom;
pos = (330,0);
},
{
name = center;
pos = (330,350);
},
{
name = top;
pos = (330,700);
}
);
layerId = m002;
shapes = (
{
closed = 1;
nodes = (
(385,0,l),
(385,700,l),
(275,700,l),
(275,0,l)
);
},
{
closed = 1;
nodes = (
(615,610,l),
(615,700,l),
(45,700,l),
(45,610,l)
);
}
);
width = 660;
},
{
anchors = (
{
name = bottom;
pos = (295,0);
},
{
name = center;
pos = (344,350);
},
{
name = top;
pos = (393,700);
}
);
layerId = m003;
shapes = (
{
closed = 1;
nodes = (
(350,0,l),
(448,700,l),
(338,700,l),
(240,0,l)
);
},
{
closed = 1;
nodes = (
(666,610,l),
(678,700,l),
(108,700,l),
(96,610,l)
);
}
);
width = 660;
},
{
anchors = (
{
name = bottom;
pos = (330,0);
},
{
name = center;
pos = (330,350);
},
{
name = top;
pos = (330,700);
}
);
layerId = m004;
shapes = (
{
closed = 1;
nodes = (
(437,0,l),
(437,700,l),
(223,700,l),
(223,0,l)
);
},
{
closed = 1;
nodes = (
(627,530,l),
(627,700,l),
(33,700,l),
(33,530,l)
);
}
);
width = 660;
},
{
anchors = (
{
name = bottom;
pos = (330,0);
},
{
name = center;
pos = (330,350);
},
{
name = top;
pos = (330,700);
}
);
layerId = m005;
shapes = (
{
closed = 1;
nodes = (
(357,20,l),
(357,680,l),
(303,680,l),
(303,20,l)
);
},
{
closed = 1;
nodes = (
(587,630,l),
(587,680,l),
(73,680,l),
(73,630,l)
);
}
);
width = 660;
}
);
metricLeft = "=|";
metricWidth = A;
unicode = 84;
},
{
glyphname = Tbar;
layers = (
{
layerId = m002;
shapes = (
{
ref = T;
},
{
closed = 1;
nodes = (
(490,310,l),
(490,390,l),
(170,390,l),
(170,310,l)
);
}
);
width = 660;
},
{
layerId = m003;
shapes = (
{
ref = T;
},
{
closed = 1;
nodes = (
(500,310,l),
(512,390,l),
(192,390,l),
(180,310,l)
);
}
);
width = 660;
},
{
layerId = m004;
shapes = (
{
ref = T;
},
{
closed = 1;
nodes = (
(542,270,l),
(542,430,l),
(118,430,l),
(118,270,l)
);
}
);
width = 660;
},
{
layerId = m005;
shapes = (
{
ref = T;
},
{
closed = 1;
nodes = (
(462,330,l),
(462,370,l),
(198,370,l),
(198,330,l)
);
}
);
width = 660;
}
);
metricLeft = "=|";
metricWidth = A;
unicode = 358;
},
{
glyphname = U;
layers = (
{
anchors = (
{
name = bottom;
pos = (330,0);
},
{
name = ogonek;
pos = (452,10);
},
{
name = top;
pos = (330,700);
},
{
name = topright;
pos = (630,700);
}
);
layerId = m002;
shapes = (
{
closed = 1;
nodes = (
(472,-16,o),
(576,90,o),
(576,235,cs),
(576,700,l),
(466,700,l),
(466,235,ls),
(466,141,o),
(410,74,o),
(330,74,cs),
(250,74,o),
(194,141,o),
(194,235,cs),
(194,700,l),
(84,700,l),
(84,235,ls),
(84,90,o),
(188,-16,o),
(330,-16,cs)
);
}
);
width = 660;
},
{
anchors = (
{
name = bottom;
pos = (295,0);
},
{
name = ogonek;
pos = (418,10);
},
{
name = top;
pos = (393,700);
},
{
name = topright;
pos = (693,700);
}
);
layerId = m003;
shapes = (
{
closed = 1;
nodes = (
(447,-16,o),
(552,82,o),
(574,235,cs),
(639,700,l),
(529,700,l),
(464,235,ls),
(451,138,o),
(388,74,o),
(305,74,cs),
(223,74,o),
(179,137,o),
(192,235,cs),
(257,700,l),
(147,700,l),
(82,235,ls),
(61,89,o),
(154,-16,o),
(303,-16,cs)
);
}
);
width = 660;
},
{
anchors = (
{
name = bottom;
pos = (330,0);
},
{
name = ogonek;
pos = (452,10);
},
{
name = top;
pos = (330,700);
},
{
name = topright;
pos = (630,700);
}
);
layerId = m004;
shapes = (
{
closed = 1;
nodes = (
(496,-16,o),
(608,96,o),
(608,263,cs),
(608,700,l),
(394,700,l),
(394,263,ls),
(394,191,o),
(372,154,o),
(330,154,cs),
(288,154,o),
(266,191,o),
(266,263,cs),
(266,700,l),
(52,700,l),
(52,263,ls),
(52,96,o),
(164,-16,o),
(330,-16,cs)
);
}
);
width = 660;
},
{
anchors = (
{
name = bottom;
pos = (330,0);
},
{
name = ogonek;
pos = (452,10);
},
{
name = top;
pos = (330,700);
},
{
name = topright;
pos = (630,700);
}
);
layerId = m005;
shapes = (
{
closed = 1;
nodes = (
(458,4,o),
(548,96,o),
(548,235,cs),
(548,680,l),
(494,680,l),
(494,235,ls),
(494,131,o),
(427,54,o),
(330,54,cs),
(233,54,o),
(166,131,o),
(166,235,cs),
(166,680,l),
(112,680,l),
(112,235,ls),
(112,96,o),
(202,4,o),
(330,4,cs)
);
}
);
width = 660;
}
);
metricLeft = "=|";
metricWidth = A;
unicode = 85;
},
{
glyphname = V;
layers = (
{
anchors = (
{
name = bottom;
pos = (330,0);
},
{
name = top;
pos = (330,700);
}
);
layerId = m002;
shapes = (
{
closed = 1;
nodes = (
(405,0,l),
(635,700,l),
(525,700,l),
(295,0,l)
);
},
{
closed = 1;
nodes = (
(365,0,l),
(135,700,l),
(25,700,l),
(255,0,l)
);
}
);
width = 660;
},
{
anchors = (
{
name = bottom;
pos = (295,0);
},
{
name = top;
pos = (393,700);
}
);
layerId = m003;
shapes = (
{
closed = 1;
nodes = (
(370,0,l),
(698,700,l),
(588,700,l),
(260,0,l)
);
},
{
closed = 1;
nodes = (
(330,0,l),
(198,700,l),
(88,700,l),
(220,0,l)
);
}
);
width = 660;
},
{
anchors = (
{
name = bottom;
pos = (335,0);
},
{
name = top;
pos = (335,700);
}
);
layerId = m004;
shapes = (
{
closed = 1;
nodes = (
(480,0,l),
(638,700,l),
(438,700,l),
(280,0,l)
);
},
{
closed = 1;
nodes = (
(390,0,l),
(222,700,l),
(22,700,l),
(190,0,l)
);
}
);
width = 660;
},
{
anchors = (
{
name = bottom;
pos = (330,0);
},
{
name = top;
pos = (330,700);
}
);
layerId = m005;
shapes = (
{
closed = 1;
nodes = (
(383,20,l),
(599,680,l),
(547,680,l),
(331,20,l)
);
},
{
closed = 1;
nodes = (
(329,20,l),
(113,680,l),
(61,680,l),
(277,20,l)
);
}
);
width = 660;
}
);
metricLeft = "=|";
metricWidth = A;
unicode = 86;
},
{
glyphname = W;
layers = (
{
anchors = (
{
name = bottom;
pos = (330,0);
},
{
name = top;
pos = (330,700);
}
);
layerId = m002;
shapes = (
{
closed = 1;
nodes = (
(186,0,l),
(347,365,l),
(315,365,l),
(474,0,l),
(580,0,l),
(580,700,l),
(478,700,l),
(478,155,l),
(506,128,l),
(383,430,l),
(278,430,l),
(154,128,l),
(182,155,l),
(182,700,l),
(80,700,l),
(80,0,l)
);
}
);
width = 660;
},
{
anchors = (
{
name = bottom;
pos = (295,0);
},
{
name = top;
pos = (393,700);
}
);
layerId = m003;
shapes = (
{
closed = 1;
nodes = (
(151,0,l),
(363,365,l),
(331,365,l),
(439,0,l),
(545,0,l),
(643,700,l),
(537,700,l),
(461,155,l),
(489,128,l),
(408,430,l),
(303,430,l),
(137,128,l),
(173,155,l),
(249,700,l),
(143,700,l),
(45,0,l)
);
}
);
width = 660;
},
{
anchors = (
{
name = bottom;
pos = (330,0);
},
{
name = top;
pos = (330,700);
}
);
layerId = m004;
shapes = (
{
closed = 1;
nodes = (
(223,0,l),
(356,286,l),
(305,286,l),
(437,0,l),
(632,0,l),
(632,700,l),
(432,700,l),
(432,133,l),
(487,133,l),
(371,410,l),
(291,410,l),
(174,134,l),
(228,134,l),
(228,700,l),
(28,700,l),
(28,0,l)
);
}
);
width = 660;
},
{
anchors = (
{
name = bottom;
pos = (330,0);
},
{
name = top;
pos = (330,700);
}
);
layerId = m005;
shapes = (
{
closed = 1;
nodes = (
(156,4,l),
(328,345,l),
(333,345,l),
(504,4,l),
(566,4,l),
(566,696,l),
(512,696,l),
(512,64,l),
(510,105,l),
(353,410,l),
(308,410,l),
(150,105,l),
(148,64,l),
(148,696,l),
(94,696,l),
(94,4,l)
);
}
);
width = 660;
}
);
metricLeft = "=|";
metricWidth = A;
unicode = 87;
},
{
glyphname = X;
layers = (
{
anchors = (
{
name = bottom;
pos = (330,0);
},
{
name = top;
pos = (330,700);
}
);
layerId = m002;
shapes = (
{
closed = 1;
nodes = (
(195,0,l),
(585,700,l),
(465,700,l),
(75,0,l)
);
},
{
closed = 1;
nodes = (
(585,0,l),
(195,700,l),
(75,700,l),
(465,0,l)
);
}
);
width = 660;
},
{
anchors = (
{
name = bottom;
pos = (295,0);
},
{
name = top;
pos = (393,700);
}
);
layerId = m003;
shapes = (
{
closed = 1;
nodes = (
(160,0,l),
(648,700,l),
(528,700,l),
(40,0,l)
);
},
{
closed = 1;
nodes = (
(550,0,l),
(258,700,l),
(138,700,l),
(430,0,l)
);
}
);
width = 660;
},
{
anchors = (
{
name = bottom;
pos = (330,0);
},
{
name = top;
pos = (330,700);
}
);
layerId = m004;
shapes = (
{
closed = 1;
nodes = (
(231,0,l),
(649,700,l),
(430,700,l),
(12,0,l)
);
},
{
closed = 1;
nodes = (
(648,0,l),
(232,700,l),
(13,700,l),
(429,0,l)
);
}
);
width = 660;
},
{
anchors = (
{
name = bottom;
pos = (330,0);
},
{
name = top;
pos = (330,700);
}
);
layerId = m005;
shapes = (
{
closed = 1;
nodes = (
(177,20,l),
(544,680,l),
(483,680,l),
(116,20,l)
);
},
{
closed = 1;
nodes = (
(544,20,l),
(177,680,l),
(116,680,l),
(483,20,l)
);
}
);
width = 660;
}
);
metricLeft = "=|";
metricWidth = A;
unicode = 88;
},
{
glyphname = Y;
layers = (
{
anchors = (
{
name = bottom;
pos = (330,0);
},
{
name = top;
pos = (330,700);
},
{
name = topleft;
pos = (20,700);
}
);
layerId = m002;
shapes = (
{
closed = 1;
nodes = (
(385,0,l),
(385,260,l),
(645,700,l),
(535,700,l),
(307,314,l),
(353,314,l),
(125,700,l),
(15,700,l),
(275,260,l),
(275,0,l)
);
}
);
width = 660;
},
{
anchors = (
{
name = bottom;
pos = (295,0);
},
{
name = top;
pos = (393,700);
},
{
name = topleft;
pos = (83,700);
}
);
layerId = m003;
shapes = (
{
closed = 1;
nodes = (
(350,0,l),
(386,260,l),
(708,700,l),
(598,700,l),
(316,314,l),
(362,314,l),
(188,700,l),
(78,700,l),
(276,260,l),
(240,0,l)
);
}
);
width = 660;
},
{
anchors = (
{
name = bottom;
pos = (330,0);
},
{
name = top;
pos = (330,700);
},
{
name = topleft;
pos = (20,700);
}
);
layerId = m004;
shapes = (
{
closed = 1;
nodes = (
(437,0,l),
(437,263,l),
(653,700,l),
(440,700,l),
(289,345,l),
(371,345,l),
(220,700,l),
(7,700,l),
(223,263,l),
(223,0,l)
);
}
);
width = 660;
},
{
anchors = (
{
name = bottom;
pos = (330,0);
},
{
name = top;
pos = (330,700);
},
{
name = topleft;
pos = (20,700);
}
);
layerId = m005;
shapes = (
{
closed = 1;
nodes = (
(357,20,l),
(357,263,l),
(603,680,l),
(553,680,l),
(344,326,l),
(316,326,l),
(107,680,l),
(57,680,l),
(303,263,l),
(303,20,l)
);
}
);
width = 660;
}
);
metricLeft = "=|";
metricWidth = A;
unicode = 89;
},
{
glyphname = Z;
layers = (
{
anchors = (
{
name = bottom;
pos = (330,0);
},
{
name = center;
pos = (330,350);
},
{
name = top;
pos = (330,700);
}
);
layerId = m002;
shapes = (
{
closed = 1;
nodes = (
(574,600,l),
(574,700,l),
(86,700,l),
(86,610,l),
(459,610,l),
(86,100,l),
(86,0,l),
(574,0,l),
(574,90,l),
(201,90,l)
);
}
);
width = 660;
},
{
anchors = (
{
name = bottom;
pos = (295,0);
},
{
name = center;
pos = (344,350);
},
{
name = top;
pos = (393,700);
}
);
layerId = m003;
shapes = (
{
closed = 1;
nodes = (
(623,600,l),
(637,700,l),
(149,700,l),
(137,610,l),
(510,610,l),
(65,100,l),
(51,0,l),
(539,0,l),
(551,90,l),
(178,90,l)
);
}
);
width = 660;
},
{
anchors = (
{
name = bottom;
pos = (330,0);
},
{
name = center;
pos = (330,350);
},
{
name = top;
pos = (330,700);
}
);
layerId = m004;
shapes = (
{
closed = 1;
nodes = (
(581,550,l),
(581,700,l),
(79,700,l),
(79,530,l),
(354,530,l),
(79,150,l),
(79,0,l),
(581,0,l),
(581,170,l),
(306,170,l)
);
}
);
width = 660;
},
{
anchors = (
{
name = bottom;
pos = (330,0);
},
{
name = center;
pos = (330,350);
},
{
name = top;
pos = (330,700);
}
);
layerId = m005;
shapes = (
{
closed = 1;
nodes = (
(546,604,l),
(546,680,l),
(114,680,l),
(114,630,l),
(505,630,l),
(114,96,l),
(114,20,l),
(546,20,l),
(546,70,l),
(155,70,l)
);
}
);
width = 660;
}
);
metricLeft = "=|";
metricWidth = A;
unicode = 90;
},
{
glyphname = a;
layers = (
{
anchors = (
{
name = bottom;
pos = (309,0);
},
{
name = ogonek;
pos = (545,10);
},
{
name = top;
pos = (329,500);
}
);
layerId = m002;
shapes = (
{
closed = 1;
nodes = (
(537,0,l),
(537,361,ls),
(537,455,o),
(451,516,o),
(320,516,cs),
(190,516,o),
(102,455,o),
(102,364,c),
(202,364,l),
(202,408,o),
(246,436,o),
(316,436,cs),
(391,436,o),
(437,405,o),
(437,354,cs),
(437,0,l)
);
},
{
closed = 1;
nodes = (
(382,-16,o),
(467,63,o),
(467,170,c),
(437,210,l),
(437,128,o),
(369,64,o),
(282,64,cs),
(222,64,o),
(181,97,o),
(181,145,cs),
(181,194,o),
(223,225,o),
(307,233,cs),
(388,241,ls),
(448,247,o),
(487,282,o),
(487,328,c),
(437,354,l),
(437,332,o),
(417,317,o),
(387,314,cs),
(289,305,ls),
(157,293,o),
(81,233,o),
(81,142,cs),
(81,50,o),
(158,-16,o),
(265,-16,cs)
);
}
);
width = 660;
},
{
anchors = (
{
name = bottom;
pos = (272,0);
},
{
name = ogonek;
pos = (509,10);
},
{
name = top;
pos = (362,500);
}
);
layerId = m003;
shapes = (
{
closed = 1;
nodes = (
(500,0,l),
(551,361,ls),
(564,455,o),
(483,516,o),
(344,516,cs),
(213,516,o),
(130,461,o),
(116,364,c),
(216,364,l),
(222,411,o),
(264,436,o),
(338,436,cs),
(415,436,o),
(456,410,o),
(451,365,c),
(400,0,l)
);
},
{
closed = 1;
nodes = (
(352,-16,o),
(433,56,o),
(449,170,c),
(429,210,l),
(417,121,o),
(353,64,o),
(266,64,cs),
(202,64,o),
(163,95,o),
(163,146,cs),
(163,198,o),
(204,223,o),
(303,233,cs),
(385,241,ls),
(449,247,o),
(489,278,o),
(496,328,c),
(451,365,l),
(447,335,o),
(422,316,o),
(381,313,cs),
(295,305,ls),
(138,290,o),
(62,238,o),
(62,141,cs),
(62,47,o),
(133,-16,o),
(239,-16,cs)
);
}
);
width = 660;
},
{
anchors = (
{
name = bottom;
pos = (321,0);
},
{
name = ogonek;
pos = (557,10);
},
{
name = top;
pos = (341,500);
}
);
layerId = m004;
shapes = (
{
closed = 1;
nodes = (
(601,0,l),
(601,347,ls),
(601,460,o),
(516,516,o),
(343,516,cs),
(166,516,o),
(73,458,o),
(63,342,c),
(265,342,l),
(270,364,o),
(289,372,o),
(333,372,cs),
(378,372,o),
(397,364,o),
(397,347,cs),
(397,0,l)
);
},
{
closed = 1;
nodes = (
(365,-16,o),
(451,64,o),
(451,185,c),
(397,208,l),
(397,169,o),
(362,144,o),
(290,144,cs),
(269,144,o),
(245,146,o),
(245,168,cs),
(245,195,o),
(279,192,o),
(310,195,cs),
(357,199,ls),
(419,204,o),
(462,254,o),
(462,319,c),
(397,347,l),
(397,332,o),
(386,324,o),
(357,322,cs),
(296,317,ls),
(126,303,o),
(41,246,o),
(41,145,cs),
(41,48,o),
(118,-16,o),
(235,-16,cs)
);
}
);
width = 660;
},
{
anchors = (
{
name = bottom;
pos = (315,0);
},
{
name = ogonek;
pos = (551,10);
},
{
name = top;
pos = (335,500);
}
);
layerId = m005;
shapes = (
{
closed = 1;
nodes = (
(519,0,l),
(519,381,ls),
(519,465,o),
(449,516,o),
(332,516,cs),
(217,516,o),
(144,466,o),
(133,380,c),
(186,380,l),
(199,437,o),
(249,468,o),
(330,468,cs),
(416,468,o),
(467,433,o),
(467,374,cs),
(467,0,l)
);
},
{
closed = 1;
nodes = (
(402,-16,o),
(489,69,o),
(489,187,c),
(467,231,l),
(467,115,o),
(392,32,o),
(285,32,cs),
(211,32,o),
(163,73,o),
(163,136,cs),
(163,201,o),
(213,239,o),
(311,249,cs),
(392,257,ls),
(455,264,o),
(489,290,o),
(489,331,c),
(467,374,l),
(467,331,o),
(439,302,o),
(396,298,cs),
(297,289,ls),
(176,278,o),
(111,224,o),
(111,136,cs),
(111,45,o),
(179,-16,o),
(281,-16,cs)
);
}
);
width = 660;
}
);
metricLeft = "=o*1.25";
metricWidth = A;
unicode = 97;
},
{
glyphname = ae;
layers = (
{
anchors = (
{
name = bottom;
pos = (330,0);
},
{
name = top;
pos = (330,500);
}
);
layerId = m002;
shapes = (
{
closed = 1;
nodes = (
(545,-16,o),
(612,43,o),
(627,130,c),
(526,130,l),
(517,91,o),
(489,64,o),
(450,64,cs),
(373,64,o),
(362,154,o),
(362,244,cs),
(362,340,o),
(374,436,o),
(456,436,cs),
(530,436,o),
(531,347,o),
(531,261,c),
(573,300,l),
(302,300,l),
(302,220,l),
(634,220,l),
(634,250,ls),
(634,389,o),
(582,516,o),
(459,516,cs),
(334,516,o),
(282,388,o),
(282,247,cs),
(282,109,o),
(335,-16,o),
(457,-16,cs)
);
},
{
closed = 1;
nodes = (
(266,-16,o),
(332,61,o),
(332,160,c),
(282,210,l),
(282,135,o),
(258,64,o),
(192,64,cs),
(152,64,o),
(126,98,o),
(126,141,cs),
(126,191,o),
(166,223,o),
(218,230,cs),
(276,238,o),
(322,273,o),
(322,328,c),
(282,354,l),
(282,318,o),
(243,305,o),
(203,302,cs),
(104,294,o),
(26,233,o),
(26,138,cs),
(26,51,o),
(85,-16,o),
(170,-16,cs)
);
},
{
closed = 1;
nodes = (
(362,140,l),
(362,361,ls),
(362,450,o),
(298,516,o),
(209,516,cs),
(117,516,o),
(47,454,o),
(47,364,c),
(147,364,l),
(147,404,o),
(173,436,o),
(212,436,cs),
(255,436,o),
(282,399,o),
(282,354,cs),
(282,140,l)
);
}
);
width = 660;
},
{
anchors = (
{
name = bottom;
pos = (298,0);
},
{
name = top;
pos = (368,500);
}
);
layerId = m003;
shapes = (
{
closed = 1;
nodes = (
(526,-16,o),
(585,41,o),
(612,130,c),
(511,130,l),
(500,89,o),
(472,64,o),
(432,64,cs),
(361,64,o),
(357,140,o),
(357,199,cs),
(357,333,o),
(378,436,o),
(468,436,cs),
(550,436,o),
(547,351,o),
(534,261,c),
(582,300,l),
(312,300,l),
(301,220,l),
(632,220,l),
(636,250,ls),
(655,393,o),
(610,516,o),
(479,516,cs),
(338,516,o),
(280,375,o),
(280,222,cs),
(280,86,o),
(326,-16,o),
(440,-16,cs)
);
},
{
closed = 1;
nodes = (
(238,-16,o),
(292,44,o),
(310,160,c),
(267,210,l),
(251,104,o),
(227,64,o),
(178,64,cs),
(137,64,o),
(111,92,o),
(111,137,cs),
(111,188,o),
(146,222,o),
(209,230,cs),
(274,238,o),
(315,273,o),
(324,328,c),
(289,368,l),
(283,327,o),
(250,305,o),
(188,301,cs),
(79,293,o),
(9,228,o),
(9,133,cs),
(9,45,o),
(69,-16,o),
(154,-16,cs)
);
},
{
closed = 1;
nodes = (
(337,140,l),
(369,361,ls),
(382,450,o),
(321,516,o),
(224,516,cs),
(133,516,o),
(68,458,o),
(54,364,c),
(154,364,l),
(160,408,o),
(188,436,o),
(228,436,cs),
(268,436,o),
(294,407,o),
(289,368,cs),
(257,140,l)
);
}
);
width = 660;
},
{
anchors = (
{
name = bottom;
pos = (330,0);
},
{
name = top;
pos = (330,500);
}
);
layerId = m004;
shapes = (
{
closed = 1;
nodes = (
(545,-16,o),
(612,43,o),
(627,130,c),
(526,130,l),
(517,91,o),
(489,64,o),
(450,64,cs),
(373,64,o),
(362,154,o),
(362,244,cs),
(362,340,o),
(374,436,o),
(456,436,cs),
(530,436,o),
(531,347,o),
(531,261,c),
(573,300,l),
(302,300,l),
(302,220,l),
(634,220,l),
(634,250,ls),
(634,389,o),
(582,516,o),
(459,516,cs),
(334,516,o),
(282,388,o),
(282,247,cs),
(282,109,o),
(335,-16,o),
(457,-16,cs)
);
},
{
closed = 1;
nodes = (
(266,-16,o),
(332,61,o),
(332,160,c),
(282,210,l),
(282,135,o),
(258,64,o),
(192,64,cs),
(152,64,o),
(126,98,o),
(126,141,cs),
(126,191,o),
(166,223,o),
(218,230,cs),
(276,238,o),
(322,273,o),
(322,328,c),
(282,354,l),
(282,318,o),
(243,305,o),
(203,302,cs),
(104,294,o),
(26,233,o),
(26,138,cs),
(26,51,o),
(85,-16,o),
(170,-16,cs)
);
},
{
closed = 1;
nodes = (
(362,140,l),
(362,361,ls),
(362,450,o),
(298,516,o),
(209,516,cs),
(117,516,o),
(47,454,o),
(47,364,c),
(147,364,l),
(147,404,o),
(173,436,o),
(212,436,cs),
(255,436,o),
(282,399,o),
(282,354,cs),
(282,140,l)
);
}
);
width = 660;
},
{
anchors = (
{
name = bottom;
pos = (330,0);
},
{
name = top;
pos = (330,500);
}
);
layerId = m005;
shapes = (
{
closed = 1;
nodes = (
(531,-16,o),
(586,32,o),
(609,114,c),
(556,114,l),
(535,59,o),
(501,32,o),
(455,32,cs),
(378,32,o),
(338,107,o),
(338,250,cs),
(338,394,o),
(378,468,o),
(456,468,cs),
(528,468,o),
(561,405,o),
(565,260,c),
(577,284,l),
(326,284,l),
(326,236,l),
(620,236,l),
(620,250,ls),
(620,421,o),
(563,516,o),
(461,516,cs),
(357,516,o),
(296,418,o),
(296,250,cs),
(296,82,o),
(356,-16,o),
(459,-16,cs)
);
},
{
closed = 1;
nodes = (
(262,-16,o),
(324,60,o),
(324,167,c),
(296,224,l),
(296,103,o),
(254,32,o),
(183,32,cs),
(130,32,o),
(92,73,o),
(92,132,cs),
(92,195,o),
(135,236,o),
(214,247,cs),
(274,255,o),
(308,282,o),
(308,322,c),
(296,354,l),
(296,316,o),
(263,292,o),
(202,287,cs),
(102,279,o),
(40,219,o),
(40,131,cs),
(40,45,o),
(96,-16,o),
(175,-16,cs)
);
},
{
closed = 1;
nodes = (
(338,156,l),
(338,361,ls),
(338,453,o),
(281,516,o),
(197,516,cs),
(118,516,o),
(59,461,o),
(52,380,c),
(104,380,l),
(113,433,o),
(151,468,o),
(201,468,cs),
(258,468,o),
(296,423,o),
(296,354,cs),
(296,156,l)
);
}
);
width = 660;
}
);
metricLeft = "=|";
metricWidth = A;
unicode = 230;
},
{
glyphname = b;
layers = (
{
anchors = (
{
name = bottom;
pos = (345,0);
},
{
name = center;
pos = (345,250);
},
{
name = top;
pos = (345,500);
}
);
layerId = m002;
shapes = (
{
closed = 1;
nodes = (
(502,-16,o),
(595,92,o),
(595,250,cs),
(595,407,o),
(502,516,o),
(368,516,cs),
(249,516,o),
(160,432,o),
(160,320,cs),
(160,180,ls),
(160,68,o),
(249,-16,o),
(368,-16,cs)
);
},
{
closed = 1;
nodes = (
(195,0,l),
(195,700,l),
(95,700,l),
(95,0,l)
);
},
{
closed = 1;
nodes = (
(260,64,o),
(195,142,o),
(195,250,cs),
(195,358,o),
(260,436,o),
(349,436,cs),
(436,436,o),
(495,361,o),
(495,250,cs),
(495,139,o),
(436,64,o),
(349,64,cs)
);
}
);
width = 660;
},
{
anchors = (
{
name = bottom;
pos = (304,0);
},
{
name = center;
pos = (339,250);
},
{
name = top;
pos = (374,500);
}
);
layerId = m003;
shapes = (
{
closed = 1;
nodes = (
(495,-16,o),
(597,98,o),
(597,266,cs),
(597,419,o),
(514,516,o),
(385,516,cs),
(270,516,o),
(185,440,o),
(168,320,cs),
(148,180,ls),
(132,67,o),
(214,-16,o),
(343,-16,cs)
);
},
{
closed = 1;
nodes = (
(154,0,l),
(252,700,l),
(152,700,l),
(54,0,l)
);
},
{
closed = 1;
nodes = (
(245,64,o),
(191,128,o),
(191,234,cs),
(191,353,o),
(260,436,o),
(357,436,cs),
(443,436,o),
(496,370,o),
(496,262,cs),
(496,142,o),
(431,64,o),
(333,64,cs)
);
}
);
width = 660;
},
{
anchors = (
{
name = bottom;
pos = (325,0);
},
{
name = center;
pos = (325,250);
},
{
name = top;
pos = (325,500);
}
);
layerId = m004;
shapes = (
{
closed = 1;
nodes = (
(528,-16,o),
(627,88,o),
(627,250,cs),
(627,412,o),
(528,516,o),
(375,516,cs),
(241,516,o),
(148,436,o),
(148,320,cs),
(148,180,ls),
(148,64,o),
(241,-16,o),
(375,-16,cs)
);
},
{
closed = 1;
nodes = (
(227,0,l),
(227,700,l),
(23,700,l),
(23,0,l)
);
},
{
closed = 1;
nodes = (
(268,144,o),
(227,187,o),
(227,250,cs),
(227,313,o),
(268,356,o),
(326,356,cs),
(384,356,o),
(423,314,o),
(423,250,cs),
(423,186,o),
(384,144,o),
(326,144,cs)
);
}
);
width = 660;
},
{
anchors = (
{
name = bottom;
pos = (345,0);
},
{
name = center;
pos = (345,250);
},
{
name = top;
pos = (345,500);
}
);
layerId = m005;
shapes = (
{
closed = 1;
nodes = (
(487,-16,o),
(571,86,o),
(571,250,cs),
(571,414,o),
(487,516,o),
(354,516,cs),
(236,516,o),
(154,436,o),
(154,320,cs),
(154,180,ls),
(154,64,o),
(236,-16,o),
(354,-16,cs)
);
},
{
closed = 1;
nodes = (
(171,0,l),
(171,700,l),
(119,700,l),
(119,0,l)
);
},
{
closed = 1;
nodes = (
(241,32,o),
(171,119,o),
(171,250,cs),
(171,381,o),
(241,468,o),
(347,468,cs),
(452,468,o),
(519,383,o),
(519,250,cs),
(519,117,o),
(452,32,o),
(347,32,cs)
);
}
);
width = 660;
}
);
metricRight = "=o";
metricWidth = A;
unicode = 98;
},
{
glyphname = c;
layers = (
{
anchors = (
{
name = bottom;
pos = (330,0);
},
{
name = top;
pos = (330,500);
}
);
layerId = m002;
shapes = (
{
closed = 1;
nodes = (
(468,-16,o),
(559,58,o),
(573,170,c),
(472,170,l),
(464,106,o),
(413,64,o),
(345,64,cs),
(253,64,o),
(187,142,o),
(187,250,cs),
(187,358,o),
(252,436,o),
(343,436,cs),
(410,436,o),
(461,394,o),
(471,330,c),
(573,330,l),
(559,442,o),
(468,516,o),
(347,516,cs),
(197,516,o),
(87,403,o),
(87,250,cs),
(87,97,o),
(197,-16,o),
(347,-16,cs)
);
}
);
width = 660;
},
{
anchors = (
{
name = bottom;
pos = (296,0);
},
{
name = top;
pos = (366,500);
}
);
layerId = m003;
shapes = (
{
closed = 1;
nodes = (
(444,-16,o),
(533,52,o),
(564,170,c),
(463,170,l),
(445,103,o),
(394,64,o),
(326,64,cs),
(240,64,o),
(187,126,o),
(187,229,cs),
(187,349,o),
(260,436,o),
(362,436,cs),
(430,436,o),
(473,398,o),
(484,330,c),
(586,330,l),
(578,445,o),
(493,516,o),
(365,516,cs),
(201,516,o),
(86,397,o),
(86,229,cs),
(86,79,o),
(178,-16,o),
(322,-16,cs)
);
}
);
width = 660;
},
{
anchors = (
{
name = bottom;
pos = (325,0);
},
{
name = top;
pos = (325,500);
}
);
layerId = m004;
shapes = (
{
closed = 1;
nodes = (
(501,-16,o),
(607,73,o),
(610,210,c),
(404,210,l),
(401,170,o),
(375,144,o),
(336,144,cs),
(287,144,o),
(254,186,o),
(254,250,cs),
(254,314,o),
(286,356,o),
(336,356,cs),
(375,356,o),
(402,330,o),
(406,290,c),
(610,290,l),
(607,427,o),
(501,516,o),
(341,516,cs),
(167,516,o),
(50,409,o),
(50,250,cs),
(50,91,o),
(167,-16,o),
(341,-16,cs)
);
}
);
width = 660;
},
{
anchors = (
{
name = bottom;
pos = (332,0);
},
{
name = top;
pos = (332,500);
}
);
layerId = m005;
shapes = (
{
closed = 1;
nodes = (
(452,-16,o),
(526,46,o),
(548,154,c),
(495,154,l),
(478,77,o),
(422,32,o),
(344,32,cs),
(236,32,o),
(165,118,o),
(165,250,cs),
(165,382,o),
(236,468,o),
(343,468,cs),
(420,468,o),
(475,423,o),
(494,346,c),
(548,346,l),
(526,454,o),
(452,516,o),
(346,516,cs),
(207,516,o),
(113,409,o),
(113,250,cs),
(113,91,o),
(207,-16,o),
(346,-16,cs)
);
}
);
width = 660;
}
);
metricLeft = "=|";
metricWidth = A;
unicode = 99;
},
{
glyphname = d;
layers = (
{
anchors = (
{
name = bottom;
pos = (315,0);
},
{
name = center;
pos = (315,250);
},
{
name = top;
pos = (666,500);
},
{
name = topright;
pos = (615,800);
}
);
layerId = m002;
shapes = (
{
closed = 1;
nodes = (
(565,0,l),
(565,700,l),
(465,700,l),
(465,0,l)
);
},
{
closed = 1;
nodes = (
(411,-16,o),
(500,68,o),
(500,180,cs),
(500,320,ls),
(500,432,o),
(411,516,o),
(292,516,cs),
(158,516,o),
(65,407,o),
(65,250,cs),
(65,92,o),
(158,-16,o),
(292,-16,cs)
);
},
{
closed = 1;
nodes = (
(224,64,o),
(165,139,o),
(165,250,cs),
(165,361,o),
(224,436,o),
(311,436,cs),
(400,436,o),
(465,358,o),
(465,250,cs),
(465,142,o),
(400,64,o),
(311,64,cs)
);
}
);
width = 660;
},
{
anchors = (
{
name = bottom;
pos = (287,0);
},
{
name = center;
pos = (322,250);
},
{
name = top;
pos = (708,500);
},
{
name = topright;
pos = (699,800);
}
);
layerId = m003;
shapes = (
{
closed = 1;
nodes = (
(537,0,l),
(635,700,l),
(535,700,l),
(437,0,l)
);
},
{
closed = 1;
nodes = (
(390,-16,o),
(475,60,o),
(492,180,cs),
(512,320,ls),
(528,433,o),
(446,516,o),
(317,516,cs),
(165,516,o),
(63,402,o),
(63,234,cs),
(63,81,o),
(146,-16,o),
(275,-16,cs)
);
},
{
closed = 1;
nodes = (
(216,64,o),
(164,130,o),
(164,238,cs),
(164,357,o),
(229,436,o),
(327,436,cs),
(415,436,o),
(469,372,o),
(469,266,cs),
(469,147,o),
(400,64,o),
(303,64,cs)
);
}
);
width = 660;
},
{
anchors = (
{
name = bottom;
pos = (335,0);
},
{
name = center;
pos = (335,250);
},
{
name = top;
pos = (335,500);
},
{
name = topright;
pos = (635,800);
}
);
layerId = m004;
shapes = (
{
closed = 1;
nodes = (
(637,0,l),
(637,700,l),
(433,700,l),
(433,0,l)
);
},
{
closed = 1;
nodes = (
(419,-16,o),
(512,64,o),
(512,180,cs),
(512,320,ls),
(512,436,o),
(419,516,o),
(285,516,cs),
(132,516,o),
(33,412,o),
(33,250,cs),
(33,88,o),
(132,-16,o),
(285,-16,cs)
);
},
{
closed = 1;
nodes = (
(276,144,o),
(237,186,o),
(237,250,cs),
(237,314,o),
(276,356,o),
(334,356,cs),
(392,356,o),
(433,313,o),
(433,250,cs),
(433,187,o),
(392,144,o),
(334,144,cs)
);
}
);
width = 660;
},
{
anchors = (
{
name = bottom;
pos = (315,0);
},
{
name = center;
pos = (315,250);
},
{
name = top;
pos = (666,500);
},
{
name = topright;
pos = (615,800);
}
);
layerId = m005;
shapes = (
{
closed = 1;
nodes = (
(541,0,l),
(541,700,l),
(489,700,l),
(489,0,l)
);
},
{
closed = 1;
nodes = (
(424,-16,o),
(506,64,o),
(506,180,cs),
(506,320,ls),
(506,436,o),
(424,516,o),
(306,516,cs),
(173,516,o),
(89,414,o),
(89,250,cs),
(89,86,o),
(173,-16,o),
(306,-16,cs)
);
},
{
closed = 1;
nodes = (
(208,32,o),
(141,117,o),
(141,250,cs),
(141,383,o),
(208,468,o),
(313,468,cs),
(419,468,o),
(489,381,o),
(489,250,cs),
(489,119,o),
(419,32,o),
(313,32,cs)
);
}
);
width = 660;
}
);
metricLeft = "=o";
metricWidth = A;
unicode = 100;
},
{
glyphname = eth;
layers = (
{
anchors = (
{
name = bottom;
pos = (315,0);
},
{
name = top;
pos = (315,800);
}
);
layerId = m002;
shapes = (
{
closed = 1;
nodes = (
(465,-16,o),
(565,104,o),
(565,287,cs),
(565,485,o),
(455,661,o),
(276,748,c),
(216,688,l),
(381,608,o),
(473,471,o),
(473,306,c),
(487,306,l),
(487,422,o),
(413,500,o),
(303,500,cs),
(168,500,o),
(65,388,o),
(65,242,cs),
(65,93,o),
(170,-16,o),
(313,-16,cs)
);
},
{
closed = 1;
nodes = (
(227,64,o),
(165,138,o),
(165,242,cs),
(165,346,o),
(227,420,o),
(315,420,cs),
(403,420,o),
(465,346,o),
(465,242,cs),
(465,138,o),
(403,64,o),
(315,64,cs)
);
},
{
closed = 1;
nodes = (
(516,638,l),
(493,700,l),
(173,590,l),
(195,528,l)
);
}
);
width = 660;
},
{
anchors = (
{
name = bottom;
pos = (279,0);
},
{
name = top;
pos = (391,800);
}
);
layerId = m003;
shapes = (
{
closed = 1;
nodes = (
(464,-16,o),
(574,121,o),
(574,339,cs),
(574,527,o),
(493,671,o),
(345,748,c),
(277,688,l),
(415,616,o),
(484,509,o),
(484,365,c),
(496,341,l),
(496,439,o),
(429,500,o),
(322,500,cs),
(171,500,o),
(60,379,o),
(60,216,cs),
(60,71,o),
(146,-16,o),
(287,-16,cs)
);
},
{
closed = 1;
nodes = (
(206,64,o),
(160,118,o),
(160,215,cs),
(160,335,o),
(231,420,o),
(331,420,cs),
(414,420,o),
(465,362,o),
(465,266,cs),
(465,149,o),
(390,64,o),
(288,64,cs)
);
},
{
closed = 1;
nodes = (
(569,638,l),
(555,700,l),
(220,590,l),
(233,528,l)
);
}
);
width = 660;
},
{
anchors = (
{
name = bottom;
pos = (335,0);
},
{
name = top;
pos = (335,800);
}
);
layerId = m004;
shapes = (
{
closed = 1;
nodes = (
(513,-44,o),
(637,88,o),
(637,305,cs),
(637,520,o),
(514,689,o),
(283,788,c),
(157,663,l),
(359,587,o),
(451,463,o),
(441,278,c),
(537,278,l),
(552,433,o),
(454,528,o),
(311,528,cs),
(150,528,o),
(33,410,o),
(33,243,cs),
(33,72,o),
(157,-44,o),
(329,-44,cs)
);
},
{
closed = 1;
nodes = (
(273,116,o),
(237,158,o),
(237,242,cs),
(237,326,o),
(273,368,o),
(335,368,cs),
(397,368,o),
(433,326,o),
(433,242,cs),
(433,158,o),
(397,116,o),
(335,116,cs)
);
},
{
closed = 1;
nodes = (
(594,626,l),
(551,745,l),
(136,602,l),
(178,483,l)
);
}
);
width = 660;
},
{
anchors = (
{
name = bottom;
pos = (315,0);
},
{
name = top;
pos = (315,800);
}
);
layerId = m005;
shapes = (
{
closed = 1;
nodes = (
(456,-16,o),
(541,103,o),
(541,302,cs),
(541,507,o),
(449,660,o),
(272,748,c),
(239,715,l),
(409,640,o),
(497,499,o),
(497,302,c),
(503,306,l),
(503,420,o),
(422,500,o),
(305,500,cs),
(174,500,o),
(89,399,o),
(89,244,cs),
(89,87,o),
(178,-16,o),
(312,-16,cs)
);
},
{
closed = 1;
nodes = (
(210,32,o),
(141,115,o),
(141,242,cs),
(141,369,o),
(210,452,o),
(315,452,cs),
(420,452,o),
(489,369,o),
(489,242,cs),
(489,115,o),
(420,32,o),
(315,32,cs)
);
},
{
closed = 1;
nodes = (
(488,646,l),
(477,677,l),
(200,582,l),
(211,551,l)
);
}
);
width = 660;
}
);
metricLeft = "=o";
metricWidth = A;
unicode = 240;
},
{
glyphname = dcroat;
layers = (
{
layerId = m002;
shapes = (
{
ref = d;
},
{
closed = 1;
nodes = (
(615,579,l),
(615,636,l),
(315,636,l),
(315,579,l)
);
}
);
width = 660;
},
{
layerId = m003;
shapes = (
{
ref = d;
},
{
closed = 1;
nodes = (
(667,579,l),
(675,636,l),
(375,636,l),
(367,579,l)
);
}
);
width = 660;
},
{
layerId = m004;
shapes = (
{
ref = d;
},
{
closed = 1;
nodes = (
(645,579,l),
(645,636,l),
(315,636,l),
(315,579,l)
);
}
);
width = 660;
},
{
layerId = m005;
shapes = (
{
ref = d;
},
{
closed = 1;
nodes = (
(591,595,l),
(591,620,l),
(339,620,l),
(339,595,l)
);
}
);
width = 660;
}
);
metricLeft = "=d";
metricWidth = A;
unicode = 273;
},
{
glyphname = e;
layers = (
{
anchors = (
{
name = bottom;
pos = (330,0);
},
{
name = ogonek;
pos = (484,10);
},
{
name = top;
pos = (330,500);
}
);
layerId = m002;
shapes = (
{
closed = 1;
nodes = (
(470,-16,o),
(554,41,o),
(569,130,c),
(468,130,l),
(458,89,o),
(416,64,o),
(357,64,cs),
(254,64,o),
(184,140,o),
(184,254,cs),
(184,360,o),
(245,436,o),
(330,436,cs),
(414,436,o),
(473,363,o),
(473,261,c),
(515,300,l),
(124,300,l),
(124,220,l),
(576,220,l),
(576,250,ls),
(576,404,o),
(473,516,o),
(331,516,cs),
(189,516,o),
(84,403,o),
(84,251,cs),
(84,93,o),
(194,-16,o),
(354,-16,cs)
);
}
);
width = 660;
},
{
anchors = (
{
name = bottom;
pos = (296,0);
},
{
name = ogonek;
pos = (451,10);
},
{
name = top;
pos = (366,500);
}
);
layerId = m003;
shapes = (
{
closed = 1;
nodes = (
(443,-16,o),
(524,36,o),
(553,130,c),
(452,130,l),
(435,87,o),
(395,64,o),
(335,64,cs),
(239,64,o),
(184,124,o),
(184,228,cs),
(184,348,o),
(257,436,o),
(356,436,cs),
(444,436,o),
(491,367,o),
(475,261,c),
(523,300,l),
(132,300,l),
(121,220,l),
(573,220,l),
(577,250,ls),
(598,405,o),
(507,516,o),
(357,516,cs),
(199,516,o),
(83,393,o),
(83,224,cs),
(83,74,o),
(175,-16,o),
(327,-16,cs)
);
}
);
width = 660;
},
{
anchors = (
{
name = bottom;
pos = (324,0);
},
{
name = ogonek;
pos = (478,10);
},
{
name = top;
pos = (324,500);
}
);
layerId = m004;
shapes = (
{
closed = 1;
nodes = (
(504,-16,o),
(603,51,o),
(612,160,c),
(410,160,l),
(397,142,o),
(380,134,o),
(354,134,cs),
(293,134,o),
(262,175,o),
(262,257,cs),
(262,333,o),
(288,376,o),
(334,376,cs),
(380,376,o),
(406,334,o),
(406,260,c),
(435,320,l),
(66,320,l),
(66,190,l),
(612,190,l),
(612,250,ls),
(612,409,o),
(497,516,o),
(328,516,cs),
(159,516,o),
(48,410,o),
(48,249,cs),
(48,84,o),
(162,-16,o),
(350,-16,cs)
);
}
);
width = 660;
},
{
anchors = (
{
name = bottom;
pos = (330,0);
},
{
name = ogonek;
pos = (484,10);
},
{
name = top;
pos = (330,500);
}
);
layerId = m005;
shapes = (
{
closed = 1;
nodes = (
(450,-16,o),
(517,30,o),
(541,114,c),
(487,114,l),
(463,59,o),
(418,32,o),
(354,32,cs),
(237,32,o),
(160,122,o),
(160,257,cs),
(160,384,o),
(228,468,o),
(330,468,cs),
(428,468,o),
(493,392,o),
(493,276,c),
(509,284,l),
(148,284,l),
(148,236,l),
(552,236,l),
(552,250,ls),
(552,411,o),
(465,516,o),
(331,516,cs),
(197,516,o),
(108,411,o),
(108,255,cs),
(108,92,o),
(205,-16,o),
(353,-16,cs)
);
}
);
width = 660;
}
);
metricLeft = "=|";
metricWidth = A;
unicode = 101;
},
{
glyphname = f;
layers = (
{
anchors = (
{
name = bottom;
pos = (365,0);
},
{
name = top;
pos = (395,700);
}
);
layerId = m002;
shapes = (
{
closed = 1;
nodes = (
(385,0,l),
(385,570,l),
(385,609,o),
(418,636,o),
(465,636,c),
(595,636,l),
(595,716,l),
(435,716,l),
(348,716,o),
(285,659,o),
(285,580,c),
(285,0,l)
);
},
{
closed = 1;
nodes = (
(595,420,l),
(595,500,l),
(155,500,l),
(155,420,l)
);
}
);
width = 660;
},
{
anchors = (
{
name = bottom;
pos = (331,0);
},
{
name = top;
pos = (459,700);
}
);
layerId = m003;
shapes = (
{
closed = 1;
nodes = (
(351,0,l),
(431,570,ls),
(437,611,o),
(470,636,o),
(520,636,cs),
(650,636,l),
(661,716,l),
(501,716,ls),
(408,716,o),
(344,664,o),
(332,580,cs),
(251,0,l)
);
},
{
closed = 1;
nodes = (
(620,420,l),
(631,500,l),
(191,500,l),
(180,420,l)
);
}
);
width = 660;
},
{
anchors = (
{
name = bottom;
pos = (341,0);
},
{
name = top;
pos = (371,700);
}
);
layerId = m004;
shapes = (
{
closed = 1;
nodes = (
(413,0,l),
(413,520,ls),
(413,541,o),
(429,556,o),
(451,556,cs),
(623,556,l),
(623,716,l),
(411,716,ls),
(292,716,o),
(209,644,o),
(209,540,cs),
(209,0,l)
);
},
{
closed = 1;
nodes = (
(623,340,l),
(623,500,l),
(79,500,l),
(79,340,l)
);
}
);
width = 660;
},
{
anchors = (
{
name = bottom;
pos = (374,0);
},
{
name = top;
pos = (404,700);
}
);
layerId = m005;
shapes = (
{
closed = 1;
nodes = (
(370,0,l),
(370,596,ls),
(370,639,o),
(400,668,o),
(444,668,cs),
(580,668,l),
(580,716,l),
(444,716,ls),
(369,716,o),
(318,668,o),
(318,596,cs),
(318,0,l)
);
},
{
closed = 1;
nodes = (
(580,436,l),
(580,484,l),
(188,484,l),
(188,436,l)
);
}
);
width = 660;
}
);
metricRight = "=h*.65";
metricWidth = A;
unicode = 102;
},
{
glyphname = g;
layers = (
{
anchors = (
{
name = bottom;
pos = (315,-200);
},
{
name = top;
pos = (315,500);
}
);
layerId = m002;
shapes = (
{
closed = 1;
nodes = (
(454,-216,o),
(565,-125,o),
(565,0,cs),
(565,500,l),
(465,500,l),
(465,0,ls),
(465,-79,o),
(395,-136,o),
(299,-136,cs),
(236,-136,o),
(195,-111,o),
(184,-66,c),
(84,-66,l),
(94,-158,o),
(177,-216,o),
(300,-216,cs)
);
},
{
closed = 1;
nodes = (
(410,-16,o),
(500,68,o),
(500,180,cs),
(500,320,ls),
(500,432,o),
(411,516,o),
(293,516,cs),
(158,516,o),
(65,408,o),
(65,250,cs),
(65,92,o),
(158,-16,o),
(292,-16,cs)
);
},
{
closed = 1;
nodes = (
(224,64,o),
(165,139,o),
(165,250,cs),
(165,361,o),
(224,436,o),
(311,436,cs),
(400,436,o),
(465,358,o),
(465,250,cs),
(465,142,o),
(400,64,o),
(311,64,cs)
);
}
);
width = 660;
},
{
anchors = (
{
name = bottom;
pos = (259,-200);
},
{
name = top;
pos = (357,500);
}
);
layerId = m003;
shapes = (
{
closed = 1;
nodes = (
(409,-216,o),
(518,-134,o),
(537,0,cs),
(607,500,l),
(507,500,l),
(437,0,ls),
(425,-83,o),
(356,-136,o),
(256,-136,cs),
(188,-136,o),
(151,-112,o),
(147,-66,c),
(47,-66,l),
(44,-159,o),
(122,-216,o),
(252,-216,cs)
);
},
{
closed = 1;
nodes = (
(390,-16,o),
(475,60,o),
(492,180,cs),
(512,320,ls),
(528,433,o),
(446,516,o),
(317,516,cs),
(165,516,o),
(63,402,o),
(63,234,cs),
(63,81,o),
(146,-16,o),
(275,-16,cs)
);
},
{
closed = 1;
nodes = (
(216,64,o),
(164,130,o),
(164,238,cs),
(164,357,o),
(229,436,o),
(327,436,cs),
(415,436,o),
(469,372,o),
(469,266,cs),
(469,147,o),
(400,64,o),
(303,64,cs)
);
}
);
width = 660;
},
{
anchors = (
{
name = bottom;
pos = (335,-200);
},
{
name = top;
pos = (335,500);
}
);
layerId = m004;
shapes = (
{
closed = 1;
nodes = (
(516,-216,o),
(637,-125,o),
(637,20,cs),
(637,500,l),
(433,500,l),
(433,20,ls),
(433,-33,o),
(390,-66,o),
(323,-66,cs),
(282,-66,o),
(252,-53,o),
(252,-36,c),
(53,-36,l),
(63,-150,o),
(162,-216,o),
(324,-216,cs)
);
},
{
closed = 1;
nodes = (
(419,-16,o),
(512,64,o),
(512,180,cs),
(512,320,ls),
(512,436,o),
(419,516,o),
(285,516,cs),
(132,516,o),
(33,412,o),
(33,250,cs),
(33,88,o),
(132,-16,o),
(285,-16,cs)
);
},
{
closed = 1;
nodes = (
(276,144,o),
(237,186,o),
(237,250,cs),
(237,314,o),
(276,356,o),
(334,356,cs),
(392,356,o),
(433,313,o),
(433,250,cs),
(433,187,o),
(392,144,o),
(334,144,cs)
);
}
);
width = 660;
},
{
anchors = (
{
name = bottom;
pos = (315,-200);
},
{
name = top;
pos = (315,500);
}
);
layerId = m005;
shapes = (
{
closed = 1;
nodes = (
(447,-216,o),
(541,-129,o),
(541,0,cs),
(541,500,l),
(489,500,l),
(489,0,ls),
(489,-101,o),
(418,-168,o),
(309,-168,cs),
(237,-168,o),
(188,-138,o),
(165,-82,c),
(111,-82,l),
(140,-169,o),
(209,-216,o),
(310,-216,cs)
);
},
{
closed = 1;
nodes = (
(424,-16,o),
(506,64,o),
(506,180,cs),
(506,320,ls),
(506,436,o),
(424,516,o),
(306,516,cs),
(173,516,o),
(89,414,o),
(89,250,cs),
(89,86,o),
(173,-16,o),
(306,-16,cs)
);
},
{
closed = 1;
nodes = (
(208,32,o),
(141,117,o),
(141,250,cs),
(141,383,o),
(208,468,o),
(313,468,cs),
(419,468,o),
(489,381,o),
(489,250,cs),
(489,119,o),
(419,32,o),
(313,32,cs)
);
}
);
width = 660;
}
);
metricLeft = "=o";
metricWidth = A;
unicode = 103;
},
{
glyphname = h;
layers = (
{
anchors = (
{
name = bottom;
pos = (330,0);
},
{
name = center;
pos = (330,400);
},
{
name = top;
pos = (149,700);
}
);
layerId = m002;
shapes = (
{
closed = 1;
nodes = (
(561,0,l),
(561,339,ls),
(561,443,o),
(481,516,o),
(367,516,cs),
(256,516,o),
(173,447,o),
(173,353,c),
(199,280,l),
(199,364,o),
(262,427,o),
(345,426,cs),
(413,425,o),
(461,381,o),
(461,319,cs),
(461,0,l)
);
},
{
closed = 1;
nodes = (
(199,0,l),
(199,700,l),
(99,700,l),
(99,0,l)
);
}
);
width = 660;
},
{
anchors = (
{
name = bottom;
pos = (295,0);
},
{
name = center;
pos = (351,400);
},
{
name = top;
pos = (212,700);
}
);
layerId = m003;
shapes = (
{
closed = 1;
nodes = (
(526,0,l),
(573,339,ls),
(588,442,o),
(514,516,o),
(394,516,cs),
(283,516,o),
(202,453,o),
(187,353,c),
(203,280,l),
(216,370,o),
(278,427,o),
(362,426,cs),
(435,425,o),
(479,381,o),
(471,319,cs),
(426,0,l)
);
},
{
closed = 1;
nodes = (
(164,0,l),
(262,700,l),
(162,700,l),
(64,0,l)
);
}
);
width = 660;
},
{
anchors = (
{
name = bottom;
pos = (330,0);
},
{
name = center;
pos = (330,400);
},
{
name = top;
pos = (149,700);
}
);
layerId = m004;
shapes = (
{
closed = 1;
nodes = (
(603,0,l),
(603,299,ls),
(603,429,o),
(517,516,o),
(388,516,cs),
(259,516,o),
(171,430,o),
(171,302,c),
(261,233,l),
(259,302,o),
(290,347,o),
(339,346,cs),
(376,345,o),
(399,319,o),
(399,279,cs),
(399,0,l)
);
},
{
closed = 1;
nodes = (
(261,0,l),
(261,700,l),
(57,700,l),
(57,0,l)
);
}
);
width = 660;
},
{
anchors = (
{
name = bottom;
pos = (330,0);
},
{
name = center;
pos = (330,400);
},
{
name = top;
pos = (149,700);
}
);
layerId = m005;
shapes = (
{
closed = 1;
nodes = (
(537,0,l),
(537,339,ls),
(537,447,o),
(465,516,o),
(354,516,cs),
(239,516,o),
(158,442,o),
(157,334,c),
(175,280,l),
(175,392,o),
(245,469,o),
(346,468,cs),
(430,467,o),
(485,412,o),
(485,329,cs),
(485,0,l)
);
},
{
closed = 1;
nodes = (
(175,0,l),
(175,700,l),
(123,700,l),
(123,0,l)
);
}
);
width = 660;
}
);
metricLeft = "=|";
metricWidth = A;
unicode = 104;
},
{
glyphname = hbar;
layers = (
{
layerId = m002;
shapes = (
{
ref = h;
},
{
closed = 1;
nodes = (
(349,579,l),
(349,636,l),
(49,636,l),
(49,579,l)
);
}
);
width = 660;
},
{
layerId = m003;
shapes = (
{
ref = h;
},
{
closed = 1;
nodes = (
(391,579,l),
(399,636,l),
(99,636,l),
(91,579,l)
);
}
);
width = 660;
},
{
layerId = m004;
shapes = (
{
ref = h;
},
{
closed = 1;
nodes = (
(401,539,l),
(401,676,l),
(-3,676,l),
(-3,539,l)
);
}
);
width = 660;
},
{
layerId = m005;
shapes = (
{
ref = h;
},
{
closed = 1;
nodes = (
(325,595,l),
(325,620,l),
(73,620,l),
(73,595,l)
);
}
);
width = 660;
}
);
metricRight = "=h";
metricWidth = A;
unicode = 295;
},
{
glyphname = idotless;
layers = (
{
anchors = (
{
name = bottom;
pos = (330,0);
},
{
name = ogonek;
pos = (574,10);
},
{
name = top;
pos = (330,500);
}
);
layerId = m002;
shapes = (
{
closed = 1;
nodes = (
(380,0,l),
(380,500,l),
(280,500,l),
(280,0,l)
);
},
{
closed = 1;
nodes = (
(94,0,l),
(566,0,l),
(566,90,l),
(94,90,l)
);
},
{
closed = 1;
nodes = (
(124,410,l),
(319,410,l),
(319,500,l),
(124,500,l)
);
}
);
width = 660;
},
{
anchors = (
{
name = bottom;
pos = (296,0);
},
{
name = ogonek;
pos = (541,10);
},
{
name = top;
pos = (366,500);
}
);
layerId = m003;
shapes = (
{
closed = 1;
nodes = (
(346,0,l),
(416,500,l),
(316,500,l),
(246,0,l)
);
},
{
closed = 1;
nodes = (
(60,0,l),
(532,0,l),
(544,90,l),
(72,90,l)
);
},
{
closed = 1;
nodes = (
(147,410,l),
(342,410,l),
(355,500,l),
(160,500,l)
);
}
);
width = 660;
},
{
anchors = (
{
name = bottom;
pos = (330,0);
},
{
name = ogonek;
pos = (574,10);
},
{
name = top;
pos = (330,500);
}
);
layerId = m004;
shapes = (
{
closed = 1;
nodes = (
(432,0,l),
(432,500,l),
(228,500,l),
(228,0,l)
);
},
{
closed = 1;
nodes = (
(42,0,l),
(618,0,l),
(618,170,l),
(42,170,l)
);
},
{
closed = 1;
nodes = (
(72,330,l),
(371,330,l),
(371,500,l),
(72,500,l)
);
}
);
width = 660;
},
{
anchors = (
{
name = bottom;
pos = (330,0);
},
{
name = ogonek;
pos = (574,10);
},
{
name = top;
pos = (330,500);
}
);
layerId = m005;
shapes = (
{
closed = 1;
nodes = (
(356,0,l),
(356,500,l),
(304,500,l),
(304,0,l)
);
},
{
closed = 1;
nodes = (
(118,0,l),
(542,0,l),
(542,48,l),
(118,48,l)
);
},
{
closed = 1;
nodes = (
(148,452,l),
(345,452,l),
(345,500,l),
(148,500,l)
);
}
);
width = 660;
}
);
metricLeft = "=|";
metricWidth = A;
unicode = 305;
},
{
glyphname = ij;
layers = (
{
anchors = (
{
name = bottom;
pos = (899,-200);
},
{
name = ogonek;
pos = (458,10);
},
{
name = top;
pos = (934,745);
}
);
layerId = m002;
shapes = (
{
closed = 1;
nodes = (
(244,0,l),
(244,500,l),
(144,500,l),
(144,0,l)
);
},
{
closed = 1;
nodes = (
(8,0,l),
(380,0,l),
(380,90,l),
(8,90,l)
);
},
{
closed = 1;
nodes = (
(38,410,l),
(183,410,l),
(183,500,l),
(38,500,l)
);
},
{
closed = 1;
nodes = (
(259,615,l),
(259,755,l),
(129,755,l),
(129,615,l)
);
},
{
closed = 1;
nodes = (
(427,-216,ls),
(554,-216,o),
(637,-158,o),
(637,-70,cs),
(637,500,l),
(537,500,l),
(537,-60,ls),
(537,-106,o),
(494,-136,o),
(427,-136,cs),
(297,-136,l),
(297,-216,l)
);
},
{
closed = 1;
nodes = (
(380,410,l),
(561,410,l),
(561,500,l),
(380,500,l)
);
},
{
closed = 1;
nodes = (
(652,615,l),
(652,755,l),
(522,755,l),
(522,615,l)
);
}
);
width = 660;
},
{
anchors = (
{
name = bottom;
pos = (836,-200);
},
{
name = ogonek;
pos = (424,10);
},
{
name = top;
pos = (1004,745);
}
);
layerId = m003;
shapes = (
{
closed = 1;
nodes = (
(209,0,l),
(279,500,l),
(179,500,l),
(109,0,l)
);
},
{
closed = 1;
nodes = (
(-27,0,l),
(345,0,l),
(357,90,l),
(-15,90,l)
);
},
{
closed = 1;
nodes = (
(60,410,l),
(205,410,l),
(218,500,l),
(73,500,l)
);
},
{
closed = 1;
nodes = (
(310,615,l),
(330,755,l),
(200,755,l),
(180,615,l)
);
},
{
closed = 1;
nodes = (
(362,-216,ls),
(497,-216,o),
(579,-164,o),
(592,-70,cs),
(672,500,l),
(572,500,l),
(494,-60,ls),
(486,-109,o),
(444,-136,o),
(373,-136,cs),
(243,-136,l),
(231,-216,l)
);
},
{
closed = 1;
nodes = (
(402,410,l),
(584,410,l),
(596,500,l),
(415,500,l)
);
},
{
closed = 1;
nodes = (
(704,615,l),
(723,755,l),
(593,755,l),
(574,615,l)
);
}
);
width = 660;
},
{
anchors = (
{
name = bottom;
pos = (894,-200);
},
{
name = ogonek;
pos = (453,10);
},
{
name = top;
pos = (929,745);
}
);
layerId = m004;
shapes = (
{
closed = 1;
nodes = (
(291,-28,l),
(291,528,l),
(87,528,l),
(87,-28,l)
);
},
{
closed = 1;
nodes = (
(-29,-28,l),
(407,-28,l),
(407,142,l),
(-29,142,l)
);
},
{
closed = 1;
nodes = (
(1,358,l),
(230,358,l),
(230,528,l),
(1,528,l)
);
},
{
closed = 1;
nodes = (
(306,575,l),
(306,795,l),
(72,795,l),
(72,575,l)
);
},
{
closed = 1;
nodes = (
(412,-244,ls),
(570,-244,o),
(674,-175,o),
(674,-58,cs),
(674,528,l),
(470,528,l),
(470,-48,ls),
(470,-74,o),
(456,-84,o),
(412,-84,cs),
(230,-84,l),
(230,-244,l)
);
},
{
closed = 1;
nodes = (
(353,358,l),
(598,358,l),
(598,528,l),
(353,528,l)
);
},
{
closed = 1;
nodes = (
(689,575,l),
(689,795,l),
(455,795,l),
(455,575,l)
);
}
);
width = 660;
},
{
anchors = (
{
name = bottom;
pos = (899,-200);
},
{
name = ogonek;
pos = (458,10);
},
{
name = top;
pos = (934,745);
}
);
layerId = m005;
shapes = (
{
closed = 1;
nodes = (
(220,0,l),
(220,500,l),
(168,500,l),
(168,0,l)
);
},
{
closed = 1;
nodes = (
(356,0,l),
(356,58,l),
(32,58,l),
(32,0,l)
);
},
{
closed = 1;
nodes = (
(209,442,l),
(209,500,l),
(62,500,l),
(62,442,l)
);
},
{
closed = 1;
nodes = (
(235,631,l),
(235,739,l),
(153,739,l),
(153,631,l)
);
},
{
closed = 1;
nodes = (
(447,-216,ls),
(547,-216,o),
(613,-160,o),
(613,-76,cs),
(613,500,l),
(561,500,l),
(561,-76,ls),
(561,-132,o),
(516,-168,o),
(447,-168,cs),
(321,-168,l),
(321,-216,l)
);
},
{
closed = 1;
nodes = (
(587,442,l),
(587,500,l),
(404,500,l),
(404,442,l)
);
},
{
closed = 1;
nodes = (
(628,631,l),
(628,739,l),
(546,739,l),
(546,631,l)
);
}
);
width = 660;
}
);
metricLeft = "=|";
metricWidth = A;
unicode = 307;
},
{
glyphname = jdotless;
layers = (
{
anchors = (
{
name = bottom;
pos = (360,-200);
},
{
name = top;
pos = (395,500);
}
);
layerId = m002;
shapes = (
{
closed = 1;
nodes = (
(235,-216,ls),
(362,-216,o),
(445,-158,o),
(445,-70,cs),
(445,500,l),
(345,500,l),
(345,-60,ls),
(345,-106,o),
(302,-136,o),
(235,-136,cs),
(65,-136,l),
(65,-216,l)
);
},
{
closed = 1;
nodes = (
(114,410,l),
(369,410,l),
(369,500,l),
(114,500,l)
);
}
);
width = 660;
},
{
anchors = (
{
name = bottom;
pos = (294,-200);
},
{
name = top;
pos = (427,500);
}
);
layerId = m003;
shapes = (
{
closed = 1;
nodes = (
(166,-216,ls),
(303,-216,o),
(384,-165,o),
(397,-70,cs),
(477,500,l),
(377,500,l),
(298,-60,ls),
(292,-109,o),
(249,-136,o),
(178,-136,cs),
(8,-136,l),
(-4,-216,l)
);
},
{
closed = 1;
nodes = (
(133,410,l),
(388,410,l),
(401,500,l),
(146,500,l)
);
}
);
width = 660;
},
{
anchors = (
{
name = bottom;
pos = (380,-200);
},
{
name = top;
pos = (415,500);
}
);
layerId = m004;
shapes = (
{
closed = 1;
nodes = (
(255,-216,ls),
(415,-216,o),
(517,-144,o),
(517,-30,cs),
(517,500,l),
(313,500,l),
(313,-10,ls),
(313,-38,o),
(290,-56,o),
(255,-56,cs),
(33,-56,l),
(33,-216,l)
);
},
{
closed = 1;
nodes = (
(82,330,l),
(441,330,l),
(441,500,l),
(82,500,l)
);
}
);
width = 660;
},
{
anchors = (
{
name = bottom;
pos = (360,-200);
},
{
name = top;
pos = (395,500);
}
);
layerId = m005;
shapes = (
{
closed = 1;
nodes = (
(255,-216,ls),
(355,-216,o),
(421,-160,o),
(421,-76,cs),
(421,500,l),
(369,500,l),
(369,-76,ls),
(369,-132,o),
(324,-168,o),
(255,-168,cs),
(89,-168,l),
(89,-216,l)
);
},
{
closed = 1;
nodes = (
(138,442,l),
(385,442,l),
(385,500,l),
(138,500,l)
);
}
);
width = 660;
}
);
metricLeft = "=g";
metricWidth = A;
unicode = 567;
},
{
glyphname = k;
layers = (
{
anchors = (
{
name = bottom;
pos = (333,0);
},
{
name = top;
pos = (333,800);
}
);
layerId = m002;
shapes = (
{
closed = 1;
nodes = (
(581,500,l),
(454,500,l),
(159,220,l),
(219,148,l)
);
},
{
closed = 1;
nodes = (
(231,0,l),
(231,720,l),
(131,720,l),
(131,0,l)
);
},
{
closed = 1;
nodes = (
(595,0,l),
(373,330,l),
(281,296,l),
(478,0,l)
);
}
);
width = 660;
},
{
anchors = (
{
name = bottom;
pos = (302,0);
},
{
name = top;
pos = (414,800);
}
);
layerId = m003;
shapes = (
{
closed = 1;
nodes = (
(620,500,l),
(493,500,l),
(159,220,l),
(209,148,l)
);
},
{
closed = 1;
nodes = (
(200,0,l),
(301,720,l),
(201,720,l),
(100,0,l)
);
},
{
closed = 1;
nodes = (
(564,0,l),
(388,330,l),
(291,296,l),
(447,0,l)
);
}
);
width = 660;
},
{
anchors = (
{
name = bottom;
pos = (260,0);
},
{
name = top;
pos = (260,800);
}
);
layerId = m004;
shapes = (
{
closed = 1;
nodes = (
(627,500,l),
(357,500,l),
(43,223,l),
(171,81,l)
);
},
{
closed = 1;
nodes = (
(210,0,l),
(210,720,l),
(6,720,l),
(6,0,l)
);
},
{
closed = 1;
nodes = (
(618,0,l),
(372,362,l),
(197,294,l),
(394,0,l)
);
}
);
width = 660;
},
{
anchors = (
{
name = bottom;
pos = (346,0);
},
{
name = top;
pos = (346,800);
}
);
layerId = m005;
shapes = (
{
closed = 1;
nodes = (
(549,500,l),
(479,500,l),
(200,219,l),
(200,143,l)
);
},
{
closed = 1;
nodes = (
(220,0,l),
(220,720,l),
(168,720,l),
(168,0,l)
);
},
{
closed = 1;
nodes = (
(571,0,l),
(357,337,l),
(324,289,l),
(506,0,l)
);
}
);
width = 660;
}
);
metricRight = "=o";
metricWidth = A;
unicode = 107;
},
{
glyphname = l;
layers = (
{
anchors = (
{
name = bottom;
pos = (360,0);
},
{
name = center;
pos = (302,400);
},
{
name = top;
pos = (491,500);
},
{
name = topright;
pos = (602,800);
}
);
layerId = m002;
shapes = (
{
closed = 1;
nodes = (
(74,630,l),
(269,630,l),
(269,720,l),
(74,720,l)
);
},
{
closed = 1;
nodes = (
(530,0,l),
(530,80,l),
(410,80,ls),
(363,80,o),
(330,107,o),
(330,146,cs),
(330,720,l),
(230,720,l),
(230,136,ls),
(230,57,o),
(293,0,o),
(380,0,cs)
);
}
);
width = 660;
},
{
anchors = (
{
name = bottom;
pos = (325,0);
},
{
name = center;
pos = (323,400);
},
{
name = top;
pos = (526,500);
},
{
name = topright;
pos = (679,800);
}
);
layerId = m003;
shapes = (
{
closed = 1;
nodes = (
(128,630,l),
(323,630,l),
(335,720,l),
(140,720,l)
);
},
{
closed = 1;
nodes = (
(495,0,l),
(506,80,l),
(386,80,ls),
(340,80,o),
(310,108,o),
(316,146,cs),
(396,720,l),
(296,720,l),
(214,136,ls),
(203,58,o),
(259,0,o),
(345,0,cs)
);
}
);
width = 660;
},
{
anchors = (
{
name = bottom;
pos = (381,0);
},
{
name = center;
pos = (323,400);
},
{
name = top;
pos = (512,500);
},
{
name = topright;
pos = (623,800);
}
);
layerId = m004;
shapes = (
{
closed = 1;
nodes = (
(43,550,l),
(342,550,l),
(342,720,l),
(43,720,l)
);
},
{
closed = 1;
nodes = (
(603,0,l),
(603,160,l),
(441,160,ls),
(419,160,o),
(403,175,o),
(403,196,cs),
(403,720,l),
(199,720,l),
(199,176,ls),
(199,72,o),
(282,0,o),
(401,0,cs)
);
}
);
width = 660;
},
{
anchors = (
{
name = bottom;
pos = (354,0);
},
{
name = center;
pos = (296,400);
},
{
name = top;
pos = (485,500);
},
{
name = topright;
pos = (596,800);
}
);
layerId = m005;
shapes = (
{
closed = 1;
nodes = (
(92,656,l),
(279,656,l),
(279,704,l),
(92,704,l)
);
},
{
closed = 1;
nodes = (
(500,0,l),
(500,48,l),
(374,48,ls),
(330,48,o),
(300,77,o),
(300,120,cs),
(300,704,l),
(248,704,l),
(248,120,ls),
(248,48,o),
(299,0,o),
(374,0,cs)
);
}
);
width = 660;
}
);
metricLeft = "=h*0.75";
metricWidth = A;
unicode = 108;
},
{
glyphname = lslash;
layers = (
{
layerId = m002;
shapes = (
{
ref = l;
},
{
closed = 1;
nodes = (
(462,377,l),
(435,452,l),
(134,343,l),
(162,267,l)
);
}
);
width = 660;
},
{
layerId = m003;
shapes = (
{
ref = l;
},
{
closed = 1;
nodes = (
(466,377,l),
(449,452,l),
(133,343,l),
(150,267,l)
);
}
);
width = 660;
},
{
layerId = m004;
shapes = (
{
ref = l;
},
{
closed = 1;
nodes = (
(523,355,l),
(469,509,l),
(73,365,l),
(130,210,l)
);
}
);
width = 660;
},
{
layerId = m005;
shapes = (
{
ref = l;
},
{
closed = 1;
nodes = (
(435,385,l),
(419,428,l),
(162,335,l),
(178,291,l)
);
}
);
width = 660;
}
);
metricLeft = "=l";
metricWidth = A;
unicode = 322;
},
{
glyphname = m;
layers = (
{
anchors = (
{
name = bottom;
pos = (330,0);
},
{
name = top;
pos = (330,500);
}
);
layerId = m002;
shapes = (
{
closed = 1;
nodes = (
(611,0,l),
(611,339,ls),
(611,450,o),
(562,516,o),
(481,516,cs),
(390,516,o),
(324,432,o),
(324,317,c),
(378,254,l),
(378,381,o),
(397,427,o),
(448,426,cs),
(492,425,o),
(513,391,o),
(513,319,cs),
(513,0,l)
);
},
{
closed = 1;
nodes = (
(147,0,l),
(147,420,l),
(137,420,l),
(137,500,l),
(48,500,l),
(48,0,l)
);
},
{
closed = 1;
nodes = (
(378,0,l),
(378,339,ls),
(378,447,o),
(325,516,o),
(243,516,cs),
(154,516,o),
(93,435,o),
(93,317,c),
(147,254,l),
(147,383,o),
(165,428,o),
(217,426,cs),
(261,425,o),
(282,391,o),
(282,319,cs),
(282,0,l)
);
}
);
width = 660;
},
{
anchors = (
{
name = bottom;
pos = (295,0);
},
{
name = top;
pos = (365,500);
}
);
layerId = m003;
shapes = (
{
closed = 1;
nodes = (
(562,0,l),
(609,339,ls),
(625,450,o),
(585,516,o),
(504,516,cs),
(413,516,o),
(336,432,o),
(319,317,c),
(365,254,l),
(382,381,o),
(408,427,o),
(459,426,cs),
(503,425,o),
(519,391,o),
(509,319,cs),
(464,0,l)
);
},
{
closed = 1;
nodes = (
(98,0,l),
(157,420,l),
(147,420,l),
(158,500,l),
(69,500,l),
(-1,0,l)
);
},
{
closed = 1;
nodes = (
(329,0,l),
(376,339,ls),
(392,447,o),
(348,516,o),
(266,516,cs),
(177,516,o),
(105,435,o),
(88,317,c),
(134,254,l),
(152,383,o),
(176,428,o),
(228,426,cs),
(272,425,o),
(288,391,o),
(278,319,cs),
(233,0,l)
);
}
);
width = 660;
},
{
anchors = (
{
name = bottom;
pos = (330,0);
},
{
name = top;
pos = (330,500);
}
);
layerId = m004;
shapes = (
{
closed = 1;
nodes = (
(643,0,l),
(643,309,ls),
(643,438,o),
(584,516,o),
(487,516,cs),
(377,516,o),
(302,415,o),
(302,265,c),
(430,254,l),
(430,337,o),
(432,346,o),
(450,346,cs),
(464,346,o),
(465,342,o),
(465,289,cs),
(465,0,l)
);
},
{
closed = 1;
nodes = (
(218,0,l),
(218,420,l),
(150,420,l),
(150,500,l),
(17,500,l),
(17,0,l)
);
},
{
closed = 1;
nodes = (
(430,0,l),
(430,309,ls),
(430,435,o),
(365,516,o),
(264,516,cs),
(153,516,o),
(81,418,o),
(81,265,c),
(218,254,l),
(218,334,o),
(221,346,o),
(239,346,cs),
(253,346,o),
(254,341,o),
(254,289,cs),
(254,0,l)
);
}
);
width = 660;
},
{
anchors = (
{
name = bottom;
pos = (330,0);
},
{
name = top;
pos = (330,500);
}
);
layerId = m005;
shapes = (
{
closed = 1;
nodes = (
(598,0,l),
(598,355,ls),
(598,452,o),
(544,516,o),
(464,516,cs),
(378,516,o),
(317,442,o),
(317,337,c),
(355,328,l),
(355,413,o),
(396,469,o),
(456,468,cs),
(513,467,o),
(548,416,o),
(548,335,cs),
(548,0,l)
);
},
{
closed = 1;
nodes = (
(113,0,l),
(113,420,l),
(106,420,l),
(106,500,l),
(62,500,l),
(62,0,l)
);
},
{
closed = 1;
nodes = (
(355,0,l),
(355,355,ls),
(355,452,o),
(303,516,o),
(223,516,cs),
(137,516,o),
(75,441,o),
(75,337,c),
(113,328,l),
(113,412,o),
(158,470,o),
(220,468,cs),
(276,467,o),
(307,419,o),
(307,335,cs),
(307,0,l)
);
}
);
width = 660;
}
);
metricLeft = "=|";
metricWidth = A;
unicode = 109;
},
{
glyphname = n;
layers = (
{
anchors = (
{
name = bottom;
pos = (330,0);
},
{
name = top;
pos = (330,500);
}
);
layerId = m002;
shapes = (
{
closed = 1;
nodes = (
(561,0,l),
(561,339,ls),
(561,443,o),
(481,516,o),
(367,516,cs),
(256,516,o),
(173,447,o),
(173,353,c),
(199,280,l),
(199,364,o),
(262,427,o),
(345,426,cs),
(413,425,o),
(461,381,o),
(461,319,cs),
(461,0,l)
);
},
{
closed = 1;
nodes = (
(199,0,l),
(199,500,l),
(99,500,l),
(99,0,l)
);
}
);
width = 660;
},
{
anchors = (
{
name = bottom;
pos = (295,0);
},
{
name = top;
pos = (365,500);
}
);
layerId = m003;
shapes = (
{
closed = 1;
nodes = (
(526,0,l),
(573,339,ls),
(588,442,o),
(514,516,o),
(394,516,cs),
(283,516,o),
(202,453,o),
(187,353,c),
(203,280,l),
(216,370,o),
(278,427,o),
(362,426,cs),
(435,425,o),
(479,381,o),
(471,319,cs),
(426,0,l)
);
},
{
closed = 1;
nodes = (
(164,0,l),
(234,500,l),
(134,500,l),
(64,0,l)
);
}
);
width = 660;
},
{
anchors = (
{
name = bottom;
pos = (330,0);
},
{
name = top;
pos = (330,500);
}
);
layerId = m004;
shapes = (
{
closed = 1;
nodes = (
(603,0,l),
(603,299,ls),
(603,429,o),
(517,516,o),
(388,516,cs),
(259,516,o),
(171,430,o),
(171,302,c),
(261,233,l),
(259,302,o),
(290,347,o),
(339,346,cs),
(376,345,o),
(399,319,o),
(399,279,cs),
(399,0,l)
);
},
{
closed = 1;
nodes = (
(261,0,l),
(261,500,l),
(57,500,l),
(57,0,l)
);
}
);
width = 660;
},
{
anchors = (
{
name = bottom;
pos = (330,0);
},
{
name = top;
pos = (330,500);
}
);
layerId = m005;
shapes = (
{
closed = 1;
nodes = (
(537,0,l),
(537,339,ls),
(537,447,o),
(465,516,o),
(354,516,cs),
(239,516,o),
(158,442,o),
(157,334,c),
(175,280,l),
(175,392,o),
(245,469,o),
(346,468,cs),
(430,467,o),
(485,412,o),
(485,329,cs),
(485,0,l)
);
},
{
closed = 1;
nodes = (
(175,0,l),
(175,500,l),
(123,500,l),
(123,0,l)
);
}
);
width = 660;
}
);
metricLeft = "=|";
metricWidth = A;
unicode = 110;
},
{
glyphname = eng;
layers = (
{
layerId = m002;
shapes = (
{
closed = 1;
nodes = (
(421,-216,ls),
(505,-216,o),
(561,-153,o),
(561,-60,cs),
(561,339,ls),
(561,443,o),
(481,516,o),
(367,516,cs),
(256,516,o),
(173,447,o),
(173,353,c),
(199,280,l),
(199,364,o),
(262,427,o),
(345,426,cs),
(413,425,o),
(461,381,o),
(461,319,cs),
(461,-60,ls),
(461,-105,o),
(433,-136,o),
(391,-136,cs),
(321,-136,l),
(321,-216,l)
);
},
{
closed = 1;
nodes = (
(199,0,l),
(199,500,l),
(99,500,l),
(99,0,l)
);
}
);
width = 660;
},
{
layerId = m003;
shapes = (
{
closed = 1;
nodes = (
(355,-216,ls),
(439,-216,o),
(504,-153,o),
(517,-60,cs),
(573,339,ls),
(588,443,o),
(518,516,o),
(404,516,cs),
(293,516,o),
(201,447,o),
(187,353,c),
(203,280,l),
(215,364,o),
(287,427,o),
(370,426,cs),
(438,425,o),
(479,381,o),
(471,319,cs),
(417,-60,ls),
(411,-105,o),
(379,-136,o),
(337,-136,cs),
(267,-136,l),
(255,-216,l)
);
},
{
closed = 1;
nodes = (
(164,0,l),
(234,500,l),
(134,500,l),
(64,0,l)
);
}
);
width = 660;
},
{
layerId = m004;
shapes = (
{
closed = 1;
nodes = (
(421,-256,ls),
(532,-256,o),
(613,-179,o),
(613,-60,cs),
(613,327,ls),
(613,455,o),
(513,544,o),
(370,544,cs),
(231,544,o),
(136,460,o),
(141,330,c),
(251,261,l),
(249,337,o),
(282,375,o),
(342,374,cs),
(387,373,o),
(409,352,o),
(409,307,cs),
(409,-60,ls),
(409,-94,o),
(407,-96,o),
(391,-96,cs),
(269,-96,l),
(269,-256,l)
);
},
{
closed = 1;
nodes = (
(251,-20,l),
(251,520,l),
(47,520,l),
(47,-20,l)
);
}
);
width = 660;
},
{
layerId = m005;
shapes = (
{
closed = 1;
nodes = (
(401,-200,ls),
(482,-200,o),
(537,-144,o),
(537,-60,cs),
(537,339,ls),
(537,447,o),
(465,516,o),
(354,516,cs),
(239,516,o),
(158,442,o),
(157,334,c),
(175,280,l),
(175,392,o),
(245,469,o),
(346,468,cs),
(430,467,o),
(485,412,o),
(485,329,cs),
(485,-60,ls),
(485,-115,o),
(451,-152,o),
(401,-152,cs),
(345,-152,l),
(345,-200,l)
);
},
{
closed = 1;
nodes = (
(175,0,l),
(175,500,l),
(123,500,l),
(123,0,l)
);
}
);
width = 660;
}
);
metricLeft = "=|";
metricWidth = A;
unicode = 331;
},
{
glyphname = o;
layers = (
{
anchors = (
{
name = bottom;
pos = (330,0);
},
{
name = center;
pos = (330,250);
},
{
name = ogonek;
pos = (594,10);
},
{
name = top;
pos = (330,500);
},
{
name = topright;
pos = (640,500);
}
);
layerId = m002;
shapes = (
{
closed = 1;
nodes = (
(483,-16,o),
(595,96,o),
(595,250,cs),
(595,404,o),
(483,516,o),
(330,516,cs),
(177,516,o),
(65,404,o),
(65,250,cs),
(65,96,o),
(177,-16,o),
(330,-16,cs)
);
},
{
closed = 1;
nodes = (
(234,64,o),
(165,142,o),
(165,250,cs),
(165,358,o),
(234,436,o),
(330,436,cs),
(426,436,o),
(495,358,o),
(495,250,cs),
(495,142,o),
(426,64,o),
(330,64,cs)
);
}
);
width = 660;
},
{
anchors = (
{
name = bottom;
pos = (295,0);
},
{
name = center;
pos = (330,250);
},
{
name = ogonek;
pos = (560,10);
},
{
name = top;
pos = (365,500);
},
{
name = topright;
pos = (675,500);
}
);
layerId = m003;
shapes = (
{
closed = 1;
nodes = (
(479,-16,o),
(598,101,o),
(598,267,cs),
(598,419,o),
(501,516,o),
(349,516,cs),
(180,516,o),
(62,399,o),
(62,233,cs),
(62,81,o),
(159,-16,o),
(311,-16,cs)
);
},
{
closed = 1;
nodes = (
(220,64,o),
(163,127,o),
(163,231,cs),
(163,350,o),
(240,436,o),
(348,436,cs),
(440,436,o),
(497,373,o),
(497,269,cs),
(497,150,o),
(420,64,o),
(312,64,cs)
);
}
);
width = 660;
},
{
anchors = (
{
name = bottom;
pos = (330,0);
},
{
name = center;
pos = (330,250);
},
{
name = ogonek;
pos = (594,10);
},
{
name = top;
pos = (330,500);
},
{
name = topright;
pos = (640,500);
}
);
layerId = m004;
shapes = (
{
closed = 1;
nodes = (
(508,-16,o),
(627,90,o),
(627,250,cs),
(627,410,o),
(508,516,o),
(330,516,cs),
(152,516,o),
(33,410,o),
(33,250,cs),
(33,90,o),
(152,-16,o),
(330,-16,cs)
);
},
{
closed = 1;
nodes = (
(274,144,o),
(237,186,o),
(237,250,cs),
(237,314,o),
(274,356,o),
(330,356,cs),
(386,356,o),
(423,314,o),
(423,250,cs),
(423,186,o),
(386,144,o),
(330,144,cs)
);
}
);
width = 660;
},
{
anchors = (
{
name = bottom;
pos = (330,0);
},
{
name = center;
pos = (330,250);
},
{
name = ogonek;
pos = (594,10);
},
{
name = top;
pos = (330,500);
},
{
name = topright;
pos = (640,500);
}
);
layerId = m005;
shapes = (
{
closed = 1;
nodes = (
(474,-16,o),
(571,91,o),
(571,250,cs),
(571,409,o),
(474,516,o),
(330,516,cs),
(186,516,o),
(89,409,o),
(89,250,cs),
(89,91,o),
(186,-16,o),
(330,-16,cs)
);
},
{
closed = 1;
nodes = (
(216,32,o),
(141,119,o),
(141,250,cs),
(141,381,o),
(216,468,o),
(330,468,cs),
(444,468,o),
(519,381,o),
(519,250,cs),
(519,119,o),
(444,32,o),
(330,32,cs)
);
}
);
width = 660;
}
);
metricLeft = "=|";
metricWidth = A;
unicode = 111;
},
{
glyphname = oslash;
layers = (
{
anchors = (
{
name = top;
pos = (330,500);
}
);
layerId = m002;
shapes = (
{
ref = o;
},
{
closed = 1;
nodes = (
(122,-16,l),
(595,458,l),
(539,515,l),
(65,41,l)
);
}
);
width = 660;
},
{
anchors = (
{
name = top;
pos = (365,500);
}
);
layerId = m003;
shapes = (
{
ref = o;
},
{
closed = 1;
nodes = (
(85,-16,l),
(624,458,l),
(576,515,l),
(36,41,l)
);
}
);
width = 660;
},
{
anchors = (
{
name = top;
pos = (330,500);
}
);
layerId = m004;
shapes = (
{
ref = o;
},
{
closed = 1;
nodes = (
(122,-16,l),
(595,458,l),
(539,515,l),
(65,41,l)
);
}
);
width = 660;
},
{
anchors = (
{
name = top;
pos = (330,500);
}
);
layerId = m005;
shapes = (
{
ref = o;
},
{
closed = 1;
nodes = (
(122,12,l),
(567,458,l),
(539,487,l),
(93,41,l)
);
}
);
width = 660;
}
);
metricLeft = "=|";
metricWidth = A;
unicode = 248;
},
{
glyphname = oe;
layers = (
{
layerId = m002;
shapes = (
{
closed = 1;
nodes = (
(547,-16,o),
(614,43,o),
(629,130,c),
(528,130,l),
(519,91,o),
(491,64,o),
(452,64,cs),
(375,64,o),
(364,154,o),
(364,244,cs),
(364,340,o),
(376,436,o),
(458,436,cs),
(532,436,o),
(533,347,o),
(533,261,c),
(575,300,l),
(304,300,l),
(304,220,l),
(636,220,l),
(636,250,ls),
(636,389,o),
(584,516,o),
(461,516,cs),
(336,516,o),
(284,388,o),
(284,247,cs),
(284,109,o),
(337,-16,o),
(459,-16,cs)
);
},
{
closed = 1;
nodes = (
(305,-16,o),
(364,81,o),
(364,250,cs),
(364,420,o),
(306,516,o),
(203,516,cs),
(95,516,o),
(24,410,o),
(24,250,cs),
(24,90,o),
(95,-16,o),
(203,-16,cs)
);
},
{
closed = 1;
nodes = (
(145,64,o),
(124,113,o),
(124,250,cs),
(124,387,o),
(145,436,o),
(204,436,cs),
(263,436,o),
(284,387,o),
(284,250,cs),
(284,113,o),
(263,64,o),
(204,64,cs)
);
}
);
width = 660;
},
{
layerId = m003;
shapes = (
{
closed = 1;
nodes = (
(535,-16,o),
(594,41,o),
(621,130,c),
(520,130,l),
(509,89,o),
(481,64,o),
(441,64,cs),
(370,64,o),
(366,140,o),
(366,199,cs),
(366,333,o),
(387,436,o),
(477,436,cs),
(559,436,o),
(556,351,o),
(543,261,c),
(591,300,l),
(321,300,l),
(310,220,l),
(641,220,l),
(645,250,ls),
(664,393,o),
(619,516,o),
(488,516,cs),
(347,516,o),
(289,375,o),
(289,222,cs),
(289,86,o),
(335,-16,o),
(449,-16,cs)
);
},
{
closed = 1;
nodes = (
(283,-16,o),
(366,112,o),
(366,285,cs),
(366,428,o),
(310,516,o),
(217,516,cs),
(103,516,o),
(15,385,o),
(15,215,cs),
(15,74,o),
(75,-16,o),
(170,-16,cs)
);
},
{
closed = 1;
nodes = (
(134,64,o),
(112,112,o),
(112,205,cs),
(112,339,o),
(158,436,o),
(219,436,cs),
(264,436,o),
(288,383,o),
(288,291,cs),
(288,162,o),
(241,64,o),
(178,64,cs)
);
}
);
width = 660;
},
{
layerId = m004;
shapes = (
{
closed = 1;
nodes = (
(547,-16,o),
(614,43,o),
(629,130,c),
(528,130,l),
(519,91,o),
(491,64,o),
(452,64,cs),
(375,64,o),
(364,154,o),
(364,244,cs),
(364,340,o),
(376,436,o),
(458,436,cs),
(532,436,o),
(533,347,o),
(533,261,c),
(575,300,l),
(304,300,l),
(304,220,l),
(636,220,l),
(636,250,ls),
(636,389,o),
(584,516,o),
(461,516,cs),
(336,516,o),
(284,388,o),
(284,247,cs),
(284,109,o),
(337,-16,o),
(459,-16,cs)
);
},
{
closed = 1;
nodes = (
(305,-16,o),
(364,81,o),
(364,250,cs),
(364,420,o),
(306,516,o),
(203,516,cs),
(95,516,o),
(24,410,o),
(24,250,cs),
(24,90,o),
(95,-16,o),
(203,-16,cs)
);
},
{
closed = 1;
nodes = (
(145,64,o),
(124,113,o),
(124,250,cs),
(124,387,o),
(145,436,o),
(204,436,cs),
(263,436,o),
(284,387,o),
(284,250,cs),
(284,113,o),
(263,64,o),
(204,64,cs)
);
}
);
width = 660;
},
{
layerId = m005;
shapes = (
{
closed = 1;
nodes = (
(530,0,o),
(582,41,o),
(601,114,c),
(548,114,l),
(534,77,o),
(500,48,o),
(452,48,cs),
(351,48,o),
(340,151,o),
(340,244,cs),
(340,343,o),
(352,452,o),
(458,452,cs),
(540,452,o),
(554,382,o),
(557,310,c),
(529,284,l),
(328,284,l),
(328,236,l),
(612,236,l),
(612,250,ls),
(612,387,o),
(566,500,o),
(461,500,cs),
(354,500,o),
(308,386,o),
(308,247,cs),
(308,111,o),
(355,0,o),
(459,0,cs)
);
},
{
closed = 1;
nodes = (
(289,0,o),
(340,84,o),
(340,250,cs),
(340,417,o),
(290,500,o),
(203,500,cs),
(110,500,o),
(48,407,o),
(48,250,cs),
(48,93,o),
(110,0,o),
(203,0,cs)
);
},
{
closed = 1;
nodes = (
(125,48,o),
(100,107,o),
(100,250,cs),
(100,393,o),
(125,452,o),
(204,452,cs),
(283,452,o),
(308,393,o),
(308,250,cs),
(308,107,o),
(283,48,o),
(204,48,cs)
);
}
);
width = 660;
}
);
metricLeft = "=|";
metricWidth = A;
unicode = 339;
},
{
glyphname = p;
layers = (
{
anchors = (
{
name = bottom;
pos = (345,0);
},
{
name = top;
pos = (345,500);
}
);
layerId = m002;
shapes = (
{
closed = 1;
nodes = (
(502,-16,o),
(595,92,o),
(595,250,cs),
(595,407,o),
(502,516,o),
(368,516,cs),
(249,516,o),
(160,432,o),
(160,320,cs),
(160,180,ls),
(160,68,o),
(249,-16,o),
(368,-16,cs)
);
},
{
closed = 1;
nodes = (
(195,-200,l),
(195,500,l),
(95,500,l),
(95,-200,l)
);
},
{
closed = 1;
nodes = (
(260,64,o),
(195,142,o),
(195,250,cs),
(195,358,o),
(260,436,o),
(349,436,cs),
(436,436,o),
(495,361,o),
(495,250,cs),
(495,139,o),
(436,64,o),
(349,64,cs)
);
}
);
width = 660;
},
{
anchors = (
{
name = bottom;
pos = (303,0);
},
{
name = top;
pos = (373,500);
}
);
layerId = m003;
shapes = (
{
closed = 1;
nodes = (
(495,-16,o),
(597,98,o),
(597,266,cs),
(597,419,o),
(514,516,o),
(385,516,cs),
(270,516,o),
(185,440,o),
(168,320,cs),
(148,180,ls),
(132,67,o),
(214,-16,o),
(343,-16,cs)
);
},
{
closed = 1;
nodes = (
(125,-200,l),
(223,500,l),
(123,500,l),
(25,-200,l)
);
},
{
closed = 1;
nodes = (
(245,64,o),
(191,128,o),
(191,234,cs),
(191,353,o),
(260,436,o),
(357,436,cs),
(443,436,o),
(496,370,o),
(496,262,cs),
(496,142,o),
(431,64,o),
(333,64,cs)
);
}
);
width = 660;
},
{
anchors = (
{
name = bottom;
pos = (320,0);
},
{
name = top;
pos = (320,500);
}
);
layerId = m004;
shapes = (
{
closed = 1;
nodes = (
(528,-16,o),
(627,88,o),
(627,250,cs),
(627,412,o),
(528,516,o),
(375,516,cs),
(241,516,o),
(148,436,o),
(148,320,cs),
(148,180,ls),
(148,64,o),
(241,-16,o),
(375,-16,cs)
);
},
{
closed = 1;
nodes = (
(227,-200,l),
(227,500,l),
(23,500,l),
(23,-200,l)
);
},
{
closed = 1;
nodes = (
(268,144,o),
(227,187,o),
(227,250,cs),
(227,313,o),
(268,356,o),
(326,356,cs),
(384,356,o),
(423,314,o),
(423,250,cs),
(423,186,o),
(384,144,o),
(326,144,cs)
);
}
);
width = 660;
},
{
anchors = (
{
name = bottom;
pos = (345,0);
},
{
name = top;
pos = (345,500);
}
);
layerId = m005;
shapes = (
{
closed = 1;
nodes = (
(487,-16,o),
(571,86,o),
(571,250,cs),
(571,414,o),
(487,516,o),
(354,516,cs),
(236,516,o),
(154,436,o),
(154,320,cs),
(154,180,ls),
(154,64,o),
(236,-16,o),
(354,-16,cs)
);
},
{
closed = 1;
nodes = (
(171,-200,l),
(171,500,l),
(119,500,l),
(119,-200,l)
);
},
{
closed = 1;
nodes = (
(241,32,o),
(171,119,o),
(171,250,cs),
(171,381,o),
(241,468,o),
(347,468,cs),
(452,468,o),
(519,383,o),
(519,250,cs),
(519,117,o),
(452,32,o),
(347,32,cs)
);
}
);
width = 660;
}
);
metricRight = "=o";
metricWidth = A;
unicode = 112;
},
{
glyphname = thorn;
layers = (
{
anchors = (
{
name = bottom;
pos = (345,0);
},
{
name = top;
pos = (345,500);
}
);
layerId = m002;
shapes = (
{
closed = 1;
nodes = (
(513,-16,o),
(595,102,o),
(595,250,cs),
(595,398,o),
(513,516,o),
(365,516,cs),
(246,516,o),
(160,439,o),
(160,320,cs),
(160,180,ls),
(160,61,o),
(246,-16,o),
(365,-16,cs)
);
},
{
closed = 1;
nodes = (
(195,-200,l),
(195,700,l),
(95,700,l),
(95,-200,l)
);
},
{
closed = 1;
nodes = (
(246,64,o),
(195,151,o),
(195,250,cs),
(195,349,o),
(246,436,o),
(345,436,cs),
(444,436,o),
(495,349,o),
(495,250,cs),
(495,151,o),
(444,64,o),
(345,64,cs)
);
}
);
width = 660;
},
{
anchors = (
{
name = bottom;
pos = (304,0);
},
{
name = top;
pos = (374,500);
}
);
layerId = m003;
shapes = (
{
closed = 1;
nodes = (
(495,-16,o),
(597,98,o),
(597,266,cs),
(597,419,o),
(514,516,o),
(385,516,cs),
(270,516,o),
(185,440,o),
(168,320,cs),
(148,180,ls),
(132,67,o),
(214,-16,o),
(343,-16,cs)
);
},
{
closed = 1;
nodes = (
(126,-200,l),
(252,700,l),
(152,700,l),
(26,-200,l)
);
},
{
closed = 1;
nodes = (
(245,64,o),
(191,128,o),
(191,234,cs),
(191,353,o),
(260,436,o),
(357,436,cs),
(443,436,o),
(496,370,o),
(496,262,cs),
(496,142,o),
(431,64,o),
(333,64,cs)
);
}
);
width = 660;
},
{
anchors = (
{
name = bottom;
pos = (325,0);
},
{
name = top;
pos = (325,500);
}
);
layerId = m004;
shapes = (
{
closed = 1;
nodes = (
(513,-44,o),
(627,74,o),
(627,250,cs),
(627,426,o),
(513,544,o),
(353,544,cs),
(215,544,o),
(118,457,o),
(118,320,cs),
(118,180,ls),
(118,43,o),
(215,-44,o),
(353,-44,cs)
);
},
{
closed = 1;
nodes = (
(227,-228,l),
(227,728,l),
(23,728,l),
(23,-228,l)
);
},
{
closed = 1;
nodes = (
(265,116,o),
(227,162,o),
(227,250,cs),
(227,338,o),
(265,384,o),
(327,384,cs),
(388,384,o),
(423,340,o),
(423,250,cs),
(423,160,o),
(388,116,o),
(327,116,cs)
);
}
);
width = 660;
},
{
anchors = (
{
name = bottom;
pos = (345,0);
},
{
name = top;
pos = (345,500);
}
);
layerId = m005;
shapes = (
{
closed = 1;
nodes = (
(487,-16,o),
(571,86,o),
(571,250,cs),
(571,414,o),
(487,516,o),
(354,516,cs),
(236,516,o),
(154,436,o),
(154,320,cs),
(154,180,ls),
(154,64,o),
(236,-16,o),
(354,-16,cs)
);
},
{
closed = 1;
nodes = (
(171,-200,l),
(171,700,l),
(119,700,l),
(119,-200,l)
);
},
{
closed = 1;
nodes = (
(241,32,o),
(171,119,o),
(171,250,cs),
(171,381,o),
(241,468,o),
(347,468,cs),
(452,468,o),
(519,383,o),
(519,250,cs),
(519,117,o),
(452,32,o),
(347,32,cs)
);
}
);
width = 660;
}
);
metricRight = "=o";
metricWidth = A;
unicode = 254;
},
{
glyphname = q;
layers = (
{
anchors = (
{
name = bottom;
pos = (315,0);
},
{
name = top;
pos = (315,500);
}
);
layerId = m002;
shapes = (
{
closed = 1;
nodes = (
(411,-16,o),
(500,68,o),
(500,180,cs),
(500,320,ls),
(500,432,o),
(411,516,o),
(292,516,cs),
(158,516,o),
(65,407,o),
(65,250,cs),
(65,92,o),
(158,-16,o),
(292,-16,cs)
);
},
{
closed = 1;
nodes = (
(224,64,o),
(165,139,o),
(165,250,cs),
(165,361,o),
(224,436,o),
(311,436,cs),
(400,436,o),
(465,358,o),
(465,250,cs),
(465,142,o),
(400,64,o),
(311,64,cs)
);
},
{
closed = 1;
nodes = (
(565,-200,l),
(565,500,l),
(465,500,l),
(465,-200,l)
);
}
);
width = 660;
},
{
anchors = (
{
name = bottom;
pos = (287,0);
},
{
name = top;
pos = (357,500);
}
);
layerId = m003;
shapes = (
{
closed = 1;
nodes = (
(390,-16,o),
(475,60,o),
(492,180,cs),
(512,320,ls),
(528,433,o),
(446,516,o),
(317,516,cs),
(165,516,o),
(63,402,o),
(63,234,cs),
(63,81,o),
(146,-16,o),
(275,-16,cs)
);
},
{
closed = 1;
nodes = (
(216,64,o),
(164,130,o),
(164,238,cs),
(164,357,o),
(229,436,o),
(327,436,cs),
(415,436,o),
(469,372,o),
(469,266,cs),
(469,147,o),
(400,64,o),
(303,64,cs)
);
},
{
closed = 1;
nodes = (
(509,-200,l),
(607,500,l),
(507,500,l),
(409,-200,l)
);
}
);
width = 660;
},
{
anchors = (
{
name = bottom;
pos = (335,0);
},
{
name = top;
pos = (335,500);
}
);
layerId = m004;
shapes = (
{
closed = 1;
nodes = (
(419,-16,o),
(512,64,o),
(512,180,cs),
(512,320,ls),
(512,436,o),
(419,516,o),
(285,516,cs),
(132,516,o),
(33,412,o),
(33,250,cs),
(33,88,o),
(132,-16,o),
(285,-16,cs)
);
},
{
closed = 1;
nodes = (
(276,144,o),
(237,186,o),
(237,250,cs),
(237,314,o),
(276,356,o),
(334,356,cs),
(392,356,o),
(433,313,o),
(433,250,cs),
(433,187,o),
(392,144,o),
(334,144,cs)
);
},
{
closed = 1;
nodes = (
(637,-200,l),
(637,500,l),
(433,500,l),
(433,-200,l)
);
}
);
width = 660;
},
{
anchors = (
{
name = bottom;
pos = (315,0);
},
{
name = top;
pos = (315,500);
}
);
layerId = m005;
shapes = (
{
closed = 1;
nodes = (
(424,-16,o),
(506,64,o),
(506,180,cs),
(506,320,ls),
(506,436,o),
(424,516,o),
(306,516,cs),
(173,516,o),
(89,414,o),
(89,250,cs),
(89,86,o),
(173,-16,o),
(306,-16,cs)
);
},
{
closed = 1;
nodes = (
(208,32,o),
(141,117,o),
(141,250,cs),
(141,383,o),
(208,468,o),
(313,468,cs),
(419,468,o),
(489,381,o),
(489,250,cs),
(489,119,o),
(419,32,o),
(313,32,cs)
);
},
{
closed = 1;
nodes = (
(541,-200,l),
(541,500,l),
(489,500,l),
(489,-200,l)
);
}
);
width = 660;
}
);
metricLeft = "=o";
metricWidth = A;
unicode = 113;
},
{
glyphname = r;
layers = (
{
anchors = (
{
name = bottom;
pos = (330,0);
},
{
name = top;
pos = (330,500);
}
);
layerId = m002;
shapes = (
{
closed = 1;
nodes = (
(330,0,l),
(330,349,l),
(304,349,l),
(304,500,l),
(109,500,l),
(109,410,l),
(230,410,l),
(230,0,l)
);
},
{
closed = 1;
nodes = (
(501,0,l),
(501,90,l),
(79,90,l),
(79,0,l)
);
},
{
closed = 1;
nodes = (
(330,326,o),
(386,410,o),
(474,410,cs),
(581,410,l),
(581,500,l),
(474,500,ls),
(369,500,o),
(294,407,o),
(294,277,c),
(330,194,l)
);
}
);
width = 660;
},
{
anchors = (
{
name = bottom;
pos = (296,0);
},
{
name = top;
pos = (366,500);
}
);
layerId = m003;
shapes = (
{
closed = 1;
nodes = (
(296,0,l),
(345,349,l),
(319,349,l),
(340,500,l),
(145,500,l),
(132,410,l),
(253,410,l),
(196,0,l)
);
},
{
closed = 1;
nodes = (
(467,0,l),
(479,90,l),
(57,90,l),
(45,0,l)
);
},
{
closed = 1;
nodes = (
(343,336,o),
(403,410,o),
(497,410,cs),
(604,410,l),
(617,500,l),
(510,500,ls),
(397,500,o),
(319,417,o),
(299,277,c),
(323,194,l)
);
}
);
width = 660;
},
{
anchors = (
{
name = bottom;
pos = (340,0);
},
{
name = top;
pos = (340,500);
}
);
layerId = m004;
shapes = (
{
closed = 1;
nodes = (
(392,0,l),
(392,349,l),
(336,349,l),
(336,500,l),
(87,500,l),
(87,346,l),
(188,346,l),
(188,0,l)
);
},
{
closed = 1;
nodes = (
(543,0,l),
(543,154,l),
(57,154,l),
(57,0,l)
);
},
{
closed = 1;
nodes = (
(392,313,o),
(426,346,o),
(484,346,cs),
(603,346,l),
(603,500,l),
(484,500,ls),
(359,500,o),
(302,403,o),
(302,273,c),
(392,194,l)
);
}
);
width = 660;
},
{
anchors = (
{
name = bottom;
pos = (330,0);
},
{
name = top;
pos = (330,500);
}
);
layerId = m005;
shapes = (
{
closed = 1;
nodes = (
(306,0,l),
(306,333,l),
(300,333,l),
(300,500,l),
(133,500,l),
(133,452,l),
(254,452,l),
(254,0,l)
);
},
{
closed = 1;
nodes = (
(477,0,l),
(477,48,l),
(103,48,l),
(103,0,l)
);
},
{
closed = 1;
nodes = (
(306,333,o),
(351,452,o),
(474,452,cs),
(557,452,l),
(557,500,l),
(464,500,ls),
(349,500,o),
(290,403,o),
(289,279,c),
(306,194,l)
);
}
);
width = 660;
}
);
metricLeft = "=|";
metricWidth = A;
unicode = 114;
},
{
glyphname = s;
layers = (
{
anchors = (
{
name = bottom;
pos = (330,0);
},
{
name = top;
pos = (330,500);
}
);
layerId = m002;
shapes = (
{
closed = 1;
nodes = (
(474,-16,o),
(564,45,o),
(564,139,cs),
(564,220,o),
(498,280,o),
(397,291,cs),
(308,301,ls),
(247,307,o),
(215,331,o),
(215,369,cs),
(215,413,o),
(259,440,o),
(330,440,cs),
(400,440,o),
(445,413,o),
(456,366,c),
(556,366,l),
(552,458,o),
(466,516,o),
(334,516,cs),
(202,516,o),
(115,457,o),
(115,366,cs),
(115,290,o),
(175,233,o),
(267,223,cs),
(351,214,ls),
(429,204,o),
(464,181,o),
(464,139,cs),
(464,92,o),
(416,64,o),
(338,64,cs),
(256,64,o),
(205,95,o),
(196,149,c),
(96,149,l),
(102,48,o),
(195,-16,o),
(336,-16,cs)
);
}
);
width = 660;
},
{
anchors = (
{
name = bottom;
pos = (294,0);
},
{
name = top;
pos = (364,500);
}
);
layerId = m003;
shapes = (
{
closed = 1;
nodes = (
(459,-16,o),
(549,45,o),
(549,143,cs),
(549,224,o),
(493,281,o),
(402,291,cs),
(314,301,ls),
(258,307,o),
(230,329,o),
(230,366,cs),
(230,412,o),
(277,440,o),
(353,440,cs),
(423,440,o),
(462,416,o),
(471,366,c),
(571,366,l),
(566,462,o),
(487,516,o),
(353,516,cs),
(212,516,o),
(129,460,o),
(129,364,cs),
(129,288,o),
(182,232,o),
(262,223,cs),
(345,214,ls),
(418,206,o),
(448,185,o),
(448,143,cs),
(448,93,o),
(400,64,o),
(317,64,cs),
(233,64,o),
(187,93,o),
(181,149,c),
(81,149,l),
(86,44,o),
(170,-16,o),
(313,-16,cs)
);
}
);
width = 660;
},
{
anchors = (
{
name = bottom;
pos = (329,0);
},
{
name = top;
pos = (329,500);
}
);
layerId = m004;
shapes = (
{
closed = 1;
nodes = (
(512,-16,o),
(605,41,o),
(605,145,cs),
(605,242,o),
(528,308,o),
(402,321,cs),
(312,331,ls),
(287,334,o),
(276,342,o),
(276,357,cs),
(276,375,o),
(287,380,o),
(322,380,cs),
(368,380,o),
(392,369,o),
(398,346,c),
(594,346,l),
(584,456,o),
(489,516,o),
(322,516,cs),
(161,516,o),
(72,460,o),
(72,359,cs),
(72,268,o),
(142,206,o),
(261,193,cs),
(344,184,ls),
(386,180,o),
(401,171,o),
(401,150,cs),
(401,130,o),
(387,124,o),
(345,124,cs),
(285,124,o),
(258,137,o),
(254,169,c),
(55,169,l),
(65,48,o),
(166,-16,o),
(344,-16,cs)
);
}
);
width = 660;
},
{
anchors = (
{
name = bottom;
pos = (329,0);
},
{
name = top;
pos = (329,500);
}
);
layerId = m005;
shapes = (
{
closed = 1;
nodes = (
(459,-16,o),
(539,44,o),
(539,138,cs),
(539,217,o),
(483,269,o),
(383,284,cs),
(294,297,ls),
(225,307,o),
(190,335,o),
(190,382,cs),
(190,439,o),
(242,472,o),
(331,472,cs),
(416,472,o),
(465,441,o),
(475,382,c),
(529,382,l),
(516,468,o),
(446,516,o),
(332,516,cs),
(212,516,o),
(138,464,o),
(138,379,cs),
(138,307,o),
(191,260,o),
(282,249,cs),
(367,238,ls),
(445,228,o),
(487,194,o),
(487,139,cs),
(487,73,o),
(427,32,o),
(332,32,cs),
(245,32,o),
(190,67,o),
(175,133,c),
(121,133,l),
(136,39,o),
(214,-16,o),
(333,-16,cs)
);
}
);
width = 660;
}
);
metricLeft = "=|";
metricWidth = A;
unicode = 115;
},
{
glyphname = germandbls;
layers = (
{
anchors = (
{
name = bottom;
pos = (346,0);
},
{
name = top;
pos = (346,800);
}
);
layerId = m002;
shapes = (
{
closed = 1;
nodes = (
(219,0,l),
(219,479,ls),
(219,564,o),
(263,620,o),
(328,620,cs),
(383,620,o),
(419,581,o),
(419,522,cs),
(419,462,o),
(381,414,o),
(325,405,c),
(325,325,l),
(413,325,o),
(473,274,o),
(473,199,cs),
(473,130,o),
(420,80,o),
(345,80,cs),
(302,80,l),
(302,0,l),
(365,0,ls),
(487,0,o),
(573,80,o),
(573,193,cs),
(573,304,o),
(490,381,o),
(371,381,c),
(371,358,l),
(459,368,o),
(519,437,o),
(519,528,cs),
(519,630,o),
(442,700,o),
(330,700,cs),
(206,700,o),
(119,613,o),
(119,489,cs),
(119,0,l)
);
}
);
width = 660;
},
{
anchors = (
{
name = bottom;
pos = (311,0);
},
{
name = top;
pos = (423,800);
}
);
layerId = m003;
shapes = (
{
closed = 1;
nodes = (
(184,0,l),
(251,479,ls),
(263,565,o),
(314,620,o),
(381,620,cs),
(431,620,o),
(458,590,o),
(458,535,cs),
(458,466,o),
(415,416,o),
(347,405,c),
(335,325,l),
(418,325,o),
(467,284,o),
(467,214,cs),
(467,136,o),
(406,80,o),
(321,80,cs),
(278,80,l),
(267,0,l),
(321,0,ls),
(466,0,o),
(567,88,o),
(567,213,cs),
(567,316,o),
(499,381,o),
(389,381,c),
(386,358,l),
(489,358,o),
(560,431,o),
(560,535,cs),
(560,637,o),
(492,700,o),
(384,700,cs),
(261,700,o),
(171,618,o),
(153,489,cs),
(84,0,l)
);
}
);
width = 660;
},
{
anchors = (
{
name = bottom;
pos = (367,0);
},
{
name = top;
pos = (367,800);
}
);
layerId = m004;
shapes = (
{
closed = 1;
nodes = (
(272,-28,l),
(272,479,ls),
(272,538,o),
(294,568,o),
(338,568,cs),
(373,568,o),
(388,554,o),
(388,513,cs),
(388,456,o),
(355,432,o),
(294,449,c),
(294,283,l),
(385,289,o),
(442,271,o),
(442,204,cs),
(442,155,o),
(416,132,o),
(366,132,cs),
(271,132,l),
(271,-28,l),
(386,-28,ls),
(532,-28,o),
(646,57,o),
(646,195,cs),
(646,351,o),
(501,419,o),
(340,409,c),
(340,329,l),
(481,315,o),
(592,391,o),
(592,523,cs),
(592,657,o),
(478,728,o),
(341,728,cs),
(189,728,o),
(68,639,o),
(68,489,cs),
(68,-28,l)
);
}
);
width = 660;
},
{
anchors = (
{
name = bottom;
pos = (351,0);
},
{
name = top;
pos = (351,800);
}
);
layerId = m005;
shapes = (
{
closed = 1;
nodes = (
(200,0,l),
(200,479,ls),
(200,584,o),
(252,652,o),
(333,652,cs),
(404,652,o),
(448,602,o),
(448,520,cs),
(448,447,o),
(413,401,o),
(354,394,c),
(354,340,l),
(442,340,o),
(502,281,o),
(502,193,cs),
(502,107,o),
(445,48,o),
(360,48,cs),
(311,48,l),
(311,0,l),
(360,0,ls),
(476,0,o),
(554,77,o),
(554,191,cs),
(554,301,o),
(481,374,o),
(373,374,c),
(373,364,l),
(442,364,o),
(500,441,o),
(500,532,cs),
(500,631,o),
(432,700,o),
(333,700,cs),
(222,700,o),
(148,615,o),
(148,489,cs),
(148,0,l)
);
}
);
width = 660;
}
);
metricLeft = "=h*1.2";
metricWidth = A;
unicode = 223;
},
{
glyphname = t;
layers = (
{
anchors = (
{
name = bottom;
pos = (370,0);
},
{
name = center;
pos = (330,250);
},
{
name = top;
pos = (520,500);
},
{
name = topright;
pos = (630,800);
}
);
layerId = m002;
shapes = (
{
closed = 1;
nodes = (
(535,0,l),
(535,80,l),
(415,80,ls),
(368,80,o),
(335,107,o),
(335,146,cs),
(335,660,l),
(235,660,l),
(235,136,ls),
(235,57,o),
(298,0,o),
(385,0,cs)
);
},
{
closed = 1;
nodes = (
(535,420,l),
(535,500,l),
(105,500,l),
(105,420,l)
);
}
);
width = 660;
},
{
anchors = (
{
name = bottom;
pos = (321,0);
},
{
name = center;
pos = (316,250);
},
{
name = top;
pos = (541,500);
},
{
name = topright;
pos = (693,800);
}
);
layerId = m003;
shapes = (
{
closed = 1;
nodes = (
(486,0,l),
(497,80,l),
(377,80,ls),
(331,80,o),
(301,108,o),
(306,146,cs),
(379,660,l),
(279,660,l),
(205,136,ls),
(194,58,o),
(250,0,o),
(336,0,cs)
);
},
{
closed = 1;
nodes = (
(545,420,l),
(556,500,l),
(126,500,l),
(115,420,l)
);
}
);
width = 660;
},
{
anchors = (
{
name = bottom;
pos = (370,0);
},
{
name = center;
pos = (330,250);
},
{
name = top;
pos = (520,500);
},
{
name = topright;
pos = (630,800);
}
);
layerId = m004;
shapes = (
{
closed = 1;
nodes = (
(577,0,l),
(577,160,l),
(415,160,ls),
(398,160,o),
(387,171,o),
(387,186,cs),
(387,660,l),
(183,660,l),
(183,176,ls),
(183,70,o),
(263,0,o),
(385,0,cs)
);
},
{
closed = 1;
nodes = (
(577,340,l),
(577,500,l),
(63,500,l),
(63,340,l)
);
}
);
width = 660;
},
{
anchors = (
{
name = bottom;
pos = (370,0);
},
{
name = center;
pos = (330,250);
},
{
name = top;
pos = (520,500);
},
{
name = topright;
pos = (630,800);
}
);
layerId = m005;
shapes = (
{
closed = 1;
nodes = (
(511,0,l),
(511,48,l),
(385,48,ls),
(341,48,o),
(311,77,o),
(311,120,cs),
(311,660,l),
(259,660,l),
(259,120,ls),
(259,48,o),
(310,0,o),
(385,0,cs)
);
},
{
closed = 1;
nodes = (
(511,436,l),
(511,484,l),
(129,484,l),
(129,436,l)
);
}
);
width = 660;
}
);
metricWidth = A;
unicode = 116;
},
{
glyphname = tbar;
layers = (
{
layerId = m002;
shapes = (
{
ref = t;
},
{
closed = 1;
nodes = (
(535,230,l),
(535,310,l),
(105,310,l),
(105,230,l)
);
}
);
width = 660;
},
{
layerId = m003;
shapes = (
{
ref = t;
},
{
closed = 1;
nodes = (
(518,230,l),
(529,310,l),
(99,310,l),
(88,230,l)
);
}
);
width = 660;
},
{
layerId = m004;
shapes = (
{
pos = (-10,0);
ref = t;
},
{
closed = 1;
nodes = (
(577,190,l),
(577,350,l),
(43,350,l),
(43,190,l)
);
}
);
width = 660;
},
{
layerId = m005;
shapes = (
{
ref = t;
},
{
closed = 1;
nodes = (
(511,246,l),
(511,294,l),
(129,294,l),
(129,246,l)
);
}
);
width = 660;
}
);
metricRight = "=t";
metricWidth = A;
unicode = 359;
},
{
glyphname = u;
layers = (
{
anchors = (
{
name = bottom;
pos = (330,0);
},
{
name = ogonek;
pos = (569,10);
},
{
name = top;
pos = (330,500);
},
{
name = topright;
pos = (640,500);
}
);
layerId = m002;
shapes = (
{
closed = 1;
nodes = (
(404,-16,o),
(487,53,o),
(487,147,c),
(461,220,l),
(461,136,o),
(398,73,o),
(315,74,cs),
(247,75,o),
(199,119,o),
(199,181,cs),
(199,500,l),
(99,500,l),
(99,161,ls),
(99,57,o),
(179,-16,o),
(293,-16,cs)
);
},
{
closed = 1;
nodes = (
(561,0,l),
(561,500,l),
(461,500,l),
(461,0,l)
);
}
);
width = 660;
},
{
anchors = (
{
name = bottom;
pos = (295,0);
},
{
name = ogonek;
pos = (560,10);
},
{
name = top;
pos = (365,500);
},
{
name = topright;
pos = (675,500);
}
);
layerId = m003;
shapes = (
{
closed = 1;
nodes = (
(378,-16,o),
(458,48,o),
(472,147,c),
(457,220,l),
(444,130,o),
(382,73,o),
(298,74,cs),
(225,75,o),
(181,119,o),
(189,181,cs),
(234,500,l),
(134,500,l),
(86,161,ls),
(72,57,o),
(146,-16,o),
(266,-16,cs)
);
},
{
closed = 1;
nodes = (
(526,0,l),
(596,500,l),
(496,500,l),
(426,0,l)
);
}
);
width = 660;
},
{
anchors = (
{
name = bottom;
pos = (330,0);
},
{
name = ogonek;
pos = (569,10);
},
{
name = top;
pos = (330,500);
},
{
name = topright;
pos = (640,500);
}
);
layerId = m004;
shapes = (
{
closed = 1;
nodes = (
(401,-16,o),
(489,70,o),
(489,198,c),
(399,267,l),
(401,198,o),
(370,153,o),
(321,154,cs),
(284,155,o),
(261,181,o),
(261,221,cs),
(261,500,l),
(57,500,l),
(57,201,ls),
(57,71,o),
(143,-16,o),
(272,-16,cs)
);
},
{
closed = 1;
nodes = (
(603,0,l),
(603,500,l),
(399,500,l),
(399,0,l)
);
}
);
width = 660;
},
{
anchors = (
{
name = bottom;
pos = (330,0);
},
{
name = ogonek;
pos = (569,10);
},
{
name = top;
pos = (330,500);
},
{
name = topright;
pos = (640,500);
}
);
layerId = m005;
shapes = (
{
closed = 1;
nodes = (
(421,-16,o),
(502,58,o),
(503,166,c),
(485,220,l),
(485,108,o),
(415,31,o),
(314,32,cs),
(230,33,o),
(175,88,o),
(175,171,cs),
(175,500,l),
(123,500,l),
(123,161,ls),
(123,53,o),
(195,-16,o),
(306,-16,cs)
);
},
{
closed = 1;
nodes = (
(537,0,l),
(537,500,l),
(485,500,l),
(485,0,l)
);
}
);
width = 660;
}
);
metricLeft = "=|";
metricWidth = A;
unicode = 117;
},
{
glyphname = v;
layers = (
{
anchors = (
{
name = bottom;
pos = (330,0);
},
{
name = top;
pos = (330,500);
}
);
layerId = m002;
shapes = (
{
closed = 1;
nodes = (
(393,0,l),
(573,500,l),
(473,500,l),
(293,0,l)
);
},
{
closed = 1;
nodes = (
(367,0,l),
(187,500,l),
(87,500,l),
(267,0,l)
);
}
);
width = 660;
},
{
anchors = (
{
name = bottom;
pos = (295,0);
},
{
name = top;
pos = (365,500);
}
);
layerId = m003;
shapes = (
{
closed = 1;
nodes = (
(358,0,l),
(608,500,l),
(508,500,l),
(258,0,l)
);
},
{
closed = 1;
nodes = (
(332,0,l),
(222,500,l),
(122,500,l),
(232,0,l)
);
}
);
width = 660;
},
{
anchors = (
{
name = bottom;
pos = (330,0);
},
{
name = top;
pos = (330,500);
}
);
layerId = m004;
shapes = (
{
closed = 1;
nodes = (
(442,-28,l),
(642,528,l),
(434,528,l),
(234,-28,l)
);
},
{
closed = 1;
nodes = (
(426,-28,l),
(226,528,l),
(18,528,l),
(218,-28,l)
);
}
);
width = 660;
},
{
anchors = (
{
name = bottom;
pos = (335,0);
},
{
name = top;
pos = (335,500);
}
);
layerId = m005;
shapes = (
{
closed = 1;
nodes = (
(369,0,l),
(548,500,l),
(497,500,l),
(318,0,l)
);
},
{
closed = 1;
nodes = (
(342,0,l),
(163,500,l),
(112,500,l),
(291,0,l)
);
}
);
width = 660;
}
);
metricLeft = "=|";
metricWidth = A;
unicode = 118;
},
{
glyphname = w;
layers = (
{
anchors = (
{
name = bottom;
pos = (330,0);
},
{
name = top;
pos = (330,500);
}
);
layerId = m002;
shapes = (
{
closed = 1;
nodes = (
(521,0,l),
(611,500,l),
(524,500,l),
(434,0,l)
);
},
{
closed = 1;
nodes = (
(226,0,l),
(136,500,l),
(49,500,l),
(139,0,l)
);
},
{
closed = 1;
nodes = (
(240,0,l),
(375,500,l),
(296,500,l),
(161,0,l)
);
},
{
closed = 1;
nodes = (
(497,0,l),
(373,500,l),
(294,500,l),
(418,0,l)
);
}
);
width = 660;
},
{
anchors = (
{
name = bottom;
pos = (295,0);
},
{
name = top;
pos = (365,500);
}
);
layerId = m003;
shapes = (
{
closed = 1;
nodes = (
(486,0,l),
(646,500,l),
(559,500,l),
(399,0,l)
);
},
{
closed = 1;
nodes = (
(191,0,l),
(171,500,l),
(84,500,l),
(104,0,l)
);
},
{
closed = 1;
nodes = (
(205,0,l),
(410,500,l),
(331,500,l),
(126,0,l)
);
},
{
closed = 1;
nodes = (
(462,0,l),
(408,500,l),
(329,500,l),
(383,0,l)
);
}
);
width = 660;
},
{
anchors = (
{
name = bottom;
pos = (326,0);
},
{
name = top;
pos = (326,500);
}
);
layerId = m004;
shapes = (
{
closed = 1;
nodes = (
(591,-28,l),
(673,528,l),
(482,528,l),
(400,-28,l)
);
},
{
closed = 1;
nodes = (
(260,-28,l),
(178,528,l),
(-13,528,l),
(69,-28,l)
);
},
{
closed = 1;
nodes = (
(268,-28,l),
(425,528,l),
(250,528,l),
(93,-28,l)
);
},
{
closed = 1;
nodes = (
(564,-28,l),
(419,528,l),
(245,528,l),
(390,-28,l)
);
}
);
width = 660;
},
{
anchors = (
{
name = bottom;
pos = (335,0);
},
{
name = top;
pos = (335,500);
}
);
layerId = m005;
shapes = (
{
closed = 1;
nodes = (
(513,0,l),
(597,500,l),
(548,500,l),
(464,0,l)
);
},
{
closed = 1;
nodes = (
(196,0,l),
(112,500,l),
(63,500,l),
(147,0,l)
);
},
{
closed = 1;
nodes = (
(225,0,l),
(351,500,l),
(308,500,l),
(182,0,l)
);
},
{
closed = 1;
nodes = (
(477,0,l),
(361,500,l),
(317,500,l),
(433,0,l)
);
}
);
width = 660;
}
);
metricLeft = "=|";
metricWidth = A;
unicode = 119;
},
{
glyphname = x;
layers = (
{
anchors = (
{
name = bottom;
pos = (330,0);
},
{
name = top;
pos = (330,500);
}
);
layerId = m002;
shapes = (
{
closed = 1;
nodes = (
(201,0,l),
(572,500,l),
(459,500,l),
(88,0,l)
);
},
{
closed = 1;
nodes = (
(572,0,l),
(201,500,l),
(88,500,l),
(459,0,l)
);
}
);
width = 660;
},
{
anchors = (
{
name = bottom;
pos = (295,0);
},
{
name = top;
pos = (365,500);
}
);
layerId = m003;
shapes = (
{
closed = 1;
nodes = (
(169,0,l),
(609,500,l),
(491,500,l),
(51,0,l)
);
},
{
closed = 1;
nodes = (
(539,0,l),
(239,500,l),
(121,500,l),
(421,0,l)
);
}
);
width = 660;
},
{
anchors = (
{
name = bottom;
pos = (330,0);
},
{
name = top;
pos = (330,500);
}
);
layerId = m004;
shapes = (
{
closed = 1;
nodes = (
(223,-28,l),
(654,528,l),
(427,528,l),
(-4,-28,l)
);
},
{
closed = 1;
nodes = (
(664,-28,l),
(233,528,l),
(6,528,l),
(437,-28,l)
);
}
);
width = 660;
},
{
anchors = (
{
name = bottom;
pos = (330,0);
},
{
name = top;
pos = (330,500);
}
);
layerId = m005;
shapes = (
{
closed = 1;
nodes = (
(175,0,l),
(541,500,l),
(485,500,l),
(119,0,l)
);
},
{
closed = 1;
nodes = (
(541,0,l),
(175,500,l),
(119,500,l),
(485,0,l)
);
}
);
width = 660;
}
);
metricLeft = "=|";
metricWidth = A;
unicode = 120;
},
{
glyphname = y;
layers = (
{
anchors = (
{
name = bottom;
pos = (330,0);
},
{
name = top;
pos = (330,500);
}
);
layerId = m002;
shapes = (
{
closed = 1;
nodes = (
(165,-216,ls),
(244,-216,o),
(300,-184,o),
(324,-126,cs),
(582,500,l),
(480,500,l),
(238,-74,ls),
(221,-114,o),
(194,-136,o),
(160,-136,cs),
(100,-136,l),
(100,-216,l)
);
},
{
closed = 1;
nodes = (
(369,0,l),
(178,500,l),
(78,500,l),
(269,0,l)
);
}
);
width = 660;
},
{
anchors = (
{
name = bottom;
pos = (295,0);
},
{
name = top;
pos = (365,500);
}
);
layerId = m003;
shapes = (
{
closed = 1;
nodes = (
(99,-216,ls),
(182,-216,o),
(238,-187,o),
(271,-126,cs),
(617,500,l),
(515,500,l),
(192,-74,ls),
(168,-117,o),
(141,-136,o),
(106,-136,cs),
(46,-136,l),
(34,-216,l)
);
},
{
closed = 1;
nodes = (
(334,0,l),
(213,500,l),
(113,500,l),
(234,0,l)
);
}
);
width = 660;
},
{
anchors = (
{
name = bottom;
pos = (329,0);
},
{
name = top;
pos = (329,500);
}
);
layerId = m004;
shapes = (
{
closed = 1;
nodes = (
(164,-244,ls),
(260,-244,o),
(338,-204,o),
(370,-130,cs),
(652,528,l),
(442,528,l),
(190,-46,ls),
(175,-82,o),
(173,-84,o),
(159,-84,cs),
(47,-84,l),
(47,-244,l)
);
},
{
closed = 1;
nodes = (
(432,-28,l),
(216,528,l),
(8,528,l),
(224,-28,l)
);
}
);
width = 660;
},
{
anchors = (
{
name = bottom;
pos = (329,0);
},
{
name = top;
pos = (329,500);
}
);
layerId = m005;
shapes = (
{
closed = 1;
nodes = (
(164,-216,ls),
(234,-216,o),
(282,-188,o),
(303,-136,cs),
(562,500,l),
(507,500,l),
(250,-118,ls),
(236,-151,o),
(206,-168,o),
(164,-168,cs),
(123,-168,l),
(123,-216,l)
);
},
{
closed = 1;
nodes = (
(351,0,l),
(150,500,l),
(98,500,l),
(299,0,l)
);
}
);
width = 660;
}
);
metricLeft = "=|";
metricWidth = A;
unicode = 121;
},
{
glyphname = z;
layers = (
{
anchors = (
{
name = bottom;
pos = (330,0);
},
{
name = center;
pos = (330,250);
},
{
name = top;
pos = (330,500);
}
);
layerId = m002;
shapes = (
{
closed = 1;
nodes = (
(539,410,l),
(429,420,l),
(121,90,l),
(231,80,l)
);
},
{
closed = 1;
nodes = (
(539,0,l),
(539,80,l),
(231,80,l),
(231,90,l),
(121,90,l),
(121,0,l)
);
},
{
closed = 1;
nodes = (
(539,410,l),
(539,500,l),
(121,500,l),
(121,420,l),
(429,420,l),
(429,410,l)
);
}
);
width = 660;
},
{
anchors = (
{
name = bottom;
pos = (296,0);
},
{
name = center;
pos = (331,250);
},
{
name = top;
pos = (366,500);
}
);
layerId = m003;
shapes = (
{
closed = 1;
nodes = (
(562,410,l),
(454,420,l),
(99,90,l),
(208,80,l)
);
},
{
closed = 1;
nodes = (
(505,0,l),
(516,80,l),
(208,80,l),
(209,90,l),
(99,90,l),
(87,0,l)
);
},
{
closed = 1;
nodes = (
(562,410,l),
(575,500,l),
(157,500,l),
(146,420,l),
(454,420,l),
(452,410,l)
);
}
);
width = 660;
},
{
anchors = (
{
name = bottom;
pos = (330,0);
},
{
name = center;
pos = (330,250);
},
{
name = top;
pos = (330,500);
}
);
layerId = m004;
shapes = (
{
closed = 1;
nodes = (
(626,408,l),
(396,430,l),
(34,92,l),
(264,70,l)
);
},
{
closed = 1;
nodes = (
(591,-28,l),
(591,132,l),
(283,132,l),
(283,142,l),
(69,142,l),
(69,-28,l)
);
},
{
closed = 1;
nodes = (
(591,358,l),
(591,528,l),
(69,528,l),
(69,368,l),
(377,368,l),
(377,358,l)
);
}
);
width = 660;
},
{
anchors = (
{
name = bottom;
pos = (325,0);
},
{
name = center;
pos = (325,250);
},
{
name = top;
pos = (325,500);
}
);
layerId = m005;
shapes = (
{
closed = 1;
nodes = (
(520,447,l),
(462,452,l),
(140,53,l),
(197,48,l)
);
},
{
closed = 1;
nodes = (
(520,0,l),
(520,48,l),
(197,48,l),
(197,53,l),
(140,53,l),
(140,0,l)
);
},
{
closed = 1;
nodes = (
(520,447,l),
(520,500,l),
(140,500,l),
(140,452,l),
(462,452,l),
(462,447,l)
);
}
);
width = 660;
}
);
metricLeft = "=|";
metricWidth = A;
unicode = 122;
},
{
glyphname = Delta;
layers = (
{
layerId = m002;
name = Regular;
shapes = (
{
closed = 1;
nodes = (
(655,0,l),
(401,700,l),
(295,700,l),
(549,0,l)
);
},
{
closed = 1;
nodes = (
(595,0,l),
(595,90,l),
(65,90,l),
(65,0,l)
);
},
{
closed = 1;
nodes = (
(111,0,l),
(365,700,l),
(259,700,l),
(5,0,l)
);
}
);
width = 660;
},
{
layerId = m004;
name = Regular;
shapes = (
{
closed = 1;
nodes = (
(724,-40,l),
(440,740,l),
(226,740,l),
(510,-40,l)
);
},
{
closed = 1;
nodes = (
(647,-40,l),
(647,130,l),
(13,130,l),
(13,-40,l)
);
},
{
closed = 1;
nodes = (
(150,-40,l),
(434,740,l),
(220,740,l),
(-64,-40,l)
);
}
);
width = 660;
},
{
layerId = m005;
name = Regular;
shapes = (
{
closed = 1;
nodes = (
(625,16,l),
(382,684,l),
(325,684,l),
(568,16,l)
);
},
{
closed = 1;
nodes = (
(571,16,l),
(571,74,l),
(89,74,l),
(89,16,l)
);
},
{
closed = 1;
nodes = (
(92,16,l),
(335,684,l),
(278,684,l),
(35,16,l)
);
}
);
width = 660;
},
{
associatedMasterId = m002;
layerId = "2A23A498-F7CD-42D2-B830-35739478EE3D";
name = "Light Ekstra Italic";
shapes = (
{
closed = 1;
nodes = (
(513,0,l),
(486,700,l),
(391,700,l),
(-36,0,l)
);
},
{
closed = 1;
nodes = (
(430,652,l),
(453,55,l),
(65,54,l)
);
}
);
width = 621;
},
{
associatedMasterId = m002;
layerId = "C25418E1-3780-4EF1-AA02-D57C429AD772";
name = "Extra Bold  Ekstra Italic";
shapes = (
{
closed = 1;
nodes = (
(653,0,l),
(610,700,l),
(391,700,l),
(-52,0,l)
);
},
{
closed = 1;
nodes = (
(477,589,l),
(506,119,l),
(179,118,l)
);
}
);
width = 745;
},
{
layerId = m003;
name = Regular;
shapes = (
{
closed = 1;
nodes = (
(620,0,l),
(464,700,l),
(358,700,l),
(514,0,l)
);
},
{
closed = 1;
nodes = (
(560,0,l),
(572,90,l),
(42,90,l),
(30,0,l)
);
},
{
closed = 1;
nodes = (
(76,0,l),
(428,700,l),
(322,700,l),
(-30,0,l)
);
}
);
width = 660;
},
{
associatedMasterId = m003;
layerId = "A1DCA166-E00D-482F-98F1-AEDF19336F8C";
name = "Extra Bold";
shapes = (
{
closed = 1;
nodes = (
(721,0,l),
(478,700,l),
(263,700,l),
(20,0,l)
);
},
{
closed = 1;
nodes = (
(371,595,l),
(536,119,l),
(205,118,l)
);
}
);
width = 741;
},
{
associatedMasterId = m003;
layerId = "EEFB5C47-8F72-400A-896D-CDEB8D1039B8";
name = "Regular Ekstra Italic";
shapes = (
{
closed = 1;
nodes = (
(545,0,l),
(516,700,l),
(387,700,l),
(-42,0,l)
);
},
{
closed = 1;
nodes = (
(442,640,l),
(466,75,l),
(95,74,l)
);
}
);
width = 647;
},
{
associatedMasterId = m003;
layerId = "15AA8927-EADB-4758-A860-29946BF54906";
name = "Light Ekstra Italic";
shapes = (
{
closed = 1;
nodes = (
(513,0,l),
(486,700,l),
(391,700,l),
(-36,0,l)
);
},
{
closed = 1;
nodes = (
(430,652,l),
(453,55,l),
(65,54,l)
);
}
);
width = 621;
},
{
associatedMasterId = m003;
layerId = "9B88A1CA-BF1A-4F3E-B20C-AB8FD6D48B6A";
name = "Extra Bold  Ekstra Italic";
shapes = (
{
closed = 1;
nodes = (
(653,0,l),
(610,700,l),
(391,700,l),
(-52,0,l)
);
},
{
closed = 1;
nodes = (
(477,589,l),
(506,119,l),
(179,118,l)
);
}
);
width = 745;
},
{
associatedMasterId = m004;
layerId = "25D2975D-AAC8-48E0-842A-92DC04F8F372";
name = "Extra Bold";
shapes = (
{
closed = 1;
nodes = (
(721,0,l),
(478,700,l),
(263,700,l),
(20,0,l)
);
},
{
closed = 1;
nodes = (
(371,595,l),
(536,119,l),
(205,118,l)
);
}
);
width = 741;
},
{
associatedMasterId = m004;
layerId = "C2959521-38F9-4371-A0DE-082B9FC6CC58";
name = "Regular Ekstra Italic";
shapes = (
{
closed = 1;
nodes = (
(545,0,l),
(516,700,l),
(387,700,l),
(-42,0,l)
);
},
{
closed = 1;
nodes = (
(442,640,l),
(466,75,l),
(95,74,l)
);
}
);
width = 647;
},
{
associatedMasterId = m004;
layerId = "93183CEB-3238-46C7-8431-7FEF47EBF432";
name = "Light Ekstra Italic";
shapes = (
{
closed = 1;
nodes = (
(513,0,l),
(486,700,l),
(391,700,l),
(-36,0,l)
);
},
{
closed = 1;
nodes = (
(430,652,l),
(453,55,l),
(65,54,l)
);
}
);
width = 621;
},
{
associatedMasterId = m004;
layerId = "32C6612F-6D9B-48DC-B439-E71120368A24";
name = "Extra Bold  Ekstra Italic";
shapes = (
{
closed = 1;
nodes = (
(653,0,l),
(610,700,l),
(391,700,l),
(-52,0,l)
);
},
{
closed = 1;
nodes = (
(477,589,l),
(506,119,l),
(179,118,l)
);
}
);
width = 745;
},
{
associatedMasterId = m005;
layerId = "F8819905-C94F-4268-868E-A0DB43BCC45F";
name = "Regular Ekstra Italic";
shapes = (
{
closed = 1;
nodes = (
(545,0,l),
(516,700,l),
(387,700,l),
(-42,0,l)
);
},
{
closed = 1;
nodes = (
(442,640,l),
(466,75,l),
(95,74,l)
);
}
);
width = 647;
},
{
associatedMasterId = m005;
layerId = "3F510007-5055-40EF-B97F-D55E8EBB3B95";
name = "Light Ekstra Italic";
shapes = (
{
closed = 1;
nodes = (
(513,0,l),
(486,700,l),
(391,700,l),
(-36,0,l)
);
},
{
closed = 1;
nodes = (
(430,652,l),
(453,55,l),
(65,54,l)
);
}
);
width = 621;
},
{
associatedMasterId = m005;
layerId = "FBA26BF7-04FA-4E58-9042-9F3E8E6E33EC";
name = "Extra Bold  Ekstra Italic";
shapes = (
{
closed = 1;
nodes = (
(653,0,l),
(610,700,l),
(391,700,l),
(-52,0,l)
);
},
{
closed = 1;
nodes = (
(477,589,l),
(506,119,l),
(179,118,l)
);
}
);
width = 745;
}
);
metricLeft = "=|";
metricWidth = A;
unicode = 916;
},
{
glyphname = Omega;
layers = (
{
anchors = (
{
name = bottom;
pos = (330,0);
},
{
name = topleft;
pos = (30,700);
}
);
layerId = m002;
shapes = (
{
closed = 1;
nodes = (
(270,71,l),
(270,117,l),
(188,175,o),
(142,274,o),
(142,392,cs),
(142,541,o),
(211,626,o),
(330,626,cs),
(450,626,o),
(518,541,o),
(518,392,cs),
(518,272,o),
(473,177,o),
(390,117,c),
(390,71,l),
(410,52,l),
(549,117,o),
(628,245,o),
(628,404,cs),
(628,596,o),
(513,716,o),
(330,716,cs),
(146,716,o),
(32,596,o),
(32,404,cs),
(32,244,o),
(110,118,o),
(250,52,c)
);
},
{
closed = 1;
nodes = (
(270,0,l),
(270,90,l),
(22,90,l),
(22,0,l)
);
},
{
closed = 1;
nodes = (
(638,0,l),
(638,90,l),
(390,90,l),
(390,0,l)
);
}
);
width = 660;
},
{
anchors = (
{
name = bottom;
pos = (310,0);
},
{
name = topleft;
pos = (108,700);
}
);
layerId = m003;
shapes = (
{
closed = 1;
nodes = (
(246,71,l),
(252,117,l),
(198,160,o),
(159,265,o),
(159,366,cs),
(159,516,o),
(248,626,o),
(369,626,cs),
(472,626,o),
(543,542,o),
(543,422,cs),
(543,306,o),
(475,185,o),
(372,117,c),
(366,71,l),
(383,52,l),
(545,122,o),
(655,276,o),
(655,435,cs),
(655,600,o),
(538,716,o),
(372,716,cs),
(188,716,o),
(50,574,o),
(50,386,cs),
(50,251,o),
(121,114,o),
(223,52,c)
);
},
{
closed = 1;
nodes = (
(236,0,l),
(248,90,l),
(0,90,l),
(-12,0,l)
);
},
{
closed = 1;
nodes = (
(604,0,l),
(616,90,l),
(368,90,l),
(356,0,l)
);
}
);
width = 660;
},
{
anchors = (
{
name = bottom;
pos = (330,0);
},
{
name = topleft;
pos = (30,700);
}
);
layerId = m004;
shapes = (
{
closed = 1;
nodes = (
(322,57,l),
(322,136,l),
(240,179,o),
(194,268,o),
(194,392,cs),
(194,530,o),
(240,586,o),
(330,586,cs),
(421,586,o),
(466,530,o),
(466,392,cs),
(466,267,o),
(421,183,o),
(338,136,c),
(338,57,l),
(397,1,l),
(610,83,o),
(680,250,o),
(680,404,cs),
(680,622,o),
(536,756,o),
(330,756,cs),
(122,756,o),
(-20,623,o),
(-20,404,cs),
(-20,249,o),
(50,85,o),
(263,1,c)
);
},
{
closed = 1;
nodes = (
(322,-40,l),
(322,130,l),
(-30,130,l),
(-30,-40,l)
);
},
{
closed = 1;
nodes = (
(690,-40,l),
(690,130,l),
(338,130,l),
(338,-40,l)
);
}
);
width = 660;
},
{
anchors = (
{
name = bottom;
pos = (330,0);
},
{
name = topleft;
pos = (30,700);
}
);
layerId = m005;
shapes = (
{
closed = 1;
nodes = (
(246,76,l),
(246,111,l),
(157,180,o),
(118,282,o),
(118,392,cs),
(118,547,o),
(195,642,o),
(330,642,cs),
(467,642,o),
(542,547,o),
(542,392,cs),
(542,279,o),
(504,181,o),
(414,111,c),
(414,76,l),
(415,74,l),
(536,137,o),
(604,254,o),
(604,404,cs),
(604,592,o),
(500,700,o),
(330,700,cs),
(159,700,o),
(56,592,o),
(56,404,cs),
(56,253,o),
(124,138,o),
(245,74,c)
);
},
{
closed = 1;
nodes = (
(246,16,l),
(246,74,l),
(46,74,l),
(46,16,l)
);
},
{
closed = 1;
nodes = (
(614,16,l),
(614,74,l),
(414,74,l),
(414,16,l)
);
}
);
width = 660;
}
);
metricLeft = "=|";
metricWidth = A;
unicode = 937;
},
{
glyphname = mu;
layers = (
{
layerId = m002;
name = Regular;
shapes = (
{
closed = 1;
nodes = (
(407,-16,o),
(487,56,o),
(487,147,c),
(461,220,l),
(461,136,o),
(398,73,o),
(315,74,cs),
(247,75,o),
(199,119,o),
(199,181,cs),
(199,234,l),
(129,234,l),
(129,181,ls),
(129,61,o),
(198,-16,o),
(304,-16,cs)
);
},
{
closed = 1;
nodes = (
(561,0,l),
(561,500,l),
(461,500,l),
(461,0,l)
);
},
{
closed = 1;
nodes = (
(199,-200,l),
(199,500,l),
(99,500,l),
(99,-200,l)
);
}
);
width = 660;
},
{
layerId = m004;
name = Regular;
shapes = (
{
closed = 1;
nodes = (
(440,-44,o),
(523,43,o),
(519,170,c),
(409,239,l),
(411,163,o),
(378,125,o),
(319,126,cs),
(274,127,o),
(251,148,o),
(251,193,cs),
(251,258,l),
(127,258,l),
(127,173,ls),
(127,37,o),
(210,-44,o),
(323,-44,cs)
);
},
{
closed = 1;
nodes = (
(613,-28,l),
(613,528,l),
(409,528,l),
(409,-28,l)
);
},
{
closed = 1;
nodes = (
(251,-228,l),
(251,528,l),
(47,528,l),
(47,-228,l)
);
}
);
width = 660;
},
{
layerId = m005;
name = Regular;
shapes = (
{
closed = 1;
nodes = (
(428,-16,o),
(502,57,o),
(503,166,c),
(485,220,l),
(485,106,o),
(418,31,o),
(318,32,cs),
(232,33,o),
(175,89,o),
(175,171,cs),
(175,400,l),
(143,400,l),
(143,161,ls),
(143,55,o),
(214,-16,o),
(320,-16,cs)
);
},
{
closed = 1;
nodes = (
(537,0,l),
(537,500,l),
(485,500,l),
(485,0,l)
);
},
{
closed = 1;
nodes = (
(175,-184,l),
(175,484,l),
(123,484,l),
(123,-184,l)
);
}
);
width = 660;
},
{
associatedMasterId = m002;
layerId = "2A23A498-F7CD-42D2-B830-35739478EE3D";
name = "Light Ekstra Italic";
shapes = (
{
closed = 1;
nodes = (
(309,-16,o),
(384,59,o),
(426,199,c),
(428,257,l),
(387,112,o),
(316,39,o),
(218,39,cs),
(141,39,o),
(117,98,o),
(150,214,cs),
(232,500,l),
(168,500,l),
(75,174,ls),
(45,69,o),
(103,-16,o),
(208,-16,cs)
);
},
{
closed = 1;
nodes = (
(26,-216,l),
(231,500,l),
(167,500,l),
(-38,-216,l)
);
},
{
closed = 1;
nodes = (
(418,0,l),
(561,500,l),
(497,500,l),
(397,150,l),
(396,130,l),
(359,0,l)
);
}
);
width = 588;
},
{
associatedMasterId = m002;
layerId = "C25418E1-3780-4EF1-AA02-D57C429AD772";
name = "Extra Bold  Ekstra Italic";
shapes = (
{
closed = 1;
nodes = (
(287,-16,o),
(354,66,o),
(408,252,c),
(409,336,l),
(362,171,o),
(319,103,o),
(261,103,cs),
(204,103,o),
(191,146,o),
(221,246,cs),
(294,500,l),
(126,500,l),
(42,206,ls),
(6,80,o),
(66,-16,o),
(182,-16,cs)
);
},
{
closed = 1;
nodes = (
(73,-186,l),
(270,500,l),
(126,500,l),
(-71,-186,l)
);
},
{
closed = 1;
nodes = (
(481,0,l),
(624,500,l),
(456,500,l),
(352,139,l),
(352,119,l),
(318,0,l)
);
}
);
width = 607;
},
{
layerId = m003;
name = Regular;
shapes = (
{
closed = 1;
nodes = (
(383,-16,o),
(459,49,o),
(472,147,c),
(457,220,l),
(444,130,o),
(382,73,o),
(298,74,cs),
(225,75,o),
(181,119,o),
(189,181,cs),
(197,234,l),
(127,234,l),
(119,181,ls),
(102,64,o),
(168,-16,o),
(281,-16,cs)
);
},
{
closed = 1;
nodes = (
(526,0,l),
(596,500,l),
(496,500,l),
(426,0,l)
);
},
{
closed = 1;
nodes = (
(136,-200,l),
(234,500,l),
(134,500,l),
(36,-200,l)
);
}
);
width = 660;
},
{
associatedMasterId = m003;
layerId = "BC165E9A-81C1-4360-8536-F0CBA847938E";
name = "Extra Bold";
shapes = (
{
closed = 1;
nodes = (
(357,-16,o),
(404,52,o),
(404,252,c),
(385,322,l),
(385,152,o),
(357,103,o),
(297,103,cs),
(227,103,o),
(219,166,o),
(219,246,cs),
(219,500,l),
(55,500,l),
(55,206,ls),
(55,76,o),
(108,-16,o),
(237,-16,cs)
);
},
{
closed = 1;
nodes = (
(194,-186,l),
(194,500,l),
(54,500,l),
(54,-186,l)
);
},
{
closed = 1;
nodes = (
(549,0,l),
(549,500,l),
(385,500,l),
(385,139,l),
(390,119,l),
(390,0,l)
);
}
);
width = 603;
},
{
associatedMasterId = m003;
layerId = "0C24D750-4E77-403F-9D44-00C2C118BDDE";
name = "Regular Ekstra Italic";
shapes = (
{
closed = 1;
nodes = (
(294,-16,o),
(373,66,o),
(412,210,c),
(416,267,l),
(377,132,o),
(313,59,o),
(232,59,cs),
(159,59,o),
(129,119,o),
(155,215,cs),
(237,500,l),
(153,500,l),
(63,184,ls),
(32,73,o),
(90,-16,o),
(194,-16,cs)
);
},
{
closed = 1;
nodes = (
(31,-216,l),
(236,500,l),
(152,500,l),
(-53,-216,l)
);
},
{
closed = 1;
nodes = (
(424,0,l),
(567,500,l),
(483,500,l),
(385,159,l),
(388,153,l),
(345,0,l)
);
}
);
width = 576;
},
{
associatedMasterId = m003;
layerId = "B4FD4C2E-0962-430A-9841-13D947135118";
name = "Light Ekstra Italic";
shapes = (
{
closed = 1;
nodes = (
(309,-16,o),
(384,59,o),
(426,199,c),
(428,257,l),
(387,112,o),
(316,39,o),
(218,39,cs),
(141,39,o),
(117,98,o),
(150,214,cs),
(232,500,l),
(168,500,l),
(75,174,ls),
(45,69,o),
(103,-16,o),
(208,-16,cs)
);
},
{
closed = 1;
nodes = (
(26,-216,l),
(231,500,l),
(167,500,l),
(-38,-216,l)
);
},
{
closed = 1;
nodes = (
(418,0,l),
(561,500,l),
(497,500,l),
(397,150,l),
(396,130,l),
(359,0,l)
);
}
);
width = 588;
},
{
associatedMasterId = m003;
layerId = "034680C2-0F27-4956-879D-9D59C1F89EC4";
name = "Extra Bold  Ekstra Italic";
shapes = (
{
closed = 1;
nodes = (
(287,-16,o),
(354,66,o),
(408,252,c),
(409,336,l),
(362,171,o),
(319,103,o),
(261,103,cs),
(204,103,o),
(191,146,o),
(221,246,cs),
(294,500,l),
(126,500,l),
(42,206,ls),
(6,80,o),
(66,-16,o),
(182,-16,cs)
);
},
{
closed = 1;
nodes = (
(73,-186,l),
(270,500,l),
(126,500,l),
(-71,-186,l)
);
},
{
closed = 1;
nodes = (
(481,0,l),
(624,500,l),
(456,500,l),
(352,139,l),
(352,119,l),
(318,0,l)
);
}
);
width = 607;
},
{
associatedMasterId = m004;
layerId = "78B74071-A720-4496-B713-8DFA7B5B010F";
name = "Extra Bold";
shapes = (
{
closed = 1;
nodes = (
(357,-16,o),
(404,52,o),
(404,252,c),
(385,322,l),
(385,152,o),
(357,103,o),
(297,103,cs),
(227,103,o),
(219,166,o),
(219,246,cs),
(219,500,l),
(55,500,l),
(55,206,ls),
(55,76,o),
(108,-16,o),
(237,-16,cs)
);
},
{
closed = 1;
nodes = (
(194,-186,l),
(194,500,l),
(54,500,l),
(54,-186,l)
);
},
{
closed = 1;
nodes = (
(549,0,l),
(549,500,l),
(385,500,l),
(385,139,l),
(390,119,l),
(390,0,l)
);
}
);
width = 603;
},
{
associatedMasterId = m004;
layerId = "F871D83B-8589-41B7-A61F-C7DA9EEA2D39";
name = "Regular Ekstra Italic";
shapes = (
{
closed = 1;
nodes = (
(294,-16,o),
(373,66,o),
(412,210,c),
(416,267,l),
(377,132,o),
(313,59,o),
(232,59,cs),
(159,59,o),
(129,119,o),
(155,215,cs),
(237,500,l),
(153,500,l),
(63,184,ls),
(32,73,o),
(90,-16,o),
(194,-16,cs)
);
},
{
closed = 1;
nodes = (
(31,-216,l),
(236,500,l),
(152,500,l),
(-53,-216,l)
);
},
{
closed = 1;
nodes = (
(424,0,l),
(567,500,l),
(483,500,l),
(385,159,l),
(388,153,l),
(345,0,l)
);
}
);
width = 576;
},
{
associatedMasterId = m004;
layerId = "D4AEBEA2-F59A-42B8-A501-3E5FC7F5DFE5";
name = "Light Ekstra Italic";
shapes = (
{
closed = 1;
nodes = (
(309,-16,o),
(384,59,o),
(426,199,c),
(428,257,l),
(387,112,o),
(316,39,o),
(218,39,cs),
(141,39,o),
(117,98,o),
(150,214,cs),
(232,500,l),
(168,500,l),
(75,174,ls),
(45,69,o),
(103,-16,o),
(208,-16,cs)
);
},
{
closed = 1;
nodes = (
(26,-216,l),
(231,500,l),
(167,500,l),
(-38,-216,l)
);
},
{
closed = 1;
nodes = (
(418,0,l),
(561,500,l),
(497,500,l),
(397,150,l),
(396,130,l),
(359,0,l)
);
}
);
width = 588;
},
{
associatedMasterId = m004;
layerId = "EA50A7F6-6A49-4B30-86C2-EC3F00917FEB";
name = "Extra Bold  Ekstra Italic";
shapes = (
{
closed = 1;
nodes = (
(287,-16,o),
(354,66,o),
(408,252,c),
(409,336,l),
(362,171,o),
(319,103,o),
(261,103,cs),
(204,103,o),
(191,146,o),
(221,246,cs),
(294,500,l),
(126,500,l),
(42,206,ls),
(6,80,o),
(66,-16,o),
(182,-16,cs)
);
},
{
closed = 1;
nodes = (
(73,-186,l),
(270,500,l),
(126,500,l),
(-71,-186,l)
);
},
{
closed = 1;
nodes = (
(481,0,l),
(624,500,l),
(456,500,l),
(352,139,l),
(352,119,l),
(318,0,l)
);
}
);
width = 607;
},
{
associatedMasterId = m005;
layerId = "240ED25A-26A9-43F9-AE29-43C92CF5F109";
name = "Regular Ekstra Italic";
shapes = (
{
closed = 1;
nodes = (
(294,-16,o),
(373,66,o),
(412,210,c),
(416,267,l),
(377,132,o),
(313,59,o),
(232,59,cs),
(159,59,o),
(129,119,o),
(155,215,cs),
(237,500,l),
(153,500,l),
(63,184,ls),
(32,73,o),
(90,-16,o),
(194,-16,cs)
);
},
{
closed = 1;
nodes = (
(31,-216,l),
(236,500,l),
(152,500,l),
(-53,-216,l)
);
},
{
closed = 1;
nodes = (
(424,0,l),
(567,500,l),
(483,500,l),
(385,159,l),
(388,153,l),
(345,0,l)
);
}
);
width = 576;
},
{
associatedMasterId = m005;
layerId = "BAAFC2C7-6AA2-4D01-83A6-AD2BF0CA7A57";
name = "Light Ekstra Italic";
shapes = (
{
closed = 1;
nodes = (
(309,-16,o),
(384,59,o),
(426,199,c),
(428,257,l),
(387,112,o),
(316,39,o),
(218,39,cs),
(141,39,o),
(117,98,o),
(150,214,cs),
(232,500,l),
(168,500,l),
(75,174,ls),
(45,69,o),
(103,-16,o),
(208,-16,cs)
);
},
{
closed = 1;
nodes = (
(26,-216,l),
(231,500,l),
(167,500,l),
(-38,-216,l)
);
},
{
closed = 1;
nodes = (
(418,0,l),
(561,500,l),
(497,500,l),
(397,150,l),
(396,130,l),
(359,0,l)
);
}
);
width = 588;
},
{
associatedMasterId = m005;
layerId = "0E3F41AB-3DED-4DFA-A6D2-B73BBACF9170";
name = "Extra Bold  Ekstra Italic";
shapes = (
{
closed = 1;
nodes = (
(287,-16,o),
(354,66,o),
(408,252,c),
(409,336,l),
(362,171,o),
(319,103,o),
(261,103,cs),
(204,103,o),
(191,146,o),
(221,246,cs),
(294,500,l),
(126,500,l),
(42,206,ls),
(6,80,o),
(66,-16,o),
(182,-16,cs)
);
},
{
closed = 1;
nodes = (
(73,-186,l),
(270,500,l),
(126,500,l),
(-71,-186,l)
);
},
{
closed = 1;
nodes = (
(481,0,l),
(624,500,l),
(456,500,l),
(352,139,l),
(352,119,l),
(318,0,l)
);
}
);
width = 607;
}
);
metricLeft = "=|";
metricWidth = A;
unicode = 956;
},
{
glyphname = pi;
layers = (
{
layerId = m002;
shapes = (
{
closed = 1;
nodes = (
(590,0,l),
(590,80,l),
(570,80,ls),
(528,80,o),
(500,103,o),
(500,136,cs),
(500,459,l),
(400,459,l),
(400,126,ls),
(400,51,o),
(457,0,o),
(540,0,cs)
);
},
{
closed = 1;
nodes = (
(600,420,l),
(600,500,l),
(60,500,l),
(60,420,l)
);
},
{
closed = 1;
nodes = (
(260,0,l),
(260,459,l),
(160,459,l),
(160,0,l)
);
}
);
width = 660;
},
{
layerId = m003;
shapes = (
{
closed = 1;
nodes = (
(555,0,l),
(566,80,l),
(546,80,ls),
(506,80,o),
(479,104,o),
(484,136,cs),
(529,459,l),
(429,459,l),
(383,126,ls),
(372,54,o),
(425,0,o),
(505,0,cs)
);
},
{
closed = 1;
nodes = (
(624,420,l),
(635,500,l),
(95,500,l),
(84,420,l)
);
},
{
closed = 1;
nodes = (
(225,0,l),
(289,459,l),
(189,459,l),
(125,0,l)
);
}
);
width = 660;
},
{
layerId = m004;
shapes = (
{
closed = 1;
nodes = (
(642,-40,l),
(642,120,l),
(570,120,ls),
(552,120,o),
(552,120,o),
(552,136,cs),
(552,499,l),
(348,499,l),
(348,126,ls),
(348,29,o),
(428,-40,o),
(540,-40,cs)
);
},
{
closed = 1;
nodes = (
(652,380,l),
(652,540,l),
(8,540,l),
(8,380,l)
);
},
{
closed = 1;
nodes = (
(312,-40,l),
(312,499,l),
(108,499,l),
(108,-40,l)
);
}
);
width = 660;
},
{
layerId = m005;
shapes = (
{
closed = 1;
nodes = (
(566,16,l),
(566,64,l),
(570,64,ls),
(515,64,o),
(476,95,o),
(476,136,cs),
(476,443,l),
(424,443,l),
(424,126,ls),
(424,56,o),
(468,16,o),
(540,16,cs)
);
},
{
closed = 1;
nodes = (
(576,436,l),
(576,484,l),
(84,484,l),
(84,436,l)
);
},
{
closed = 1;
nodes = (
(236,16,l),
(236,443,l),
(184,443,l),
(184,16,l)
);
}
);
width = 660;
}
);
metricLeft = "=|";
metricWidth = A;
unicode = 960;
},
{
glyphname = zero;
layers = (
{
layerId = m002;
shapes = (
{
closed = 1;
nodes = (
(484,-16,o),
(585,129,o),
(585,350,cs),
(585,571,o),
(484,716,o),
(330,716,cs),
(176,716,o),
(75,571,o),
(75,350,cs),
(75,129,o),
(176,-16,o),
(330,-16,cs)
);
},
{
closed = 1;
nodes = (
(233,74,o),
(185,166,o),
(185,350,cs),
(185,534,o),
(233,626,o),
(330,626,cs),
(427,626,o),
(475,534,o),
(475,350,cs),
(475,166,o),
(427,74,o),
(330,74,cs)
);
},
{
closed = 1;
nodes = (
(162,178,l),
(526,462,l),
(498,522,l),
(134,237,l)
);
}
);
width = 660;
},
{
layerId = m003;
shapes = (
{
closed = 1;
nodes = (
(472,-16,o),
(606,172,o),
(606,420,cs),
(606,607,o),
(528,716,o),
(393,716,cs),
(216,716,o),
(82,528,o),
(82,280,cs),
(82,93,o),
(160,-16,o),
(295,-16,cs)
);
},
{
closed = 1;
nodes = (
(225,74,o),
(191,134,o),
(191,261,cs),
(191,468,o),
(278,626,o),
(392,626,cs),
(464,626,o),
(497,567,o),
(497,439,cs),
(497,231,o),
(411,74,o),
(296,74,cs)
);
},
{
closed = 1;
nodes = (
(152,178,l),
(556,462,l),
(536,522,l),
(132,237,l)
);
}
);
width = 660;
},
{
layerId = m004;
shapes = (
{
closed = 1;
nodes = (
(519,-56,o),
(637,111,o),
(637,350,cs),
(637,589,o),
(519,756,o),
(330,756,cs),
(141,756,o),
(23,589,o),
(23,350,cs),
(23,111,o),
(141,-56,o),
(330,-56,cs)
);
},
{
closed = 1;
nodes = (
(267,114,o),
(237,172,o),
(237,350,cs),
(237,528,o),
(267,586,o),
(330,586,cs),
(393,586,o),
(423,528,o),
(423,350,cs),
(423,172,o),
(393,114,o),
(330,114,cs)
);
},
{
closed = 1;
nodes = (
(142,105,l),
(586,452,l),
(518,596,l),
(74,247,l)
);
}
);
width = 660;
},
{
layerId = m005;
shapes = (
{
closed = 1;
nodes = (
(469,0,o),
(561,132,o),
(561,350,cs),
(561,568,o),
(469,700,o),
(330,700,cs),
(191,700,o),
(99,568,o),
(99,350,cs),
(99,132,o),
(191,0,o),
(330,0,cs)
);
},
{
closed = 1;
nodes = (
(214,58,o),
(161,160,o),
(161,350,cs),
(161,540,o),
(214,642,o),
(330,642,cs),
(446,642,o),
(499,540,o),
(499,350,cs),
(499,160,o),
(446,58,o),
(330,58,cs)
);
},
{
closed = 1;
nodes = (
(172,210,l),
(499,465,l),
(488,490,l),
(161,234,l)
);
}
);
width = 660;
}
);
metricLeft = "=|";
metricWidth = A;
unicode = 48;
},
{
glyphname = one;
layers = (
{
layerId = m002;
shapes = (
{
closed = 1;
nodes = (
(425,0,l),
(425,700,l),
(315,700,l),
(315,622,o),
(236,586,o),
(149,586,c),
(149,516,l),
(315,516,l),
(315,0,l)
);
}
);
width = 660;
},
{
layerId = m003;
shapes = (
{
closed = 1;
nodes = (
(389,0,l),
(487,700,l),
(377,700,l),
(367,626,o),
(303,586,o),
(195,586,c),
(186,516,l),
(352,516,l),
(279,0,l)
);
}
);
width = 660;
},
{
layerId = m004;
shapes = (
{
closed = 1;
nodes = (
(467,-40,l),
(467,740,l),
(246,740,l),
(273,636,o),
(203,615,o),
(86,630,c),
(87,476,l),
(253,476,l),
(253,-40,l)
);
}
);
width = 660;
},
{
layerId = m005;
shapes = (
{
closed = 1;
nodes = (
(413,16,l),
(413,684,l),
(349,684,l),
(340,614,o),
(266,577,o),
(185,571,c),
(185,532,l),
(351,532,l),
(351,16,l)
);
}
);
width = 660;
}
);
metricLeft = "=h*1.5";
metricWidth = A;
unicode = 49;
},
{
glyphname = two;
layers = (
{
layerId = m002;
shapes = (
{
closed = 1;
nodes = (
(577,0,l),
(577,90,l),
(176,90,l),
(181,52,l),
(377,226,ls),
(524,357,o),
(568,422,o),
(568,507,cs),
(568,631,o),
(473,716,o),
(334,716,cs),
(199,716,o),
(105,634,o),
(105,516,c),
(215,516,l),
(215,579,o),
(265,626,o),
(334,626,cs),
(407,626,o),
(458,575,o),
(458,502,cs),
(458,448,o),
(429,402,o),
(354,334,cs),
(83,90,l),
(83,0,l)
);
}
);
width = 660;
},
{
layerId = m003;
shapes = (
{
closed = 1;
nodes = (
(543,0,l),
(555,90,l),
(154,90,l),
(154,52,l),
(375,226,ls),
(558,372,o),
(607,436,o),
(607,529,cs),
(607,648,o),
(529,716,o),
(393,716,cs),
(253,716,o),
(161,643,o),
(143,516,c),
(253,516,l),
(262,583,o),
(316,626,o),
(391,626,cs),
(459,626,o),
(496,591,o),
(496,526,cs),
(496,463,o),
(460,409,o),
(367,334,cs),
(61,90,l),
(49,0,l)
);
}
);
width = 660;
},
{
layerId = m004;
shapes = (
{
closed = 1;
nodes = (
(629,-40,l),
(629,130,l),
(118,130,l),
(143,-44,l),
(411,196,ls),
(569,336,o),
(620,410,o),
(620,507,cs),
(620,653,o),
(501,756,o),
(334,756,cs),
(157,756,o),
(30,636,o),
(56,476,c),
(273,476,l),
(256,554,o),
(278,586,o),
(334,586,cs),
(381,586,o),
(406,561,o),
(406,502,cs),
(406,457,o),
(385,423,o),
(320,364,cs),
(31,104,l),
(31,-40,l)
);
}
);
width = 660;
},
{
layerId = m005;
shapes = (
{
closed = 1;
nodes = (
(553,16,l),
(553,74,l),
(202,74,l),
(199,95,l),
(361,238,ls),
(503,365,o),
(544,425,o),
(544,507,cs),
(544,626,o),
(462,700,o),
(334,700,cs),
(216,700,o),
(137,636,o),
(130,532,c),
(192,532,l),
(200,594,o),
(257,642,o),
(334,642,cs),
(422,642,o),
(482,582,o),
(482,502,cs),
(482,444,o),
(451,396,o),
(370,322,cs),
(107,85,l),
(107,16,l)
);
}
);
width = 660;
}
);
metricLeft = "=|";
metricWidth = A;
unicode = 50;
},
{
glyphname = three;
layers = (
{
layerId = m002;
shapes = (
{
closed = 1;
nodes = (
(492,-16,o),
(595,65,o),
(595,183,cs),
(595,290,o),
(510,369,o),
(396,369,c),
(396,349,l),
(499,349,o),
(576,425,o),
(576,525,cs),
(576,638,o),
(479,716,o),
(340,716,cs),
(198,716,o),
(99,634,o),
(99,516,c),
(209,516,l),
(209,580,o),
(262,626,o),
(338,626,cs),
(413,626,o),
(466,582,o),
(466,519,cs),
(466,451,o),
(403,404,o),
(311,404,cs),
(284,404,l),
(284,314,l),
(311,314,ls),
(416,314,o),
(485,265,o),
(485,191,cs),
(485,122,o),
(425,74,o),
(340,74,cs),
(257,74,o),
(199,119,o),
(199,184,c),
(89,184,l),
(89,66,o),
(192,-16,o),
(342,-16,cs)
);
}
);
width = 660;
},
{
layerId = m003;
shapes = (
{
closed = 1;
nodes = (
(484,-16,o),
(588,67,o),
(588,186,cs),
(588,293,o),
(507,369,o),
(393,369,c),
(410,349,l),
(534,349,o),
(617,423,o),
(617,533,cs),
(617,645,o),
(531,716,o),
(395,716,cs),
(253,716,o),
(153,639,o),
(136,516,c),
(246,516,l),
(256,583,o),
(312,626,o),
(391,626,cs),
(463,626,o),
(505,591,o),
(505,530,cs),
(505,453,o),
(438,404,o),
(333,404,cs),
(306,404,l),
(293,314,l),
(320,314,ls),
(413,314,o),
(478,262,o),
(478,188,cs),
(478,120,o),
(419,74,o),
(332,74,cs),
(251,74,o),
(200,114,o),
(190,184,c),
(80,184,l),
(94,60,o),
(190,-16,o),
(333,-16,cs)
);
}
);
width = 660;
},
{
layerId = m004;
shapes = (
{
closed = 1;
nodes = (
(499,-56,o),
(627,43,o),
(627,183,cs),
(627,326,o),
(493,432,o),
(324,404,c),
(324,314,l),
(484,286,o),
(608,390,o),
(608,525,cs),
(608,660,o),
(486,756,o),
(320,756,cs),
(136,756,o),
(3,637,o),
(30,476,c),
(247,476,l),
(230,555,o),
(253,586,o),
(318,586,cs),
(371,586,o),
(394,567,o),
(394,519,cs),
(394,467,o),
(362,444,o),
(291,444,cs),
(212,444,l),
(212,274,l),
(291,274,ls),
(377,274,o),
(413,248,o),
(413,191,cs),
(413,137,o),
(384,114,o),
(320,114,cs),
(243,114,o),
(218,145,o),
(237,224,c),
(20,224,l),
(-7,62,o),
(129,-56,o),
(322,-56,cs)
);
}
);
width = 660;
},
{
layerId = m005;
shapes = (
{
closed = 1;
nodes = (
(482,0,o),
(571,70,o),
(571,183,cs),
(571,277,o),
(509,342,o),
(420,352,c),
(396,365,l),
(487,365,o),
(552,429,o),
(552,525,cs),
(552,633,o),
(468,700,o),
(340,700,cs),
(215,700,o),
(131,636,o),
(124,532,c),
(186,532,l),
(195,595,o),
(255,642,o),
(338,642,cs),
(426,642,o),
(490,590,o),
(490,519,cs),
(490,443,o),
(415,388,o),
(311,388,cs),
(308,388,l),
(308,330,l),
(311,330,ls),
(428,330,o),
(509,273,o),
(509,191,cs),
(509,114,o),
(438,58,o),
(340,58,cs),
(251,58,o),
(185,103,o),
(176,168,c),
(114,168,l),
(122,65,o),
(209,0,o),
(342,0,cs)
);
}
);
width = 660;
}
);
metricRight = "=o";
metricWidth = A;
unicode = 51;
},
{
glyphname = four;
layers = (
{
layerId = m002;
shapes = (
{
closed = 1;
nodes = (
(617,177,l),
(617,267,l),
(124,267,l),
(149,244,l),
(479,700,l),
(379,700,l),
(49,267,l),
(49,177,l)
);
},
{
closed = 1;
nodes = (
(528,0,l),
(528,700,l),
(418,700,l),
(418,0,l)
);
}
);
width = 660;
},
{
layerId = m003;
shapes = (
{
closed = 1;
nodes = (
(607,177,l),
(619,267,l),
(126,267,l),
(148,244,l),
(542,700,l),
(442,700,l),
(51,267,l),
(39,177,l)
);
},
{
closed = 1;
nodes = (
(493,0,l),
(591,700,l),
(481,700,l),
(383,0,l)
);
}
);
width = 660;
},
{
layerId = m004;
shapes = (
{
closed = 1;
nodes = (
(659,137,l),
(659,307,l),
(4,307,l),
(148,174,l),
(557,740,l),
(340,740,l),
(-13,278,l),
(-13,137,l)
);
},
{
closed = 1;
nodes = (
(570,-40,l),
(570,740,l),
(356,740,l),
(356,-40,l)
);
}
);
width = 660;
},
{
layerId = m005;
shapes = (
{
closed = 1;
nodes = (
(583,193,l),
(583,251,l),
(160,251,l),
(135,275,l),
(431,684,l),
(383,684,l),
(63,264,l),
(63,193,l)
);
},
{
closed = 1;
nodes = (
(494,16,l),
(494,684,l),
(432,684,l),
(432,16,l)
);
}
);
width = 660;
}
);
metricLeft = "=w";
metricWidth = A;
unicode = 52;
},
{
glyphname = five;
layers = (
{
layerId = m002;
shapes = (
{
closed = 1;
nodes = (
(473,-16,o),
(584,87,o),
(584,234,cs),
(584,373,o),
(486,474,o),
(352,474,cs),
(259,474,o),
(183,425,o),
(145,341,c),
(196,354,l),
(226,610,l),
(535,610,l),
(535,700,l),
(134,700,l),
(101,307,l),
(201,307,l),
(223,355,o),
(270,384,o),
(328,384,cs),
(413,384,o),
(474,320,o),
(474,231,cs),
(474,139,o),
(409,74,o),
(317,74,cs),
(239,74,o),
(184,120,o),
(184,184,c),
(74,184,l),
(74,68,o),
(175,-16,o),
(316,-16,cs)
);
}
);
width = 660;
},
{
layerId = m003;
shapes = (
{
closed = 1;
nodes = (
(474,-16,o),
(585,85,o),
(585,240,cs),
(585,380,o),
(499,474,o),
(372,474,cs),
(283,474,o),
(210,428,o),
(158,341,c),
(211,354,l),
(277,610,l),
(586,610,l),
(598,700,l),
(197,700,l),
(109,307,l),
(209,307,l),
(238,357,o),
(284,384,o),
(340,384,cs),
(420,384,o),
(474,325,o),
(474,237,cs),
(474,140,o),
(405,74,o),
(304,74,cs),
(224,74,o),
(175,115,o),
(175,184,c),
(65,184,l),
(65,61,o),
(157,-16,o),
(304,-16,cs)
);
}
);
width = 660;
},
{
layerId = m004;
shapes = (
{
closed = 1;
nodes = (
(524,-56,o),
(658,66,o),
(658,234,cs),
(658,394,o),
(539,514,o),
(374,514,cs),
(222,514,o),
(112,407,o),
(99,282,c),
(267,324,l),
(295,570,l),
(609,570,l),
(609,740,l),
(107,740,l),
(68,267,l),
(261,267,l),
(282,326,o),
(304,344,o),
(350,344,cs),
(410,344,o),
(444,307,o),
(444,231,cs),
(444,153,o),
(406,114,o),
(339,114,cs),
(271,114,o),
(246,146,o),
(263,224,c),
(47,224,l),
(19,67,o),
(154,-56,o),
(338,-56,cs)
);
}
);
width = 660;
},
{
layerId = m005;
shapes = (
{
closed = 1;
nodes = (
(455,0,o),
(553,92,o),
(553,234,cs),
(553,369,o),
(467,458,o),
(345,458,cs),
(274,458,o),
(217,428,o),
(178,368,c),
(167,365,l),
(197,626,l),
(504,626,l),
(504,684,l),
(150,684,l),
(120,323,l),
(177,323,l),
(203,369,o),
(256,400,o),
(321,400,cs),
(422,400,o),
(491,327,o),
(491,231,cs),
(491,132,o),
(417,58,o),
(310,58,cs),
(226,58,o),
(163,104,o),
(154,168,c),
(92,168,l),
(100,66,o),
(186,0,o),
(309,0,cs)
);
}
);
width = 660;
}
);
metricLeft = "=h*0.75";
metricWidth = A;
unicode = 53;
},
{
glyphname = six;
layers = (
{
layerId = m002;
shapes = (
{
closed = 1;
nodes = (
(485,-16,o),
(590,85,o),
(590,227,cs),
(590,364,o),
(493,464,o),
(360,464,cs),
(231,464,o),
(137,370,o),
(134,240,c),
(159,326,l),
(180,531,o),
(242,626,o),
(356,626,cs),
(425,626,o),
(475,591,o),
(483,536,c),
(583,536,l),
(573,642,o),
(482,716,o),
(361,716,cs),
(187,716,o),
(74,562,o),
(74,327,cs),
(74,110,o),
(171,-16,o),
(337,-16,cs)
);
},
{
closed = 1;
nodes = (
(252,74,o),
(191,137,o),
(191,224,cs),
(191,311,o),
(252,374,o),
(336,374,cs),
(420,374,o),
(480,311,o),
(480,224,cs),
(480,137,o),
(420,74,o),
(336,74,cs)
);
}
);
width = 660;
},
{
layerId = m003;
shapes = (
{
closed = 1;
nodes = (
(483,-16,o),
(598,76,o),
(598,233,cs),
(598,363,o),
(520,464,o),
(382,464,cs),
(253,464,o),
(163,376,o),
(141,240,c),
(178,326,l),
(207,525,o),
(286,626,o),
(411,626,cs),
(485,626,o),
(531,591,o),
(531,536,c),
(631,536,l),
(631,645,o),
(549,716,o),
(422,716,cs),
(226,716,o),
(87,537,o),
(87,299,cs),
(87,115,o),
(170,-16,o),
(340,-16,cs)
);
},
{
closed = 1;
nodes = (
(243,74,o),
(194,127,o),
(194,209,cs),
(194,305,o),
(261,374,o),
(352,374,cs),
(441,374,o),
(487,309,o),
(487,230,cs),
(487,131,o),
(416,74,o),
(328,74,cs)
);
}
);
width = 660;
},
{
layerId = m004;
shapes = (
{
closed = 1;
nodes = (
(535,-56,o),
(663,64,o),
(663,227,cs),
(663,385,o),
(544,504,o),
(381,504,cs),
(194,504,o),
(66,346,o),
(113,160,c),
(232,316,l),
(252,519,o),
(295,586,o),
(377,586,cs),
(439,586,o),
(456,565,o),
(455,496,c),
(656,496,l),
(670,643,o),
(547,756,o),
(382,756,cs),
(176,756,o),
(43,582,o),
(43,327,cs),
(43,91,o),
(159,-56,o),
(358,-56,cs)
);
},
{
closed = 1;
nodes = (
(299,114,o),
(264,151,o),
(264,224,cs),
(264,297,o),
(299,334,o),
(357,334,cs),
(415,334,o),
(449,298,o),
(449,224,cs),
(449,150,o),
(415,114,o),
(357,114,cs)
);
}
);
width = 660;
},
{
layerId = m005;
shapes = (
{
closed = 1;
nodes = (
(467,0,o),
(560,89,o),
(560,227,cs),
(560,360,o),
(475,448,o),
(354,448,cs),
(238,448,o),
(155,366,o),
(152,240,c),
(129,328,l),
(151,537,o),
(218,642,o),
(350,642,cs),
(425,642,o),
(483,606,o),
(498,552,c),
(551,552,l),
(534,644,o),
(459,700,o),
(355,700,cs),
(196,700,o),
(92,559,o),
(92,327,cs),
(92,113,o),
(179,0,o),
(331,0,cs)
);
},
{
closed = 1;
nodes = (
(231,58,o),
(161,130,o),
(161,224,cs),
(161,318,o),
(231,390,o),
(330,390,cs),
(430,390,o),
(498,318,o),
(498,224,cs),
(498,130,o),
(430,58,o),
(330,58,cs)
);
}
);
width = 660;
}
);
metricLeft = "=h*0.75";
metricWidth = A;
unicode = 54;
},
{
glyphname = seven;
layers = (
{
layerId = m002;
shapes = (
{
closed = 1;
nodes = (
(306,0,l),
(306,152,o),
(348,287,o),
(443,425,cs),
(563,600,l),
(563,700,l),
(99,700,l),
(99,610,l),
(453,610,l),
(353,460,ls),
(245,298,o),
(196,156,o),
(196,0,c)
);
}
);
width = 660;
},
{
layerId = m003;
shapes = (
{
closed = 1;
nodes = (
(272,0,l),
(295,161,o),
(352,284,o),
(468,425,cs),
(613,600,l),
(627,700,l),
(163,700,l),
(150,610,l),
(504,610,l),
(383,460,ls),
(246,289,o),
(185,163,o),
(162,0,c)
);
}
);
width = 660;
},
{
layerId = m004;
shapes = (
{
closed = 1;
nodes = (
(368,-40,l),
(362,124,o),
(399,263,o),
(495,402,cs),
(625,590,l),
(625,740,l),
(57,740,l),
(57,570,l),
(379,570,l),
(319,482,ls),
(195,297,o),
(146,139,o),
(154,-40,c)
);
}
);
width = 660;
},
{
layerId = m005;
shapes = (
{
closed = 1;
nodes = (
(282,16,l),
(285,164,o),
(328,295,o),
(423,434,cs),
(539,603,l),
(539,684,l),
(123,684,l),
(123,626,l),
(490,626,l),
(373,451,ls),
(272,299,o),
(223,164,o),
(220,16,c)
);
}
);
width = 660;
}
);
metricLeft = "=h";
metricWidth = A;
unicode = 55;
},
{
glyphname = eight;
layers = (
{
layerId = m002;
shapes = (
{
closed = 1;
nodes = (
(495,-16,o),
(604,66,o),
(604,188,cs),
(604,290,o),
(527,367,o),
(423,367,c),
(413,353,l),
(506,353,o),
(574,423,o),
(574,518,cs),
(574,634,o),
(472,716,o),
(330,716,cs),
(188,716,o),
(86,634,o),
(86,518,cs),
(86,423,o),
(154,353,o),
(247,353,c),
(237,367,l),
(133,367,o),
(56,290,o),
(56,188,cs),
(56,66,o),
(167,-16,o),
(331,-16,cs)
);
},
{
closed = 1;
nodes = (
(232,74,o),
(166,123,o),
(166,195,cs),
(166,267,o),
(232,316,o),
(330,316,cs),
(428,316,o),
(494,267,o),
(494,195,cs),
(494,123,o),
(428,74,o),
(330,74,cs)
);
},
{
closed = 1;
nodes = (
(252,406,o),
(196,452,o),
(196,516,cs),
(196,580,o),
(252,626,o),
(330,626,cs),
(408,626,o),
(464,580,o),
(464,516,cs),
(464,452,o),
(408,406,o),
(330,406,cs)
);
}
);
width = 660;
},
{
layerId = m003;
shapes = (
{
closed = 1;
nodes = (
(488,-16,o),
(598,66,o),
(598,195,cs),
(598,296,o),
(533,367,o),
(440,367,c),
(428,353,l),
(542,353,o),
(615,420,o),
(615,523,cs),
(615,641,o),
(523,716,o),
(377,716,cs),
(223,716,o),
(123,637,o),
(123,515,cs),
(123,420,o),
(184,353,o),
(272,353,c),
(254,367,l),
(128,367,o),
(46,296,o),
(46,185,cs),
(46,60,o),
(147,-16,o),
(313,-16,cs)
);
},
{
closed = 1;
nodes = (
(215,74,o),
(158,116,o),
(158,191,cs),
(158,267,o),
(225,316,o),
(330,316,cs),
(428,316,o),
(488,270,o),
(488,195,cs),
(488,120,o),
(422,74,o),
(315,74,cs)
);
},
{
closed = 1;
nodes = (
(281,406,o),
(233,446,o),
(233,514,cs),
(233,582,o),
(289,626,o),
(375,626,cs),
(454,626,o),
(503,585,o),
(503,519,cs),
(503,451,o),
(446,406,o),
(361,406,cs)
);
}
);
width = 660;
},
{
layerId = m004;
shapes = (
{
closed = 1;
nodes = (
(521,-56,o),
(656,43,o),
(656,188,cs),
(656,320,o),
(542,421,o),
(392,405,c),
(333,325,l),
(495,278,o),
(626,379,o),
(626,518,cs),
(626,656,o),
(499,756,o),
(330,756,cs),
(161,756,o),
(34,656,o),
(34,518,cs),
(34,396,o),
(134,299,o),
(277,315,c),
(284,404,l),
(124,428,o),
(4,324,o),
(4,188,cs),
(4,42,o),
(141,-56,o),
(331,-56,cs)
);
},
{
closed = 1;
nodes = (
(253,114,o),
(218,139,o),
(218,195,cs),
(218,251,o),
(253,276,o),
(330,276,cs),
(407,276,o),
(442,251,o),
(442,195,cs),
(442,139,o),
(407,114,o),
(330,114,cs)
);
},
{
closed = 1;
nodes = (
(274,446,o),
(248,467,o),
(248,516,cs),
(248,565,o),
(274,586,o),
(330,586,cs),
(386,586,o),
(412,565,o),
(412,516,cs),
(412,467,o),
(386,446,o),
(330,446,cs)
);
}
);
width = 660;
},
{
layerId = m005;
shapes = (
{
closed = 1;
nodes = (
(485,0,o),
(580,72,o),
(580,188,cs),
(580,281,o),
(521,344,o),
(437,350,c),
(413,369,l),
(493,369,o),
(550,427,o),
(550,518,cs),
(550,629,o),
(461,700,o),
(330,700,cs),
(199,700,o),
(110,629,o),
(110,518,cs),
(110,427,o),
(167,369,o),
(247,369,c),
(223,350,l),
(139,344,o),
(80,281,o),
(80,188,cs),
(80,72,o),
(177,0,o),
(331,0,cs)
);
},
{
closed = 1;
nodes = (
(220,58,o),
(142,115,o),
(142,195,cs),
(142,275,o),
(220,332,o),
(330,332,cs),
(440,332,o),
(518,275,o),
(518,195,cs),
(518,115,o),
(440,58,o),
(330,58,cs)
);
},
{
closed = 1;
nodes = (
(239,390,o),
(172,444,o),
(172,516,cs),
(172,588,o),
(239,642,o),
(330,642,cs),
(421,642,o),
(488,588,o),
(488,516,cs),
(488,444,o),
(421,390,o),
(330,390,cs)
);
}
);
width = 660;
}
);
metricLeft = "=|";
metricWidth = A;
unicode = 56;
},
{
glyphname = nine;
layers = (
{
layerId = m002;
shapes = (
{
closed = 1;
nodes = (
(473,-16,o),
(586,138,o),
(586,373,cs),
(586,590,o),
(489,716,o),
(323,716,cs),
(175,716,o),
(70,615,o),
(70,473,cs),
(70,336,o),
(167,236,o),
(300,236,cs),
(429,236,o),
(523,330,o),
(526,460,c),
(501,374,l),
(480,169,o),
(418,74,o),
(304,74,cs),
(235,74,o),
(185,109,o),
(177,164,c),
(77,164,l),
(87,58,o),
(178,-16,o),
(299,-16,cs)
);
},
{
closed = 1;
nodes = (
(240,326,o),
(180,389,o),
(180,476,cs),
(180,563,o),
(240,626,o),
(324,626,cs),
(408,626,o),
(469,563,o),
(469,476,cs),
(469,389,o),
(408,326,o),
(324,326,cs)
);
}
);
width = 660;
},
{
layerId = m003;
shapes = (
{
closed = 1;
nodes = (
(462,-16,o),
(601,163,o),
(601,401,cs),
(601,585,o),
(518,716,o),
(348,716,cs),
(205,716,o),
(90,624,o),
(90,467,cs),
(90,337,o),
(168,236,o),
(306,236,cs),
(435,236,o),
(525,324,o),
(547,460,c),
(510,374,l),
(481,175,o),
(402,74,o),
(277,74,cs),
(203,74,o),
(157,109,o),
(157,164,c),
(57,164,l),
(57,55,o),
(139,-16,o),
(266,-16,cs)
);
},
{
closed = 1;
nodes = (
(247,326,o),
(201,391,o),
(201,470,cs),
(201,569,o),
(272,626,o),
(360,626,cs),
(445,626,o),
(494,573,o),
(494,491,cs),
(494,395,o),
(427,326,o),
(336,326,cs)
);
}
);
width = 660;
},
{
layerId = m004;
shapes = (
{
closed = 1;
nodes = (
(484,-56,o),
(617,118,o),
(617,373,cs),
(617,609,o),
(501,756,o),
(302,756,cs),
(125,756,o),
(-3,636,o),
(-3,473,cs),
(-3,315,o),
(116,196,o),
(279,196,cs),
(466,196,o),
(594,354,o),
(547,540,c),
(428,384,l),
(408,181,o),
(365,114,o),
(283,114,cs),
(221,114,o),
(204,135,o),
(205,204,c),
(4,204,l),
(-10,57,o),
(113,-56,o),
(278,-56,cs)
);
},
{
closed = 1;
nodes = (
(245,366,o),
(211,402,o),
(211,476,cs),
(211,550,o),
(245,586,o),
(303,586,cs),
(361,586,o),
(396,549,o),
(396,476,cs),
(396,403,o),
(361,366,o),
(303,366,cs)
);
}
);
width = 660;
},
{
layerId = m005;
shapes = (
{
closed = 1;
nodes = (
(464,0,o),
(568,141,o),
(568,373,cs),
(568,587,o),
(481,700,o),
(329,700,cs),
(193,700,o),
(100,611,o),
(100,473,cs),
(100,340,o),
(185,252,o),
(306,252,cs),
(422,252,o),
(505,334,o),
(508,460,c),
(531,372,l),
(509,163,o),
(442,58,o),
(310,58,cs),
(235,58,o),
(177,94,o),
(162,148,c),
(109,148,l),
(126,56,o),
(201,0,o),
(305,0,cs)
);
},
{
closed = 1;
nodes = (
(230,310,o),
(162,382,o),
(162,476,cs),
(162,570,o),
(230,642,o),
(330,642,cs),
(429,642,o),
(499,570,o),
(499,476,cs),
(499,382,o),
(429,310,o),
(330,310,cs)
);
}
);
width = 660;
}
);
metricRight = "=h*0.75";
metricWidth = A;
unicode = 57;
},
{
glyphname = zero.blackCircled;
layers = (
{
layerId = m002;
shapes = (
{
closed = 1;
nodes = (
(506,-16,o),
(616,124,o),
(616,350,c),
(616,576,o),
(506,716,o),
(330,716,c),
(154,716,o),
(44,576,o),
(44,350,c),
(44,124,o),
(154,-16,o),
(330,-16,c)
);
},
{
closed = 1;
nodes = (
(380,220,o),
(409,268,o),
(409,350,cs),
(409,359,o),
(409,367,o),
(408,375,c),
(260,282,l),
(272,242,o),
(296,220,o),
(330,220,cs)
);
},
{
closed = 1;
nodes = (
(242,159,o),
(180,237,o),
(180,350,cs),
(180,463,o),
(242,541,o),
(330,541,cs),
(418,541,o),
(480,462,o),
(480,350,cs),
(480,238,o),
(418,159,o),
(330,159,cs)
);
},
{
closed = 1;
nodes = (
(400,418,l),
(388,458,o),
(364,480,o),
(330,480,cs),
(280,480,o),
(251,432,o),
(251,350,cs),
(251,341,o),
(251,333,o),
(252,325,c)
);
}
);
width = 660;
},
{
layerId = m003;
shapes = (
{
closed = 1;
nodes = (
(509,-16,o),
(630,145,o),
(630,385,cs),
(630,590,o),
(528,716,o),
(361,716,cs),
(183,716,o),
(58,551,o),
(58,315,cs),
(58,112,o),
(162,-16,o),
(328,-16,cs)
);
},
{
closed = 1;
nodes = (
(384,220,o),
(423,284,o),
(423,372,cs),
(423,372,o),
(423,373,o),
(423,373,c),
(269,284,l),
(277,243,o),
(299,220,o),
(331,220,cs)
);
},
{
closed = 1;
nodes = (
(244,159,o),
(194,222,o),
(194,328,cs),
(194,453,o),
(263,541,o),
(361,541,cs),
(444,541,o),
(494,478,o),
(494,372,cs),
(494,247,o),
(425,159,o),
(327,159,cs)
);
},
{
closed = 1;
nodes = (
(419,415,l),
(411,457,o),
(389,480,o),
(358,480,cs),
(304,480,o),
(265,416,o),
(265,328,cs),
(265,327,o),
(265,327,o),
(265,326,c)
);
}
);
width = 660;
},
{
layerId = m004;
shapes = (
{
closed = 1;
nodes = (
(504,-24,o),
(616,119,o),
(616,350,cs),
(616,581,o),
(504,724,o),
(330,724,cs),
(156,724,o),
(44,581,o),
(44,350,cs),
(44,119,o),
(156,-24,o),
(330,-24,cs)
);
},
{
closed = 1;
nodes = (
(378,212,o),
(409,264,o),
(409,350,cs),
(409,361,o),
(409,372,o),
(407,381,c),
(258,287,l),
(271,237,o),
(296,212,o),
(330,212,cs)
);
},
{
closed = 1;
nodes = (
(240,167,o),
(180,242,o),
(180,350,cs),
(180,458,o),
(240,533,o),
(330,533,cs),
(420,533,o),
(480,457,o),
(480,350,cs),
(480,243,o),
(420,167,o),
(330,167,cs)
);
},
{
closed = 1;
nodes = (
(402,413,l),
(389,463,o),
(364,488,o),
(330,488,cs),
(282,488,o),
(251,436,o),
(251,350,cs),
(251,339,o),
(251,328,o),
(253,319,c)
);
}
);
width = 660;
},
{
layerId = m005;
shapes = (
{
closed = 1;
nodes = (
(492,0,o),
(592,127,o),
(592,350,cs),
(592,573,o),
(492,700,o),
(330,700,cs),
(168,700,o),
(68,573,o),
(68,350,cs),
(68,127,o),
(168,0,o),
(330,0,cs)
);
},
{
closed = 1;
nodes = (
(364,236,o),
(385,271,o),
(385,350,cs),
(385,347,o),
(385,343,o),
(385,339,c),
(286,277,l),
(297,246,o),
(310,236,o),
(330,236,cs)
);
},
{
closed = 1;
nodes = (
(225,143,o),
(156,231,o),
(156,350,cs),
(156,469,o),
(225,557,o),
(330,557,cs),
(435,557,o),
(504,468,o),
(504,350,cs),
(504,232,o),
(435,143,o),
(330,143,cs)
);
},
{
closed = 1;
nodes = (
(374,423,l),
(363,454,o),
(350,464,o),
(330,464,cs),
(296,464,o),
(275,429,o),
(275,350,cs),
(275,353,o),
(275,357,o),
(275,361,c)
);
}
);
width = 660;
}
);
metricLeft = "=|";
metricWidth = A;
unicode = 9471;
},
{
glyphname = one.blackCircled;
layers = (
{
layerId = m002;
shapes = (
{
closed = 1;
nodes = (
(506,-16,o),
(616,124,o),
(616,350,cs),
(616,576,o),
(506,716,o),
(330,716,cs),
(154,716,o),
(44,576,o),
(44,350,cs),
(44,124,o),
(154,-16,o),
(330,-16,cs)
);
},
{
closed = 1;
nodes = (
(315,425,l),
(234,425,l),
(234,476,l),
(276,476,o),
(314,495,o),
(314,533,c),
(386,533,l),
(386,167,l),
(315,167,l)
);
}
);
width = 660;
},
{
layerId = m003;
shapes = (
{
closed = 1;
nodes = (
(509,-16,o),
(630,145,o),
(630,385,cs),
(630,590,o),
(528,716,o),
(361,716,cs),
(183,716,o),
(58,551,o),
(58,315,cs),
(58,112,o),
(162,-16,o),
(328,-16,cs)
);
},
{
closed = 1;
nodes = (
(333,425,l),
(252,425,l),
(259,476,l),
(311,476,o),
(343,497,o),
(347,533,c),
(419,533,l),
(368,167,l),
(297,167,l)
);
}
);
width = 660;
},
{
layerId = m004;
shapes = (
{
closed = 1;
nodes = (
(504,-24,o),
(616,119,o),
(616,350,cs),
(616,581,o),
(504,724,o),
(330,724,cs),
(156,724,o),
(44,581,o),
(44,350,cs),
(44,119,o),
(156,-24,o),
(330,-24,cs)
);
},
{
closed = 1;
nodes = (
(315,433,l),
(234,433,l),
(234,468,l),
(272,468,o),
(309,485,o),
(314,525,c),
(386,525,l),
(386,175,l),
(315,175,l)
);
}
);
width = 660;
},
{
layerId = m005;
shapes = (
{
closed = 1;
nodes = (
(492,0,o),
(592,127,o),
(592,350,cs),
(592,573,o),
(492,700,o),
(330,700,cs),
(168,700,o),
(68,573,o),
(68,350,cs),
(68,127,o),
(168,0,o),
(330,0,cs)
);
},
{
closed = 1;
nodes = (
(291,409,l),
(210,409,l),
(210,493,l),
(265,488,o),
(298,498,o),
(288,549,c),
(410,549,l),
(410,151,l),
(291,151,l)
);
}
);
width = 660;
}
);
metricLeft = "=|";
metricWidth = A;
unicode = 10102;
},
{
glyphname = two.blackCircled;
layers = (
{
layerId = m002;
shapes = (
{
closed = 1;
nodes = (
(506,-16,o),
(616,124,o),
(616,350,c),
(616,576,o),
(506,716,o),
(330,716,c),
(154,716,o),
(44,576,o),
(44,350,c),
(44,124,o),
(154,-16,o),
(330,-16,c)
);
},
{
closed = 1;
nodes = (
(199,220,l),
(337,344,ls),
(372,375,o),
(386,397,o),
(386,422,cs),
(386,454,o),
(364,476,o),
(333,476,cs),
(303,476,o),
(281,453,o),
(281,421,c),
(210,421,l),
(210,489,o),
(262,537,o),
(334,537,cs),
(406,537,o),
(457,491,o),
(457,425,cs),
(457,378,o),
(430,341,o),
(359,278,cs),
(298,224,l),
(461,224,l),
(461,163,l),
(199,163,l)
);
}
);
width = 660;
},
{
layerId = m003;
shapes = (
{
closed = 1;
nodes = (
(509,-16,o),
(630,145,o),
(630,385,cs),
(630,590,o),
(528,716,o),
(361,716,cs),
(183,716,o),
(58,551,o),
(58,315,cs),
(58,112,o),
(162,-16,o),
(328,-16,cs)
);
},
{
closed = 1;
nodes = (
(201,220,l),
(356,344,ls),
(403,382,o),
(416,400,o),
(416,427,cs),
(416,458,o),
(399,476,o),
(370,476,cs),
(339,476,o),
(316,454,o),
(311,421,c),
(240,421,l),
(251,494,o),
(302,537,o),
(376,537,cs),
(446,537,o),
(488,499,o),
(488,435,cs),
(488,385,o),
(463,352,o),
(369,278,cs),
(301,224,l),
(463,224,l),
(455,163,l),
(193,163,l)
);
}
);
width = 660;
},
{
layerId = m004;
shapes = (
{
closed = 1;
nodes = (
(504,-24,o),
(616,119,o),
(616,350,cs),
(616,581,o),
(504,724,o),
(330,724,cs),
(156,724,o),
(44,581,o),
(44,350,cs),
(44,119,o),
(156,-24,o),
(330,-24,cs)
);
},
{
closed = 1;
nodes = (
(199,214,l),
(337,338,ls),
(370,367,o),
(386,392,o),
(386,422,cs),
(386,460,o),
(362,484,o),
(333,484,cs),
(307,484,o),
(284,463,o),
(281,429,c),
(210,429,l),
(214,487,o),
(263,529,o),
(334,529,cs),
(408,529,o),
(457,485,o),
(457,425,cs),
(457,383,o),
(433,349,o),
(359,284,cs),
(282,216,l),
(461,216,l),
(461,171,l),
(199,171,l)
);
}
);
width = 660;
},
{
layerId = m005;
shapes = (
{
closed = 1;
nodes = (
(492,0,o),
(592,127,o),
(592,350,cs),
(592,573,o),
(492,700,o),
(330,700,cs),
(168,700,o),
(68,573,o),
(68,350,cs),
(68,127,o),
(168,0,o),
(330,0,cs)
);
},
{
closed = 1;
nodes = (
(175,225,l),
(321,356,ls),
(351,383,o),
(362,400,o),
(362,422,cs),
(362,450,o),
(352,460,o),
(333,460,cs),
(313,460,o),
(302,445,o),
(306,405,c),
(187,405,l),
(178,488,o),
(242,553,o),
(334,553,cs),
(420,553,o),
(481,498,o),
(481,425,cs),
(481,374,o),
(451,334,o),
(375,266,cs),
(346,240,l),
(485,240,l),
(485,147,l),
(175,147,l)
);
}
);
width = 660;
}
);
metricLeft = "=|";
metricWidth = A;
unicode = 10103;
},
{
glyphname = three.blackCircled;
layers = (
{
layerId = m002;
shapes = (
{
closed = 1;
nodes = (
(506,-16,o),
(616,124,o),
(616,350,cs),
(616,576,o),
(506,716,o),
(330,716,cs),
(154,716,o),
(44,576,o),
(44,350,cs),
(44,124,o),
(154,-16,o),
(330,-16,cs)
);
},
{
closed = 1;
nodes = (
(249,159,o),
(193,206,o),
(193,275,c),
(265,275,l),
(265,243,o),
(292,220,o),
(331,220,cs),
(369,220,o),
(396,241,o),
(396,271,cs),
(396,303,o),
(365,324,o),
(317,324,cs),
(295,324,l),
(295,385,l),
(317,385,ls),
(358,385,o),
(386,405,o),
(386,434,cs),
(386,461,o),
(363,480,o),
(331,480,cs),
(295,480,o),
(270,457,o),
(270,425,c),
(198,425,l),
(198,493,o),
(253,541,o),
(331,541,cs),
(405,541,o),
(457,499,o),
(457,439,cs),
(457,403,o),
(438,373,o),
(408,356,c),
(444,339,o),
(467,306,o),
(467,266,cs),
(467,203,o),
(411,159,o),
(331,159,cs)
);
}
);
width = 660;
},
{
layerId = m003;
shapes = (
{
closed = 1;
nodes = (
(509,-16,o),
(630,145,o),
(630,385,cs),
(630,590,o),
(528,716,o),
(361,716,cs),
(183,716,o),
(58,551,o),
(58,315,cs),
(58,112,o),
(162,-16,o),
(328,-16,cs)
);
},
{
closed = 1;
nodes = (
(262,159,o),
(206,205,o),
(196,275,c),
(268,275,l),
(273,241,o),
(298,220,o),
(334,220,cs),
(371,220,o),
(398,241,o),
(398,270,cs),
(398,301,o),
(368,324,o),
(327,324,cs),
(305,324,l),
(313,385,l),
(335,385,ls),
(381,385,o),
(411,405,o),
(411,436,cs),
(411,462,o),
(390,480,o),
(361,480,cs),
(328,480,o),
(299,457,o),
(294,425,c),
(222,425,l),
(232,493,o),
(290,541,o),
(363,541,cs),
(432,541,o),
(483,498,o),
(483,440,cs),
(483,401,o),
(460,370,o),
(421,354,c),
(451,338,o),
(469,307,o),
(469,270,cs),
(469,206,o),
(413,159,o),
(337,159,cs)
);
}
);
width = 660;
},
{
layerId = m004;
shapes = (
{
closed = 1;
nodes = (
(504,-24,o),
(616,119,o),
(616,350,cs),
(616,581,o),
(504,724,o),
(330,724,cs),
(156,724,o),
(44,581,o),
(44,350,cs),
(44,119,o),
(156,-24,o),
(330,-24,cs)
);
},
{
closed = 1;
nodes = (
(250,167,o),
(198,208,o),
(193,267,c),
(265,267,l),
(269,233,o),
(296,212,o),
(331,212,cs),
(368,212,o),
(396,234,o),
(396,271,cs),
(396,311,o),
(364,332,o),
(317,332,cs),
(295,332,l),
(295,377,l),
(317,377,ls),
(357,377,o),
(386,398,o),
(386,434,cs),
(386,468,o),
(362,488,o),
(331,488,cs),
(298,488,o),
(274,466,o),
(270,433,c),
(198,433,l),
(203,491,o),
(254,533,o),
(331,533,cs),
(407,533,o),
(457,493,o),
(457,439,cs),
(457,403,o),
(435,374,o),
(392,355,c),
(441,338,o),
(467,306,o),
(467,266,cs),
(467,209,o),
(413,167,o),
(331,167,cs)
);
}
);
width = 660;
},
{
layerId = m005;
shapes = (
{
closed = 1;
nodes = (
(506,-16,o),
(616,124,o),
(616,350,cs),
(616,576,o),
(506,716,o),
(330,716,cs),
(154,716,o),
(44,576,o),
(44,350,cs),
(44,124,o),
(154,-16,o),
(330,-16,cs)
);
},
{
closed = 1;
nodes = (
(249,159,o),
(193,206,o),
(193,275,c),
(265,275,l),
(265,243,o),
(292,220,o),
(331,220,cs),
(369,220,o),
(396,241,o),
(396,271,cs),
(396,303,o),
(365,324,o),
(317,324,cs),
(295,324,l),
(295,385,l),
(317,385,ls),
(358,385,o),
(386,405,o),
(386,434,cs),
(386,461,o),
(363,480,o),
(331,480,cs),
(295,480,o),
(270,457,o),
(270,425,c),
(198,425,l),
(198,493,o),
(253,541,o),
(331,541,cs),
(405,541,o),
(457,499,o),
(457,439,cs),
(457,403,o),
(438,373,o),
(408,356,c),
(444,339,o),
(467,306,o),
(467,266,cs),
(467,203,o),
(411,159,o),
(331,159,cs)
);
}
);
width = 660;
}
);
metricLeft = "=|";
metricWidth = A;
unicode = 10104;
},
{
glyphname = four.blackCircled;
layers = (
{
layerId = m002;
shapes = (
{
closed = 1;
nodes = (
(506,-16,o),
(616,124,o),
(616,350,cs),
(616,576,o),
(506,716,o),
(330,716,cs),
(154,716,o),
(44,576,o),
(44,350,cs),
(44,124,o),
(154,-16,o),
(330,-16,cs)
);
},
{
closed = 1;
nodes = (
(353,256,l),
(169,256,l),
(169,312,l),
(338,533,l),
(424,533,l),
(424,317,l),
(475,317,l),
(475,256,l),
(424,256,l),
(424,167,l),
(353,167,l)
);
},
{
closed = 1;
nodes = (
(353,317,l),
(353,457,l),
(251,317,l)
);
}
);
width = 660;
},
{
layerId = m003;
shapes = (
{
closed = 1;
nodes = (
(509,-16,o),
(630,145,o),
(630,385,cs),
(630,590,o),
(528,716,o),
(361,716,cs),
(183,716,o),
(58,551,o),
(58,315,cs),
(58,112,o),
(162,-16,o),
(328,-16,cs)
);
},
{
closed = 1;
nodes = (
(358,256,l),
(174,256,l),
(182,312,l),
(382,533,l),
(468,533,l),
(438,317,l),
(489,317,l),
(480,256,l),
(429,256,l),
(417,167,l),
(346,167,l)
);
},
{
closed = 1;
nodes = (
(367,317,l),
(386,457,l),
(265,317,l)
);
}
);
width = 660;
},
{
layerId = m004;
shapes = (
{
closed = 1;
nodes = (
(504,-24,o),
(616,119,o),
(616,350,cs),
(616,581,o),
(504,724,o),
(330,724,cs),
(156,724,o),
(44,581,o),
(44,350,cs),
(44,119,o),
(156,-24,o),
(330,-24,cs)
);
},
{
closed = 1;
nodes = (
(353,264,l),
(169,264,l),
(169,307,l),
(336,525,l),
(424,525,l),
(424,309,l),
(475,309,l),
(475,264,l),
(424,264,l),
(424,175,l),
(353,175,l)
);
},
{
closed = 1;
nodes = (
(353,309,l),
(353,462,l),
(242,309,l)
);
}
);
width = 660;
},
{
layerId = m005;
shapes = (
{
closed = 1;
nodes = (
(492,0,o),
(592,127,o),
(592,350,cs),
(592,573,o),
(492,700,o),
(330,700,cs),
(168,700,o),
(68,573,o),
(68,350,cs),
(68,127,o),
(168,0,o),
(330,0,cs)
);
},
{
closed = 1;
nodes = (
(329,240,l),
(145,240,l),
(145,315,l),
(324,549,l),
(448,549,l),
(448,333,l),
(499,333,l),
(499,240,l),
(448,240,l),
(448,151,l),
(329,151,l)
);
},
{
closed = 1;
nodes = (
(329,333,l),
(329,388,l),
(289,333,l)
);
}
);
width = 660;
}
);
metricLeft = "=|";
metricWidth = A;
unicode = 10105;
},
